<svg width="451" height="474" viewBox="0 0 451 474" fill="none" xmlns="http://www.w3.org/2000/svg">
<rect x="229" y="250" width="40" height="9" rx="2" fill="#18181B" fill-opacity="0.8"/>
<rect x="229.25" y="250.25" width="39.5" height="8.5" rx="1.75" stroke="#27272A" stroke-opacity="0.8" stroke-width="0.5"/>
<text x="249.0" y="254.5" font-family="Noto Sans SC, Microsoft YaHei, sans-serif" font-size="5.5" font-weight="bold" fill="white" text-anchor="middle" dominant-baseline="central">中路猫道</text>
<rect x="280" y="220" width="24" height="9" rx="2" fill="#18181B" fill-opacity="0.8"/>
<rect x="280.25" y="220.25" width="23.5" height="8.5" rx="1.75" stroke="#27272A" stroke-opacity="0.8" stroke-width="0.5"/>
<text x="292.0" y="224.5" font-family="Noto Sans SC, Microsoft YaHei, sans-serif" font-size="5.5" font-weight="bold" fill="white" text-anchor="middle" dominant-baseline="central">A通风管</text>
<rect x="192" y="209" width="37" height="9" rx="2" fill="#18181B" fill-opacity="0.8"/>
<rect x="192.25" y="209.25" width="36.5" height="8.5" rx="1.75" stroke="#27272A" stroke-opacity="0.8" stroke-width="0.5"/>
<text x="210.5" y="213.5" font-family="Noto Sans SC, Microsoft YaHei, sans-serif" font-size="5" font-weight="bold" fill="white" text-anchor="middle" dominant-baseline="central">中路图书馆</text>
<rect x="192" y="304" width="38" height="9" rx="2" fill="#18181B" fill-opacity="0.8"/>
<rect x="192.25" y="304.25" width="37.5" height="8.5" rx="1.75" stroke="#27272A" stroke-opacity="0.8" stroke-width="0.5"/>
<text x="211.0" y="308.5" font-family="Noto Sans SC, Microsoft YaHei, sans-serif" font-size="5.5" font-weight="bold" fill="white" text-anchor="middle" dominant-baseline="central">中路下层</text>
<rect x="162" y="255" width="32" height="9" rx="2" fill="#18181B" fill-opacity="0.8"/>
<rect x="162.25" y="255.25" width="31.5" height="8.5" rx="1.75" stroke="#27272A" stroke-opacity="0.8" stroke-width="0.5"/>
<text x="178.0" y="259.5" font-family="Noto Sans SC, Microsoft YaHei, sans-serif" font-size="5.5" font-weight="bold" fill="white" text-anchor="middle" dominant-baseline="central">中路弯道</text>
<rect x="85" y="386" width="28" height="9" rx="2" fill="#18181B" fill-opacity="0.8"/>
<rect x="85.25" y="386.25" width="27.5" height="8.5" rx="1.75" stroke="#27272A" stroke-opacity="0.8" stroke-width="0.5"/>
<text x="99.0" y="390.5" font-family="Noto Sans SC, Microsoft YaHei, sans-serif" font-size="6" font-weight="bold" fill="white" text-anchor="middle" dominant-baseline="central">B大厅</text>
<rect x="113" y="284" width="24" height="9" rx="2" fill="#18181B" fill-opacity="0.8"/>
<rect x="113.25" y="284.25" width="23.5" height="8.5" rx="1.75" stroke="#27272A" stroke-opacity="0.8" stroke-width="0.5"/>
<text x="125.0" y="288.5" font-family="Noto Sans SC, Microsoft YaHei, sans-serif" font-size="6" font-weight="bold" fill="white" text-anchor="middle" dominant-baseline="central">B主路</text>
<rect x="45" y="313" width="18" height="9" rx="2" fill="#18181B" fill-opacity="0.8"/>
<rect x="45.25" y="313.25" width="17.5" height="8.5" rx="1.75" stroke="#27272A" stroke-opacity="0.8" stroke-width="0.5"/>
<text x="54.0" y="317.5" font-family="Noto Sans SC, Microsoft YaHei, sans-serif" font-size="6" font-weight="bold" fill="white" text-anchor="middle" dominant-baseline="central">B巢穴</text>
<rect x="8" y="260" width="25" height="9" rx="2" fill="#18181B" fill-opacity="0.8"/>
<rect x="8.25" y="260.25" width="24.5" height="8.5" rx="1.75" stroke="#27272A" stroke-opacity="0.8" stroke-width="0.5"/>
<text x="20.5" y="264.5" font-family="Noto Sans SC, Microsoft YaHei, sans-serif" font-size="5.5" font-weight="bold" fill="white" text-anchor="middle" dominant-baseline="central">B危险区</text>
<rect x="76" y="132" width="28" height="9" rx="2" fill="#18181B" fill-opacity="0.8"/>
<rect x="76.25" y="132.25" width="27.5" height="8.5" rx="1.75" stroke="#27272A" stroke-opacity="0.8" stroke-width="0.5"/>
<text x="90.0" y="136.5" font-family="Noto Sans SC, Microsoft YaHei, sans-serif" font-size="6" font-weight="bold" fill="white" text-anchor="middle" dominant-baseline="central">B塔楼</text>
<rect x="138" y="149" width="22" height="9" rx="2" fill="#18181B" fill-opacity="0.8"/>
<rect x="138.25" y="149.25" width="21.5" height="8.5" rx="1.75" stroke="#27272A" stroke-opacity="0.8" stroke-width="0.5"/>
<text x="149.0" y="153.5" font-family="Noto Sans SC, Microsoft YaHei, sans-serif" font-size="5.5" font-weight="bold" fill="white" text-anchor="middle" dominant-baseline="central">B连接道</text>
<rect x="237" y="136" width="27" height="9" rx="2" fill="#18181B" fill-opacity="0.8"/>
<rect x="237.25" y="136.25" width="26.5" height="8.5" rx="1.75" stroke="#27272A" stroke-opacity="0.8" stroke-width="0.5"/>
<text x="250.5" y="140.5" font-family="Noto Sans SC, Microsoft YaHei, sans-serif" font-size="5.5" font-weight="bold" fill="white" text-anchor="middle" dominant-baseline="central">中路上层</text>
<rect x="229" y="43" width="37" height="9" rx="2" fill="#18181B" fill-opacity="0.8"/>
<rect x="229.25" y="43.25" width="36.5" height="8.5" rx="1.75" stroke="#27272A" stroke-opacity="0.8" stroke-width="0.5"/>
<text x="247.5" y="47.5" font-family="Noto Sans SC, Microsoft YaHei, sans-serif" font-size="5" font-weight="bold" fill="white" text-anchor="middle" dominant-baseline="central">防守方重生点</text>
<rect x="237" y="423" width="37" height="9" rx="2" fill="#18181B" fill-opacity="0.8"/>
<rect x="237.25" y="423.25" width="36.5" height="8.5" rx="1.75" stroke="#27272A" stroke-opacity="0.8" stroke-width="0.5"/>
<text x="255.5" y="427.5" font-family="Noto Sans SC, Microsoft YaHei, sans-serif" font-size="6" font-weight="bold" fill="white" text-anchor="middle" dominant-baseline="central">A密道</text>
<rect x="363" y="84" width="29" height="9" rx="2" fill="#18181B" fill-opacity="0.8"/>
<rect x="363.25" y="84.25" width="28.5" height="8.5" rx="1.75" stroke="#27272A" stroke-opacity="0.8" stroke-width="0.5"/>
<text x="377.5" y="88.5" font-family="Noto Sans SC, Microsoft YaHei, sans-serif" font-size="7" font-weight="bold" fill="white" text-anchor="middle" dominant-baseline="central">A桥</text>
<rect x="427" y="218" width="23" height="9" rx="2" fill="#18181B" fill-opacity="0.8"/>
<rect x="427.25" y="218.25" width="22.5" height="8.5" rx="1.75" stroke="#27272A" stroke-opacity="0.8" stroke-width="0.5"/>
<text x="438.5" y="222.5" font-family="Noto Sans SC, Microsoft YaHei, sans-serif" font-size="6" font-weight="bold" fill="white" text-anchor="middle" dominant-baseline="central">A密道</text>
<rect x="398" y="290" width="24" height="9" rx="2" fill="#18181B" fill-opacity="0.8"/>
<rect x="398.25" y="290.25" width="23.5" height="8.5" rx="1.75" stroke="#27272A" stroke-opacity="0.8" stroke-width="0.5"/>
<text x="410.0" y="294.5" font-family="Noto Sans SC, Microsoft YaHei, sans-serif" font-size="6" font-weight="bold" fill="white" text-anchor="middle" dominant-baseline="central">A主路</text>
<rect x="330" y="361" width="28" height="9" rx="2" fill="#18181B" fill-opacity="0.8"/>
<rect x="330.25" y="361.25" width="27.5" height="8.5" rx="1.75" stroke="#27272A" stroke-opacity="0.8" stroke-width="0.5"/>
<text x="344.0" y="365.5" font-family="Noto Sans SC, Microsoft YaHei, sans-serif" font-size="5" font-weight="bold" fill="white" text-anchor="middle" dominant-baseline="central">A入口大厅</text>
<rect x="322" y="140" width="22" height="9" rx="2" fill="#18181B" fill-opacity="0.8"/>
<rect x="322.25" y="140.25" width="21.5" height="8.5" rx="1.75" stroke="#27272A" stroke-opacity="0.8" stroke-width="0.5"/>
<text x="333.0" y="144.5" font-family="Noto Sans SC, Microsoft YaHei, sans-serif" font-size="5.5" font-weight="bold" fill="white" text-anchor="middle" dominant-baseline="central">A连接道</text>
<rect x="326" y="228" width="28" height="9" rx="2" fill="#18181B" fill-opacity="0.8"/>
<rect x="326.25" y="228.25" width="27.5" height="8.5" rx="1.75" stroke="#27272A" stroke-opacity="0.8" stroke-width="0.5"/>
<text x="340.0" y="232.5" font-family="Noto Sans SC, Microsoft YaHei, sans-serif" font-size="6" font-weight="bold" fill="white" text-anchor="middle" dominant-baseline="central">A塔楼</text>
<rect x="392" y="123" width="28" height="9" rx="2" fill="#18181B" fill-opacity="0.8"/>
<rect x="392.25" y="123.25" width="27.5" height="8.5" rx="1.75" stroke="#27272A" stroke-opacity="0.8" stroke-width="0.5"/>
<text x="406.0" y="127.5" font-family="Noto Sans SC, Microsoft YaHei, sans-serif" font-size="6" font-weight="bold" fill="white" text-anchor="middle" dominant-baseline="central">保安室</text>
</svg>