<svg width="451" height="474" viewBox="0 0 451 474" fill="none" xmlns="http://www.w3.org/2000/svg">
<rect x="222" y="224" width="40" height="9" rx="2" transform="rotate(180 222 224)" fill="#18181B" fill-opacity="0.8"/>
<rect x="221.75" y="223.75" width="39.5" height="8.5" rx="1.75" transform="rotate(180 221.75 223.75)" stroke="#27272A" stroke-opacity="0.8" stroke-width="0.5"/>
<text x="202.0" y="219.5" font-family="Noto Sans SC, Microsoft YaHei, sans-serif" font-size="7" font-weight="bold" fill="white" text-anchor="middle" dominant-baseline="central">猫道</text>
<rect x="171" y="254" width="24" height="9" rx="2" transform="rotate(180 171 254)" fill="#18181B" fill-opacity="0.8"/>
<rect x="170.75" y="253.75" width="23.5" height="8.5" rx="1.75" transform="rotate(180 170.75 253.75)" stroke="#27272A" stroke-opacity="0.8" stroke-width="0.5"/>
<text x="159.0" y="249.5" font-family="Noto Sans SC, Microsoft YaHei, sans-serif" font-size="5.5" font-weight="bold" fill="white" text-anchor="middle" dominant-baseline="central">A通风管</text>
<rect x="259" y="265" width="37" height="9" rx="2" transform="rotate(180 259 265)" fill="#18181B" fill-opacity="0.8"/>
<rect x="258.75" y="264.75" width="36.5" height="8.5" rx="1.75" transform="rotate(180 258.75 264.75)" stroke="#27272A" stroke-opacity="0.8" stroke-width="0.5"/>
<text x="240.5" y="260.5" font-family="Noto Sans SC, Microsoft YaHei, sans-serif" font-size="6" font-weight="bold" fill="white" text-anchor="middle" dominant-baseline="central">图书馆</text>
<rect x="259" y="170" width="38" height="9" rx="2" transform="rotate(180 259 170)" fill="#18181B" fill-opacity="0.8"/>
<rect x="258.75" y="169.75" width="37.5" height="8.5" rx="1.75" transform="rotate(180 258.75 169.75)" stroke="#27272A" stroke-opacity="0.8" stroke-width="0.5"/>
<text x="240.0" y="165.5" font-family="Noto Sans SC, Microsoft YaHei, sans-serif" font-size="6" font-weight="bold" fill="white" text-anchor="middle" dominant-baseline="central">中下层</text>
<rect x="289" y="219" width="32" height="9" rx="2" transform="rotate(180 289 219)" fill="#18181B" fill-opacity="0.8"/>
<rect x="288.75" y="218.75" width="31.5" height="8.5" rx="1.75" transform="rotate(180 288.75 218.75)" stroke="#27272A" stroke-opacity="0.8" stroke-width="0.5"/>
<text x="273.0" y="214.5" font-family="Noto Sans SC, Microsoft YaHei, sans-serif" font-size="6" font-weight="bold" fill="white" text-anchor="middle" dominant-baseline="central">中弯道</text>
<rect x="366" y="88" width="28" height="9" rx="2" transform="rotate(180 366 88)" fill="#18181B" fill-opacity="0.8"/>
<rect x="365.75" y="87.75" width="27.5" height="8.5" rx="1.75" transform="rotate(180 365.75 87.75)" stroke="#27272A" stroke-opacity="0.8" stroke-width="0.5"/>
<text x="352.0" y="83.5" font-family="Noto Sans SC, Microsoft YaHei, sans-serif" font-size="6" font-weight="bold" fill="white" text-anchor="middle" dominant-baseline="central">B大厅</text>
<rect x="338" y="190" width="24" height="9" rx="2" transform="rotate(180 338 190)" fill="#18181B" fill-opacity="0.8"/>
<rect x="337.75" y="189.75" width="23.5" height="8.5" rx="1.75" transform="rotate(180 337.75 189.75)" stroke="#27272A" stroke-opacity="0.8" stroke-width="0.5"/>
<text x="326.0" y="185.5" font-family="Noto Sans SC, Microsoft YaHei, sans-serif" font-size="7" font-weight="bold" fill="white" text-anchor="middle" dominant-baseline="central">B大</text>
<rect x="406" y="161" width="18" height="9" rx="2" transform="rotate(180 406 161)" fill="#18181B" fill-opacity="0.8"/>
<rect x="405.75" y="160.75" width="17.5" height="8.5" rx="1.75" transform="rotate(180 405.75 160.75)" stroke="#27272A" stroke-opacity="0.8" stroke-width="0.5"/>
<text x="397.0" y="156.5" font-family="Noto Sans SC, Microsoft YaHei, sans-serif" font-size="6" font-weight="bold" fill="white" text-anchor="middle" dominant-baseline="central">B巢穴</text>
<rect x="443" y="214" width="25" height="9" rx="2" transform="rotate(180 443 214)" fill="#18181B" fill-opacity="0.8"/>
<rect x="442.75" y="213.75" width="24.5" height="8.5" rx="1.75" transform="rotate(180 442.75 213.75)" stroke="#27272A" stroke-opacity="0.8" stroke-width="0.5"/>
<text x="430.5" y="209.5" font-family="Noto Sans SC, Microsoft YaHei, sans-serif" font-size="5.5" font-weight="bold" fill="white" text-anchor="middle" dominant-baseline="central">B危险区</text>
<rect x="375" y="342" width="28" height="9" rx="2" transform="rotate(180 375 342)" fill="#18181B" fill-opacity="0.8"/>
<rect x="374.75" y="341.75" width="27.5" height="8.5" rx="1.75" transform="rotate(180 374.75 341.75)" stroke="#27272A" stroke-opacity="0.8" stroke-width="0.5"/>
<text x="361.0" y="337.5" font-family="Noto Sans SC, Microsoft YaHei, sans-serif" font-size="6" font-weight="bold" fill="white" text-anchor="middle" dominant-baseline="central">B天堂</text>
<rect x="313" y="325" width="22" height="9" rx="2" transform="rotate(180 313 325)" fill="#18181B" fill-opacity="0.8"/>
<rect x="312.75" y="324.75" width="21.5" height="8.5" rx="1.75" transform="rotate(180 312.75 324.75)" stroke="#27272A" stroke-opacity="0.8" stroke-width="0.5"/>
<text x="302.0" y="320.5" font-family="Noto Sans SC, Microsoft YaHei, sans-serif" font-size="7" font-weight="bold" fill="white" text-anchor="middle" dominant-baseline="central">B连</text>
<rect x="214" y="338" width="27" height="9" rx="2" transform="rotate(180 214 338)" fill="#18181B" fill-opacity="0.8"/>
<rect x="213.75" y="337.75" width="26.5" height="8.5" rx="1.75" transform="rotate(180 213.75 337.75)" stroke="#27272A" stroke-opacity="0.8" stroke-width="0.5"/>
<text x="200.5" y="333.5" font-family="Noto Sans SC, Microsoft YaHei, sans-serif" font-size="6" font-weight="bold" fill="white" text-anchor="middle" dominant-baseline="central">中上层</text>
<rect x="222" y="431" width="37" height="9" rx="2" transform="rotate(180 222 431)" fill="#18181B" fill-opacity="0.8"/>
<rect x="221.75" y="430.75" width="36.5" height="8.5" rx="1.75" transform="rotate(180 221.75 430.75)" stroke="#27272A" stroke-opacity="0.8" stroke-width="0.5"/>
<text x="203.5" y="426.5" font-family="Noto Sans SC, Microsoft YaHei, sans-serif" font-size="7" font-weight="bold" fill="white" text-anchor="middle" dominant-baseline="central">警家</text>
<rect x="214" y="51" width="37" height="9" rx="2" transform="rotate(180 214 51)" fill="#18181B" fill-opacity="0.8"/>
<rect x="213.75" y="50.75" width="36.5" height="8.5" rx="1.75" transform="rotate(180 213.75 50.75)" stroke="#27272A" stroke-opacity="0.8" stroke-width="0.5"/>
<text x="195.5" y="46.5" font-family="Noto Sans SC, Microsoft YaHei, sans-serif" font-size="6" font-weight="bold" fill="white" text-anchor="middle" dominant-baseline="central">A密道</text>
<rect x="88" y="390" width="29" height="9" rx="2" transform="rotate(180 88 390)" fill="#18181B" fill-opacity="0.8"/>
<rect x="87.75" y="389.75" width="28.5" height="8.5" rx="1.75" transform="rotate(180 87.75 389.75)" stroke="#27272A" stroke-opacity="0.8" stroke-width="0.5"/>
<text x="73.5" y="385.5" font-family="Noto Sans SC, Microsoft YaHei, sans-serif" font-size="7" font-weight="bold" fill="white" text-anchor="middle" dominant-baseline="central">A桥</text>
<rect x="24" y="256" width="23" height="9" rx="2" transform="rotate(180 24 256)" fill="#18181B" fill-opacity="0.8"/>
<rect x="23.75" y="255.75" width="22.5" height="8.5" rx="1.75" transform="rotate(180 23.75 255.75)" stroke="#27272A" stroke-opacity="0.8" stroke-width="0.5"/>
<text x="12.5" y="251.5" font-family="Noto Sans SC, Microsoft YaHei, sans-serif" font-size="6" font-weight="bold" fill="white" text-anchor="middle" dominant-baseline="central">A密道</text>
<rect x="53" y="184" width="24" height="9" rx="2" transform="rotate(180 53 184)" fill="#18181B" fill-opacity="0.8"/>
<rect x="52.75" y="183.75" width="23.5" height="8.5" rx="1.75" transform="rotate(180 52.75 183.75)" stroke="#27272A" stroke-opacity="0.8" stroke-width="0.5"/>
<text x="41.0" y="179.5" font-family="Noto Sans SC, Microsoft YaHei, sans-serif" font-size="7" font-weight="bold" fill="white" text-anchor="middle" dominant-baseline="central">A大</text>
<rect x="121" y="113" width="28" height="9" rx="2" transform="rotate(180 121 113)" fill="#18181B" fill-opacity="0.8"/>
<rect x="120.75" y="112.75" width="27.5" height="8.5" rx="1.75" transform="rotate(180 120.75 112.75)" stroke="#27272A" stroke-opacity="0.8" stroke-width="0.5"/>
<text x="107.0" y="108.5" font-family="Noto Sans SC, Microsoft YaHei, sans-serif" font-size="7" font-weight="bold" fill="white" text-anchor="middle" dominant-baseline="central">A厅</text>
<rect x="129" y="334" width="22" height="9" rx="2" transform="rotate(180 129 334)" fill="#18181B" fill-opacity="0.8"/>
<rect x="128.75" y="333.75" width="21.5" height="8.5" rx="1.75" transform="rotate(180 128.75 333.75)" stroke="#27272A" stroke-opacity="0.8" stroke-width="0.5"/>
<text x="118.0" y="329.5" font-family="Noto Sans SC, Microsoft YaHei, sans-serif" font-size="7" font-weight="bold" fill="white" text-anchor="middle" dominant-baseline="central">A连</text>
<rect x="125" y="246" width="28" height="9" rx="2" transform="rotate(180 125 246)" fill="#18181B" fill-opacity="0.8"/>
<rect x="124.75" y="245.75" width="27.5" height="8.5" rx="1.75" transform="rotate(180 124.75 245.75)" stroke="#27272A" stroke-opacity="0.8" stroke-width="0.5"/>
<text x="111.0" y="241.5" font-family="Noto Sans SC, Microsoft YaHei, sans-serif" font-size="6" font-weight="bold" fill="white" text-anchor="middle" dominant-baseline="central">A天堂</text>
<rect x="59" y="351" width="28" height="9" rx="2" transform="rotate(180 59 351)" fill="#18181B" fill-opacity="0.8"/>
<rect x="58.75" y="350.75" width="27.5" height="8.5" rx="1.75" transform="rotate(180 58.75 350.75)" stroke="#27272A" stroke-opacity="0.8" stroke-width="0.5"/>
<text x="45.0" y="346.5" font-family="Noto Sans SC, Microsoft YaHei, sans-serif" font-size="7" font-weight="bold" fill="white" text-anchor="middle" dominant-baseline="central">保安</text>
</svg>