<svg width="410" height="474" viewBox="0 0 410 474" fill="none" xmlns="http://www.w3.org/2000/svg">
<rect x="3" y="122" width="38" height="9" rx="2" fill="#18181B" fill-opacity="0.8"/>
<rect x="3.25" y="122.25" width="37.5" height="8.5" rx="1.75" stroke="#27272A" stroke-opacity="0.8" stroke-width="0.5"/>
<text x="22.0" y="126.5" font-family="Noto Sans SC, Microsoft YaHei, sans-serif" font-size="7" font-weight="bold" fill="white" text-anchor="middle" dominant-baseline="central">船屋</text>
<rect x="155" y="136" width="25" height="9" rx="2" fill="#18181B" fill-opacity="0.8"/>
<rect x="155.25" y="136.25" width="24.5" height="8.5" rx="1.75" stroke="#27272A" stroke-opacity="0.8" stroke-width="0.5"/>
<text x="167.5" y="140.5" font-family="Noto Sans SC, Microsoft YaHei, sans-serif" font-size="7" font-weight="bold" fill="white" text-anchor="middle" dominant-baseline="central">市场</text>
<rect x="83" y="254" width="22" height="9" rx="2" fill="#18181B" fill-opacity="0.8"/>
<rect x="83.25" y="254.25" width="21.5" height="8.5" rx="1.75" stroke="#27272A" stroke-opacity="0.8" stroke-width="0.5"/>
<text x="94.0" y="258.5" font-family="Noto Sans SC, Microsoft YaHei, sans-serif" font-size="7" font-weight="bold" fill="white" text-anchor="middle" dominant-baseline="central">大厅</text>
<rect x="139" y="239" width="29" height="9" rx="2" fill="#18181B" fill-opacity="0.8"/>
<rect x="139.25" y="239.25" width="28.5" height="8.5" rx="1.75" stroke="#27272A" stroke-opacity="0.8" stroke-width="0.5"/>
<text x="153.5" y="243.5" font-family="Noto Sans SC, Microsoft YaHei, sans-serif" font-size="7" font-weight="bold" fill="white" text-anchor="middle" dominant-baseline="central">中连</text>
<rect x="178" y="189" width="38" height="9" rx="2" fill="#18181B" fill-opacity="0.8"/>
<rect x="178.25" y="189.25" width="37.5" height="8.5" rx="1.75" stroke="#27272A" stroke-opacity="0.8" stroke-width="0.5"/>
<text x="197.0" y="193.5" font-family="Noto Sans SC, Microsoft YaHei, sans-serif" font-size="6" font-weight="bold" fill="white" text-anchor="middle" dominant-baseline="central">中下层</text>
<rect x="93" y="181" width="24" height="9" rx="2" fill="#18181B" fill-opacity="0.8"/>
<rect x="93.25" y="181.25" width="23.5" height="8.5" rx="1.75" stroke="#27272A" stroke-opacity="0.8" stroke-width="0.5"/>
<text x="105.0" y="185.5" font-family="Noto Sans SC, Microsoft YaHei, sans-serif" font-size="7" font-weight="bold" fill="white" text-anchor="middle" dominant-baseline="central">B大</text>
<rect x="211" y="242" width="28" height="9" rx="2" fill="#18181B" fill-opacity="0.8"/>
<rect x="211.25" y="242.25" width="27.5" height="8.5" rx="1.75" stroke="#27272A" stroke-opacity="0.8" stroke-width="0.5"/>
<text x="225.0" y="246.5" font-family="Noto Sans SC, Microsoft YaHei, sans-serif" font-size="7" font-weight="bold" fill="white" text-anchor="middle" dominant-baseline="central">长廊</text>
<rect x="222" y="310" width="27" height="9" rx="2" fill="#18181B" fill-opacity="0.8"/>
<rect x="222.25" y="310.25" width="26.5" height="8.5" rx="1.75" stroke="#27272A" stroke-opacity="0.8" stroke-width="0.5"/>
<text x="235.5" y="314.5" font-family="Noto Sans SC, Microsoft YaHei, sans-serif" font-size="6" font-weight="bold" fill="white" text-anchor="middle" dominant-baseline="central">中上层</text>
<rect x="295" y="284" width="22" height="9" rx="2" fill="#18181B" fill-opacity="0.8"/>
<rect x="295.25" y="284.25" width="21.5" height="8.5" rx="1.75" stroke="#27272A" stroke-opacity="0.8" stroke-width="0.5"/>
<text x="306.0" y="288.5" font-family="Noto Sans SC, Microsoft YaHei, sans-serif" font-size="7" font-weight="bold" fill="white" text-anchor="middle" dominant-baseline="central">大厅</text>
<rect x="328" y="224" width="24" height="9" rx="2" fill="#18181B" fill-opacity="0.8"/>
<rect x="328.25" y="224.25" width="23.5" height="8.5" rx="1.75" stroke="#27272A" stroke-opacity="0.8" stroke-width="0.5"/>
<text x="340.0" y="228.5" font-family="Noto Sans SC, Microsoft YaHei, sans-serif" font-size="7" font-weight="bold" fill="white" text-anchor="middle" dominant-baseline="central">A大</text>
<rect x="246" y="210" width="36" height="9" rx="2" fill="#18181B" fill-opacity="0.8"/>
<rect x="246.25" y="210.25" width="35.5" height="8.5" rx="1.75" stroke="#27272A" stroke-opacity="0.8" stroke-width="0.5"/>
<text x="264.0" y="214.5" font-family="Noto Sans SC, Microsoft YaHei, sans-serif" font-size="5.5" font-weight="bold" fill="white" text-anchor="middle" dominant-baseline="central">中小角落</text>
<rect x="288" y="112" width="33" height="9" rx="2" fill="#18181B" fill-opacity="0.8"/>
<rect x="288.25" y="112.25" width="32.5" height="8.5" rx="1.75" stroke="#27272A" stroke-opacity="0.8" stroke-width="0.5"/>
<text x="304.5" y="116.5" font-family="Noto Sans SC, Microsoft YaHei, sans-serif" font-size="7" font-weight="bold" fill="white" text-anchor="middle" dominant-baseline="central">A窗</text>
<rect x="284" y="180" width="17" height="9" rx="2" fill="#18181B" fill-opacity="0.8"/>
<rect x="284.25" y="180.25" width="16.5" height="8.5" rx="1.75" stroke="#27272A" stroke-opacity="0.8" stroke-width="0.5"/>
<text x="292.5" y="184.5" font-family="Noto Sans SC, Microsoft YaHei, sans-serif" font-size="7" font-weight="bold" fill="white" text-anchor="middle" dominant-baseline="central">树</text>
<rect x="253" y="96" width="25" height="9" rx="2" fill="#18181B" fill-opacity="0.8"/>
<rect x="253.25" y="96.25" width="24.5" height="8.5" rx="1.75" stroke="#27272A" stroke-opacity="0.8" stroke-width="0.5"/>
<text x="265.5" y="100.5" font-family="Noto Sans SC, Microsoft YaHei, sans-serif" font-size="7" font-weight="bold" fill="white" text-anchor="middle" dominant-baseline="central">花园</text>
<rect x="347" y="112" width="32" height="9" rx="2" fill="#18181B" fill-opacity="0.8"/>
<rect x="347.25" y="112.25" width="31.5" height="8.5" rx="1.75" stroke="#27272A" stroke-opacity="0.8" stroke-width="0.5"/>
<text x="363.0" y="116.5" font-family="Noto Sans SC, Microsoft YaHei, sans-serif" font-size="6" font-weight="bold" fill="white" text-anchor="middle" dominant-baseline="central">A天堂</text>
<rect x="326" y="189" width="18" height="9" rx="2" fill="#18181B" fill-opacity="0.8"/>
<rect x="326.25" y="189.25" width="17.5" height="8.5" rx="1.75" stroke="#27272A" stroke-opacity="0.8" stroke-width="0.5"/>
<text x="335.0" y="193.5" font-family="Noto Sans SC, Microsoft YaHei, sans-serif" font-size="7" font-weight="bold" fill="white" text-anchor="middle" dominant-baseline="central">门</text>
<rect x="146" y="378" width="37" height="9" rx="2" fill="#18181B" fill-opacity="0.8"/>
<rect x="146.25" y="378.25" width="36.5" height="8.5" rx="1.75" stroke="#27272A" stroke-opacity="0.8" stroke-width="0.5"/>
<text x="164.5" y="382.5" font-family="Noto Sans SC, Microsoft YaHei, sans-serif" font-size="7" font-weight="bold" fill="white" text-anchor="middle" dominant-baseline="central">匪家</text>
<rect x="204" y="37" width="37" height="9" rx="2" fill="#18181B" fill-opacity="0.8"/>
<rect x="204.25" y="37.25" width="36.5" height="8.5" rx="1.75" stroke="#27272A" stroke-opacity="0.8" stroke-width="0.5"/>
<text x="222.5" y="41.5" font-family="Noto Sans SC, Microsoft YaHei, sans-serif" font-size="7" font-weight="bold" fill="white" text-anchor="middle" dominant-baseline="central">警家</text>
<rect x="205" y="138" width="20" height="9" rx="2" fill="#18181B" fill-opacity="0.8"/>
<rect x="205.25" y="138.25" width="19.5" height="8.5" rx="1.75" stroke="#27272A" stroke-opacity="0.8" stroke-width="0.5"/>
<text x="215.0" y="142.5" font-family="Noto Sans SC, Microsoft YaHei, sans-serif" font-size="6" font-weight="bold" fill="white" text-anchor="middle" dominant-baseline="central">披萨店</text>
<rect x="89" y="131" width="38" height="9" rx="2" fill="#18181B" fill-opacity="0.8"/>
<rect x="89.25" y="131.25" width="37.5" height="8.5" rx="1.75" stroke="#27272A" stroke-opacity="0.8" stroke-width="0.5"/>
<text x="108.0" y="135.5" font-family="Noto Sans SC, Microsoft YaHei, sans-serif" font-size="7" font-weight="bold" fill="white" text-anchor="middle" dominant-baseline="central">船屋</text>
</svg>