<svg width="410" height="474" viewBox="0 0 410 474" fill="none" xmlns="http://www.w3.org/2000/svg">
<rect x="407" y="352" width="38" height="9" rx="2" transform="rotate(180 407 352)" fill="#18181B" fill-opacity="0.8"/>
<rect x="406.75" y="351.75" width="37.5" height="8.5" rx="1.75" transform="rotate(180 406.75 351.75)" stroke="#27272A" stroke-opacity="0.8" stroke-width="0.5"/>
<text x="388.0" y="347.5" font-family="Noto Sans SC, Microsoft YaHei, sans-serif" font-size="5" font-weight="bold" fill="white" text-anchor="middle" dominant-baseline="central">Boat House</text>
<rect x="255" y="338" width="25" height="9" rx="2" transform="rotate(180 255 338)" fill="#18181B" fill-opacity="0.8"/>
<rect x="254.75" y="337.75" width="24.5" height="8.5" rx="1.75" transform="rotate(180 254.75 337.75)" stroke="#27272A" stroke-opacity="0.8" stroke-width="0.5"/>
<text x="242.5" y="333.5" font-family="Noto Sans SC, Microsoft YaHei, sans-serif" font-size="5" font-weight="bold" fill="white" text-anchor="middle" dominant-baseline="central">Market</text>
<rect x="327" y="220" width="22" height="9" rx="2" transform="rotate(180 327 220)" fill="#18181B" fill-opacity="0.8"/>
<rect x="326.75" y="219.75" width="21.5" height="8.5" rx="1.75" transform="rotate(180 326.75 219.75)" stroke="#27272A" stroke-opacity="0.8" stroke-width="0.5"/>
<text x="316.0" y="215.5" font-family="Noto Sans SC, Microsoft YaHei, sans-serif" font-size="5" font-weight="bold" fill="white" text-anchor="middle" dominant-baseline="central">Lobby</text>
<rect x="271" y="235" width="29" height="9" rx="2" transform="rotate(180 271 235)" fill="#18181B" fill-opacity="0.8"/>
<rect x="270.75" y="234.75" width="28.5" height="8.5" rx="1.75" transform="rotate(180 270.75 234.75)" stroke="#27272A" stroke-opacity="0.8" stroke-width="0.5"/>
<text x="256.5" y="230.5" font-family="Noto Sans SC, Microsoft YaHei, sans-serif" font-size="5" font-weight="bold" fill="white" text-anchor="middle" dominant-baseline="central">Mid Link</text>
<rect x="232" y="285" width="38" height="9" rx="2" transform="rotate(180 232 285)" fill="#18181B" fill-opacity="0.8"/>
<rect x="231.75" y="284.75" width="37.5" height="8.5" rx="1.75" transform="rotate(180 231.75 284.75)" stroke="#27272A" stroke-opacity="0.8" stroke-width="0.5"/>
<text x="213.0" y="280.5" font-family="Noto Sans SC, Microsoft YaHei, sans-serif" font-size="5" font-weight="bold" fill="white" text-anchor="middle" dominant-baseline="central">Mid Bottom</text>
<rect x="317" y="293" width="24" height="9" rx="2" transform="rotate(180 317 293)" fill="#18181B" fill-opacity="0.8"/>
<rect x="316.75" y="292.75" width="23.5" height="8.5" rx="1.75" transform="rotate(180 316.75 292.75)" stroke="#27272A" stroke-opacity="0.8" stroke-width="0.5"/>
<text x="305.0" y="288.5" font-family="Noto Sans SC, Microsoft YaHei, sans-serif" font-size="5" font-weight="bold" fill="white" text-anchor="middle" dominant-baseline="central">B Main</text>
<rect x="199" y="232" width="28" height="9" rx="2" transform="rotate(180 199 232)" fill="#18181B" fill-opacity="0.8"/>
<rect x="198.75" y="231.75" width="27.5" height="8.5" rx="1.75" transform="rotate(180 198.75 231.75)" stroke="#27272A" stroke-opacity="0.8" stroke-width="0.5"/>
<text x="185.0" y="227.5" font-family="Noto Sans SC, Microsoft YaHei, sans-serif" font-size="5" font-weight="bold" fill="white" text-anchor="middle" dominant-baseline="central">Catwalk</text>
<rect x="188" y="164" width="27" height="9" rx="2" transform="rotate(180 188 164)" fill="#18181B" fill-opacity="0.8"/>
<rect x="187.75" y="163.75" width="26.5" height="8.5" rx="1.75" transform="rotate(180 187.75 163.75)" stroke="#27272A" stroke-opacity="0.8" stroke-width="0.5"/>
<text x="174.5" y="159.5" font-family="Noto Sans SC, Microsoft YaHei, sans-serif" font-size="5" font-weight="bold" fill="white" text-anchor="middle" dominant-baseline="central">Mid Top</text>
<rect x="115" y="190" width="22" height="9" rx="2" transform="rotate(180 115 190)" fill="#18181B" fill-opacity="0.8"/>
<rect x="114.75" y="189.75" width="21.5" height="8.5" rx="1.75" transform="rotate(180 114.75 189.75)" stroke="#27272A" stroke-opacity="0.8" stroke-width="0.5"/>
<text x="104.0" y="185.5" font-family="Noto Sans SC, Microsoft YaHei, sans-serif" font-size="5" font-weight="bold" fill="white" text-anchor="middle" dominant-baseline="central">Lobby</text>
<rect x="82" y="250" width="24" height="9" rx="2" transform="rotate(180 82 250)" fill="#18181B" fill-opacity="0.8"/>
<rect x="81.75" y="249.75" width="23.5" height="8.5" rx="1.75" transform="rotate(180 81.75 249.75)" stroke="#27272A" stroke-opacity="0.8" stroke-width="0.5"/>
<text x="70.0" y="245.5" font-family="Noto Sans SC, Microsoft YaHei, sans-serif" font-size="5" font-weight="bold" fill="white" text-anchor="middle" dominant-baseline="central">A Main</text>
<rect x="164" y="264" width="36" height="9" rx="2" transform="rotate(180 164 264)" fill="#18181B" fill-opacity="0.8"/>
<rect x="163.75" y="263.75" width="35.5" height="8.5" rx="1.75" transform="rotate(180 163.75 263.75)" stroke="#27272A" stroke-opacity="0.8" stroke-width="0.5"/>
<text x="146.0" y="259.5" font-family="Noto Sans SC, Microsoft YaHei, sans-serif" font-size="5" font-weight="bold" fill="white" text-anchor="middle" dominant-baseline="central">Mid Cubby</text>
<rect x="122" y="362" width="33" height="9" rx="2" transform="rotate(180 122 362)" fill="#18181B" fill-opacity="0.8"/>
<rect x="121.75" y="361.75" width="32.5" height="8.5" rx="1.75" transform="rotate(180 121.75 361.75)" stroke="#27272A" stroke-opacity="0.8" stroke-width="0.5"/>
<text x="105.5" y="357.5" font-family="Noto Sans SC, Microsoft YaHei, sans-serif" font-size="5" font-weight="bold" fill="white" text-anchor="middle" dominant-baseline="central">A Window</text>
<rect x="126" y="294" width="17" height="9" rx="2" transform="rotate(180 126 294)" fill="#18181B" fill-opacity="0.8"/>
<rect x="125.75" y="293.75" width="16.5" height="8.5" rx="1.75" transform="rotate(180 125.75 293.75)" stroke="#27272A" stroke-opacity="0.8" stroke-width="0.5"/>
<text x="117.5" y="289.5" font-family="Noto Sans SC, Microsoft YaHei, sans-serif" font-size="5.5" font-weight="bold" fill="white" text-anchor="middle" dominant-baseline="central">Tree</text>
<rect x="157" y="378" width="25" height="9" rx="2" transform="rotate(180 157 378)" fill="#18181B" fill-opacity="0.8"/>
<rect x="156.75" y="377.75" width="24.5" height="8.5" rx="1.75" transform="rotate(180 156.75 377.75)" stroke="#27272A" stroke-opacity="0.8" stroke-width="0.5"/>
<text x="144.5" y="373.5" font-family="Noto Sans SC, Microsoft YaHei, sans-serif" font-size="5" font-weight="bold" fill="white" text-anchor="middle" dominant-baseline="central">Garden</text>
<rect x="63" y="362" width="32" height="9" rx="2" transform="rotate(180 63 362)" fill="#18181B" fill-opacity="0.8"/>
<rect x="62.75" y="361.75" width="31.5" height="8.5" rx="1.75" transform="rotate(180 62.75 361.75)" stroke="#27272A" stroke-opacity="0.8" stroke-width="0.5"/>
<text x="47.0" y="357.5" font-family="Noto Sans SC, Microsoft YaHei, sans-serif" font-size="5" font-weight="bold" fill="white" text-anchor="middle" dominant-baseline="central">A Heaven</text>
<rect x="84" y="285" width="18" height="9" rx="2" transform="rotate(180 84 285)" fill="#18181B" fill-opacity="0.8"/>
<rect x="83.75" y="284.75" width="17.5" height="8.5" rx="1.75" transform="rotate(180 83.75 284.75)" stroke="#27272A" stroke-opacity="0.8" stroke-width="0.5"/>
<text x="75.0" y="280.5" font-family="Noto Sans SC, Microsoft YaHei, sans-serif" font-size="5.5" font-weight="bold" fill="white" text-anchor="middle" dominant-baseline="central">Door</text>
<rect x="264" y="96" width="37" height="9" rx="2" transform="rotate(180 264 96)" fill="#18181B" fill-opacity="0.8"/>
<rect x="263.75" y="95.75" width="36.5" height="8.5" rx="1.75" transform="rotate(180 263.75 95.75)" stroke="#27272A" stroke-opacity="0.8" stroke-width="0.5"/>
<text x="245.5" y="91.5" font-family="Noto Sans SC, Microsoft YaHei, sans-serif" font-size="5" font-weight="bold" fill="white" text-anchor="middle" dominant-baseline="central">ATK Spawn</text>
<rect x="206" y="437" width="37" height="9" rx="2" transform="rotate(180 206 437)" fill="#18181B" fill-opacity="0.8"/>
<rect x="205.75" y="436.75" width="36.5" height="8.5" rx="1.75" transform="rotate(180 205.75 436.75)" stroke="#27272A" stroke-opacity="0.8" stroke-width="0.5"/>
<text x="187.5" y="432.5" font-family="Noto Sans SC, Microsoft YaHei, sans-serif" font-size="5" font-weight="bold" fill="white" text-anchor="middle" dominant-baseline="central">DEF Spawn</text>
<rect x="205" y="336" width="20" height="9" rx="2" transform="rotate(180 205 336)" fill="#18181B" fill-opacity="0.8"/>
<rect x="204.75" y="335.75" width="19.5" height="8.5" rx="1.75" transform="rotate(180 204.75 335.75)" stroke="#27272A" stroke-opacity="0.8" stroke-width="0.5"/>
<text x="195.0" y="331.5" font-family="Noto Sans SC, Microsoft YaHei, sans-serif" font-size="5" font-weight="bold" fill="white" text-anchor="middle" dominant-baseline="central">Pizza</text>
<rect x="321" y="343" width="38" height="9" rx="2" transform="rotate(180 321 343)" fill="#18181B" fill-opacity="0.8"/>
<rect x="320.75" y="342.75" width="37.5" height="8.5" rx="1.75" transform="rotate(180 320.75 342.75)" stroke="#27272A" stroke-opacity="0.8" stroke-width="0.5"/>
<text x="302.0" y="338.5" font-family="Noto Sans SC, Microsoft YaHei, sans-serif" font-size="5" font-weight="bold" fill="white" text-anchor="middle" dominant-baseline="central">Boat House</text>
</svg>