<svg width="415" height="474" viewBox="0 0 415 474" fill="none" xmlns="http://www.w3.org/2000/svg">
<rect x="162" y="213" width="21" height="9" rx="2" fill="#18181B" fill-opacity="0.8"/>
<rect x="162.25" y="213.25" width="20.5" height="8.5" rx="1.75" stroke="#27272A" stroke-opacity="0.8" stroke-width="0.5"/>
<text x="172.5" y="217.5" font-family="Noto Sans SC, Microsoft YaHei, sans-serif" font-size="6" font-weight="bold" fill="white" text-anchor="middle" dominant-baseline="central">B出口</text>
<rect x="135" y="281" width="22" height="9" rx="2" fill="#18181B" fill-opacity="0.8"/>
<rect x="135.25" y="281.25" width="21.5" height="8.5" rx="1.75" stroke="#27272A" stroke-opacity="0.8" stroke-width="0.5"/>
<text x="146.0" y="285.5" font-family="Noto Sans SC, Microsoft YaHei, sans-serif" font-size="7" font-weight="bold" fill="white" text-anchor="middle" dominant-baseline="central">B连</text>
<rect x="176" y="283" width="22" height="9" rx="2" fill="#18181B" fill-opacity="0.8"/>
<rect x="176.25" y="283.25" width="21.5" height="8.5" rx="1.75" stroke="#27272A" stroke-opacity="0.8" stroke-width="0.5"/>
<text x="187.0" y="287.5" font-family="Noto Sans SC, Microsoft YaHei, sans-serif" font-size="7" font-weight="bold" fill="white" text-anchor="middle" dominant-baseline="central">A连</text>
<rect x="127" y="252" width="26" height="9" rx="2" fill="#18181B" fill-opacity="0.8"/>
<rect x="127.25" y="252.25" width="25.5" height="8.5" rx="1.75" stroke="#27272A" stroke-opacity="0.8" stroke-width="0.5"/>
<text x="140.0" y="256.5" font-family="Noto Sans SC, Microsoft YaHei, sans-serif" font-size="7" font-weight="bold" fill="white" text-anchor="middle" dominant-baseline="central">B小</text>
<rect x="57" y="306" width="35" height="9" rx="2" fill="#18181B" fill-opacity="0.8"/>
<rect x="57.25" y="306.25" width="34.5" height="8.5" rx="1.75" stroke="#27272A" stroke-opacity="0.8" stroke-width="0.5"/>
<text x="74.5" y="310.5" font-family="Noto Sans SC, Microsoft YaHei, sans-serif" font-size="6" font-weight="bold" fill="white" text-anchor="middle" dominant-baseline="central">B喷泉</text>
<rect x="38" y="248" width="24" height="9" rx="2" fill="#18181B" fill-opacity="0.8"/>
<rect x="38.25" y="248.25" width="23.5" height="8.5" rx="1.75" stroke="#27272A" stroke-opacity="0.8" stroke-width="0.5"/>
<text x="50.0" y="252.5" font-family="Noto Sans SC, Microsoft YaHei, sans-serif" font-size="7" font-weight="bold" fill="white" text-anchor="middle" dominant-baseline="central">B大</text>
<rect x="5" y="208" width="40" height="9" rx="2" fill="#18181B" fill-opacity="0.8"/>
<rect x="5.25" y="208.25" width="39.5" height="8.5" rx="1.75" stroke="#27272A" stroke-opacity="0.8" stroke-width="0.5"/>
<text x="25.0" y="212.5" font-family="Noto Sans SC, Microsoft YaHei, sans-serif" font-size="7" font-weight="bold" fill="white" text-anchor="middle" dominant-baseline="central">B传</text>
<rect x="60" y="199" width="25" height="9" rx="2" fill="#18181B" fill-opacity="0.8"/>
<rect x="60.25" y="199.25" width="24.5" height="8.5" rx="1.75" stroke="#27272A" stroke-opacity="0.8" stroke-width="0.5"/>
<text x="72.5" y="203.5" font-family="Noto Sans SC, Microsoft YaHei, sans-serif" font-size="7" font-weight="bold" fill="white" text-anchor="middle" dominant-baseline="central">花园</text>
<rect x="25" y="159" width="22" height="9" rx="2" fill="#18181B" fill-opacity="0.8"/>
<rect x="25.25" y="159.25" width="21.5" height="8.5" rx="1.75" stroke="#27272A" stroke-opacity="0.8" stroke-width="0.5"/>
<text x="36.0" y="163.5" font-family="Noto Sans SC, Microsoft YaHei, sans-serif" font-size="7" font-weight="bold" fill="white" text-anchor="middle" dominant-baseline="central">中肘</text>
<rect x="216" y="196" width="40" height="9" rx="2" fill="#18181B" fill-opacity="0.8"/>
<rect x="216.25" y="196.25" width="39.5" height="8.5" rx="1.75" stroke="#27272A" stroke-opacity="0.8" stroke-width="0.5"/>
<text x="236.0" y="200.5" font-family="Noto Sans SC, Microsoft YaHei, sans-serif" font-size="7" font-weight="bold" fill="white" text-anchor="middle" dominant-baseline="central">A传</text>
<rect x="224" y="159" width="24" height="9" rx="2" fill="#18181B" fill-opacity="0.8"/>
<rect x="224.25" y="159.25" width="23.5" height="8.5" rx="1.75" stroke="#27272A" stroke-opacity="0.8" stroke-width="0.5"/>
<text x="236.0" y="163.5" font-family="Noto Sans SC, Microsoft YaHei, sans-serif" font-size="7" font-weight="bold" fill="white" text-anchor="middle" dominant-baseline="central">灯区</text>
<rect x="217" y="224" width="29" height="9" rx="2" fill="#18181B" fill-opacity="0.8"/>
<rect x="217.25" y="224.25" width="28.5" height="8.5" rx="1.75" stroke="#27272A" stroke-opacity="0.8" stroke-width="0.5"/>
<text x="231.5" y="228.5" font-family="Noto Sans SC, Microsoft YaHei, sans-serif" font-size="5.5" font-weight="bold" fill="white" text-anchor="middle" dominant-baseline="central">A小角落</text>
<rect x="250" y="254" width="26" height="9" rx="2" fill="#18181B" fill-opacity="0.8"/>
<rect x="250.25" y="254.25" width="25.5" height="8.5" rx="1.75" stroke="#27272A" stroke-opacity="0.8" stroke-width="0.5"/>
<text x="263.0" y="258.5" font-family="Noto Sans SC, Microsoft YaHei, sans-serif" font-size="7" font-weight="bold" fill="white" text-anchor="middle" dominant-baseline="central">A小</text>
<rect x="307" y="291" width="28" height="9" rx="2" fill="#18181B" fill-opacity="0.8"/>
<rect x="307.25" y="291.25" width="27.5" height="8.5" rx="1.75" stroke="#27272A" stroke-opacity="0.8" stroke-width="0.5"/>
<text x="321.0" y="295.5" font-family="Noto Sans SC, Microsoft YaHei, sans-serif" font-size="7" font-weight="bold" fill="white" text-anchor="middle" dominant-baseline="central">A厅</text>
<rect x="367" y="245" width="21" height="9" rx="2" fill="#18181B" fill-opacity="0.8"/>
<rect x="367.25" y="245.25" width="20.5" height="8.5" rx="1.75" stroke="#27272A" stroke-opacity="0.8" stroke-width="0.5"/>
<text x="377.5" y="249.5" font-family="Noto Sans SC, Microsoft YaHei, sans-serif" font-size="6" font-weight="bold" fill="white" text-anchor="middle" dominant-baseline="central">A出口</text>
<rect x="330" y="202" width="24" height="9" rx="2" fill="#18181B" fill-opacity="0.8"/>
<rect x="330.25" y="202.25" width="23.5" height="8.5" rx="1.75" stroke="#27272A" stroke-opacity="0.8" stroke-width="0.5"/>
<text x="342.0" y="206.5" font-family="Noto Sans SC, Microsoft YaHei, sans-serif" font-size="7" font-weight="bold" fill="white" text-anchor="middle" dominant-baseline="central">浴室</text>
<rect x="294" y="101" width="28" height="9" rx="2" fill="#18181B" fill-opacity="0.8"/>
<rect x="294.25" y="101.25" width="27.5" height="8.5" rx="1.75" stroke="#27272A" stroke-opacity="0.8" stroke-width="0.5"/>
<text x="308.0" y="105.5" font-family="Noto Sans SC, Microsoft YaHei, sans-serif" font-size="6" font-weight="bold" fill="white" text-anchor="middle" dominant-baseline="central">A天堂</text>
<rect x="180" y="44" width="37" height="9" rx="2" fill="#18181B" fill-opacity="0.8"/>
<rect x="180.25" y="44.25" width="36.5" height="8.5" rx="1.75" stroke="#27272A" stroke-opacity="0.8" stroke-width="0.5"/>
<text x="198.5" y="48.5" font-family="Noto Sans SC, Microsoft YaHei, sans-serif" font-size="7" font-weight="bold" fill="white" text-anchor="middle" dominant-baseline="central">警家</text>
<rect x="211" y="346" width="46" height="9" rx="2" fill="#18181B" fill-opacity="0.8"/>
<rect x="211.25" y="346.25" width="45.5" height="8.5" rx="1.75" stroke="#27272A" stroke-opacity="0.8" stroke-width="0.5"/>
<text x="234.0" y="350.5" font-family="Noto Sans SC, Microsoft YaHei, sans-serif" font-size="7" font-weight="bold" fill="white" text-anchor="middle" dominant-baseline="central">匪洞</text>
<rect x="215" y="423" width="37" height="9" rx="2" fill="#18181B" fill-opacity="0.8"/>
<rect x="215.25" y="423.25" width="36.5" height="8.5" rx="1.75" stroke="#27272A" stroke-opacity="0.8" stroke-width="0.5"/>
<text x="233.5" y="427.5" font-family="Noto Sans SC, Microsoft YaHei, sans-serif" font-size="7" font-weight="bold" fill="white" text-anchor="middle" dominant-baseline="central">水烟</text>
<rect x="81" y="103" width="21" height="9" rx="2" fill="#18181B" fill-opacity="0.8"/>
<rect x="81.25" y="103.25" width="20.5" height="8.5" rx="1.75" stroke="#27272A" stroke-opacity="0.8" stroke-width="0.5"/>
<text x="91.5" y="107.5" font-family="Noto Sans SC, Microsoft YaHei, sans-serif" font-size="7" font-weight="bold" fill="white" text-anchor="middle" dominant-baseline="central">B厅</text>
<rect x="92" y="186" width="28" height="9" rx="2" fill="#18181B" fill-opacity="0.8"/>
<rect x="92.25" y="186.25" width="27.5" height="8.5" rx="1.75" stroke="#27272A" stroke-opacity="0.8" stroke-width="0.5"/>
<text x="106.0" y="190.5" font-family="Noto Sans SC, Microsoft YaHei, sans-serif" font-size="7" font-weight="bold" fill="white" text-anchor="middle" dominant-baseline="central">窗口</text>
</svg>