<svg width="415" height="474" viewBox="0 0 415 474" fill="none" xmlns="http://www.w3.org/2000/svg">
<rect x="253" y="261" width="21" height="9" rx="2" transform="rotate(180 253 261)" fill="#18181B" fill-opacity="0.8"/>
<rect x="252.75" y="260.75" width="20.5" height="8.5" rx="1.75" transform="rotate(180 252.75 260.75)" stroke="#27272A" stroke-opacity="0.8" stroke-width="0.5"/>
<text x="242.5" y="256.5" font-family="Noto Sans SC, Microsoft YaHei, sans-serif" font-size="6" font-weight="bold" fill="white" text-anchor="middle" dominant-baseline="central">B出口</text>
<rect x="280" y="193" width="22" height="9" rx="2" transform="rotate(180 280 193)" fill="#18181B" fill-opacity="0.8"/>
<rect x="279.75" y="192.75" width="21.5" height="8.5" rx="1.75" transform="rotate(180 279.75 192.75)" stroke="#27272A" stroke-opacity="0.8" stroke-width="0.5"/>
<text x="269.0" y="188.5" font-family="Noto Sans SC, Microsoft YaHei, sans-serif" font-size="7" font-weight="bold" fill="white" text-anchor="middle" dominant-baseline="central">B连</text>
<rect x="239" y="191" width="22" height="9" rx="2" transform="rotate(180 239 191)" fill="#18181B" fill-opacity="0.8"/>
<rect x="238.75" y="190.75" width="21.5" height="8.5" rx="1.75" transform="rotate(180 238.75 190.75)" stroke="#27272A" stroke-opacity="0.8" stroke-width="0.5"/>
<text x="228.0" y="186.5" font-family="Noto Sans SC, Microsoft YaHei, sans-serif" font-size="7" font-weight="bold" fill="white" text-anchor="middle" dominant-baseline="central">A连</text>
<rect x="288" y="222" width="26" height="9" rx="2" transform="rotate(180 288 222)" fill="#18181B" fill-opacity="0.8"/>
<rect x="287.75" y="221.75" width="25.5" height="8.5" rx="1.75" transform="rotate(180 287.75 221.75)" stroke="#27272A" stroke-opacity="0.8" stroke-width="0.5"/>
<text x="275.0" y="217.5" font-family="Noto Sans SC, Microsoft YaHei, sans-serif" font-size="7" font-weight="bold" fill="white" text-anchor="middle" dominant-baseline="central">B小</text>
<rect x="358" y="168" width="35" height="9" rx="2" transform="rotate(180 358 168)" fill="#18181B" fill-opacity="0.8"/>
<rect x="357.75" y="167.75" width="34.5" height="8.5" rx="1.75" transform="rotate(180 357.75 167.75)" stroke="#27272A" stroke-opacity="0.8" stroke-width="0.5"/>
<text x="340.5" y="163.5" font-family="Noto Sans SC, Microsoft YaHei, sans-serif" font-size="6" font-weight="bold" fill="white" text-anchor="middle" dominant-baseline="central">B喷泉</text>
<rect x="377" y="226" width="24" height="9" rx="2" transform="rotate(180 377 226)" fill="#18181B" fill-opacity="0.8"/>
<rect x="376.75" y="225.75" width="23.5" height="8.5" rx="1.75" transform="rotate(180 376.75 225.75)" stroke="#27272A" stroke-opacity="0.8" stroke-width="0.5"/>
<text x="365.0" y="221.5" font-family="Noto Sans SC, Microsoft YaHei, sans-serif" font-size="7" font-weight="bold" fill="white" text-anchor="middle" dominant-baseline="central">B大</text>
<rect x="410" y="266" width="40" height="9" rx="2" transform="rotate(180 410 266)" fill="#18181B" fill-opacity="0.8"/>
<rect x="409.75" y="265.75" width="39.5" height="8.5" rx="1.75" transform="rotate(180 409.75 265.75)" stroke="#27272A" stroke-opacity="0.8" stroke-width="0.5"/>
<text x="390.0" y="261.5" font-family="Noto Sans SC, Microsoft YaHei, sans-serif" font-size="7" font-weight="bold" fill="white" text-anchor="middle" dominant-baseline="central">B传</text>
<rect x="355" y="275" width="25" height="9" rx="2" transform="rotate(180 355 275)" fill="#18181B" fill-opacity="0.8"/>
<rect x="354.75" y="274.75" width="24.5" height="8.5" rx="1.75" transform="rotate(180 354.75 274.75)" stroke="#27272A" stroke-opacity="0.8" stroke-width="0.5"/>
<text x="342.5" y="270.5" font-family="Noto Sans SC, Microsoft YaHei, sans-serif" font-size="7" font-weight="bold" fill="white" text-anchor="middle" dominant-baseline="central">花园</text>
<rect x="390" y="315" width="22" height="9" rx="2" transform="rotate(180 390 315)" fill="#18181B" fill-opacity="0.8"/>
<rect x="389.75" y="314.75" width="21.5" height="8.5" rx="1.75" transform="rotate(180 389.75 314.75)" stroke="#27272A" stroke-opacity="0.8" stroke-width="0.5"/>
<text x="379.0" y="310.5" font-family="Noto Sans SC, Microsoft YaHei, sans-serif" font-size="7" font-weight="bold" fill="white" text-anchor="middle" dominant-baseline="central">中肘</text>
<rect x="199" y="278" width="40" height="9" rx="2" transform="rotate(180 199 278)" fill="#18181B" fill-opacity="0.8"/>
<rect x="198.75" y="277.75" width="39.5" height="8.5" rx="1.75" transform="rotate(180 198.75 277.75)" stroke="#27272A" stroke-opacity="0.8" stroke-width="0.5"/>
<text x="179.0" y="273.5" font-family="Noto Sans SC, Microsoft YaHei, sans-serif" font-size="7" font-weight="bold" fill="white" text-anchor="middle" dominant-baseline="central">A传</text>
<rect x="191" y="315" width="24" height="9" rx="2" transform="rotate(180 191 315)" fill="#18181B" fill-opacity="0.8"/>
<rect x="190.75" y="314.75" width="23.5" height="8.5" rx="1.75" transform="rotate(180 190.75 314.75)" stroke="#27272A" stroke-opacity="0.8" stroke-width="0.5"/>
<text x="179.0" y="310.5" font-family="Noto Sans SC, Microsoft YaHei, sans-serif" font-size="7" font-weight="bold" fill="white" text-anchor="middle" dominant-baseline="central">灯区</text>
<rect x="198" y="250" width="29" height="9" rx="2" transform="rotate(180 198 250)" fill="#18181B" fill-opacity="0.8"/>
<rect x="197.75" y="249.75" width="28.5" height="8.5" rx="1.75" transform="rotate(180 197.75 249.75)" stroke="#27272A" stroke-opacity="0.8" stroke-width="0.5"/>
<text x="183.5" y="245.5" font-family="Noto Sans SC, Microsoft YaHei, sans-serif" font-size="5.5" font-weight="bold" fill="white" text-anchor="middle" dominant-baseline="central">A小角落</text>
<rect x="165" y="220" width="26" height="9" rx="2" transform="rotate(180 165 220)" fill="#18181B" fill-opacity="0.8"/>
<rect x="164.75" y="219.75" width="25.5" height="8.5" rx="1.75" transform="rotate(180 164.75 219.75)" stroke="#27272A" stroke-opacity="0.8" stroke-width="0.5"/>
<text x="152.0" y="215.5" font-family="Noto Sans SC, Microsoft YaHei, sans-serif" font-size="7" font-weight="bold" fill="white" text-anchor="middle" dominant-baseline="central">A小</text>
<rect x="108" y="183" width="28" height="9" rx="2" transform="rotate(180 108 183)" fill="#18181B" fill-opacity="0.8"/>
<rect x="107.75" y="182.75" width="27.5" height="8.5" rx="1.75" transform="rotate(180 107.75 182.75)" stroke="#27272A" stroke-opacity="0.8" stroke-width="0.5"/>
<text x="94.0" y="178.5" font-family="Noto Sans SC, Microsoft YaHei, sans-serif" font-size="7" font-weight="bold" fill="white" text-anchor="middle" dominant-baseline="central">A厅</text>
<rect x="48" y="229" width="21" height="9" rx="2" transform="rotate(180 48 229)" fill="#18181B" fill-opacity="0.8"/>
<rect x="47.75" y="228.75" width="20.5" height="8.5" rx="1.75" transform="rotate(180 47.75 228.75)" stroke="#27272A" stroke-opacity="0.8" stroke-width="0.5"/>
<text x="37.5" y="224.5" font-family="Noto Sans SC, Microsoft YaHei, sans-serif" font-size="6" font-weight="bold" fill="white" text-anchor="middle" dominant-baseline="central">A出口</text>
<rect x="85" y="272" width="24" height="9" rx="2" transform="rotate(180 85 272)" fill="#18181B" fill-opacity="0.8"/>
<rect x="84.75" y="271.75" width="23.5" height="8.5" rx="1.75" transform="rotate(180 84.75 271.75)" stroke="#27272A" stroke-opacity="0.8" stroke-width="0.5"/>
<text x="73.0" y="267.5" font-family="Noto Sans SC, Microsoft YaHei, sans-serif" font-size="7" font-weight="bold" fill="white" text-anchor="middle" dominant-baseline="central">浴室</text>
<rect x="121" y="373" width="28" height="9" rx="2" transform="rotate(180 121 373)" fill="#18181B" fill-opacity="0.8"/>
<rect x="120.75" y="372.75" width="27.5" height="8.5" rx="1.75" transform="rotate(180 120.75 372.75)" stroke="#27272A" stroke-opacity="0.8" stroke-width="0.5"/>
<text x="107.0" y="368.5" font-family="Noto Sans SC, Microsoft YaHei, sans-serif" font-size="6" font-weight="bold" fill="white" text-anchor="middle" dominant-baseline="central">A天堂</text>
<rect x="235" y="430" width="37" height="9" rx="2" transform="rotate(180 235 430)" fill="#18181B" fill-opacity="0.8"/>
<rect x="234.75" y="429.75" width="36.5" height="8.5" rx="1.75" transform="rotate(180 234.75 429.75)" stroke="#27272A" stroke-opacity="0.8" stroke-width="0.5"/>
<text x="216.5" y="425.5" font-family="Noto Sans SC, Microsoft YaHei, sans-serif" font-size="7" font-weight="bold" fill="white" text-anchor="middle" dominant-baseline="central">警家</text>
<rect x="204" y="128" width="46" height="9" rx="2" transform="rotate(180 204 128)" fill="#18181B" fill-opacity="0.8"/>
<rect x="203.75" y="127.75" width="45.5" height="8.5" rx="1.75" transform="rotate(180 203.75 127.75)" stroke="#27272A" stroke-opacity="0.8" stroke-width="0.5"/>
<text x="181.0" y="123.5" font-family="Noto Sans SC, Microsoft YaHei, sans-serif" font-size="7" font-weight="bold" fill="white" text-anchor="middle" dominant-baseline="central">匪洞</text>
<rect x="200" y="51" width="37" height="9" rx="2" transform="rotate(180 200 51)" fill="#18181B" fill-opacity="0.8"/>
<rect x="199.75" y="50.75" width="36.5" height="8.5" rx="1.75" transform="rotate(180 199.75 50.75)" stroke="#27272A" stroke-opacity="0.8" stroke-width="0.5"/>
<text x="181.5" y="46.5" font-family="Noto Sans SC, Microsoft YaHei, sans-serif" font-size="7" font-weight="bold" fill="white" text-anchor="middle" dominant-baseline="central">水烟</text>
<rect x="334" y="371" width="21" height="9" rx="2" transform="rotate(180 334 371)" fill="#18181B" fill-opacity="0.8"/>
<rect x="333.75" y="370.75" width="20.5" height="8.5" rx="1.75" transform="rotate(180 333.75 370.75)" stroke="#27272A" stroke-opacity="0.8" stroke-width="0.5"/>
<text x="323.5" y="366.5" font-family="Noto Sans SC, Microsoft YaHei, sans-serif" font-size="7" font-weight="bold" fill="white" text-anchor="middle" dominant-baseline="central">B厅</text>
<rect x="323" y="288" width="28" height="9" rx="2" transform="rotate(180 323 288)" fill="#18181B" fill-opacity="0.8"/>
<rect x="322.75" y="287.75" width="27.5" height="8.5" rx="1.75" transform="rotate(180 322.75 287.75)" stroke="#27272A" stroke-opacity="0.8" stroke-width="0.5"/>
<text x="309.0" y="283.5" font-family="Noto Sans SC, Microsoft YaHei, sans-serif" font-size="7" font-weight="bold" fill="white" text-anchor="middle" dominant-baseline="central">窗口</text>
</svg>