<svg width="447" height="474" viewBox="0 0 447 474" fill="none" xmlns="http://www.w3.org/2000/svg">
<rect x="326" y="332" width="29" height="9" rx="2" transform="rotate(180 326 332)" fill="#18181B" fill-opacity="0.8"/>
<rect x="325.75" y="331.75" width="28.5" height="8.5" rx="1.75" transform="rotate(180 325.75 331.75)" stroke="#27272A" stroke-opacity="0.8" stroke-width="0.5"/>
<text x="311.5" y="327.5" font-family="Noto Sans SC, Microsoft YaHei, sans-serif" font-size="6" font-weight="bold" fill="white" text-anchor="middle" dominant-baseline="central">B隧道</text>
<rect x="355" y="362" width="22" height="9" rx="2" transform="rotate(180 355 362)" fill="#18181B" fill-opacity="0.8"/>
<rect x="354.75" y="361.75" width="21.5" height="8.5" rx="1.75" transform="rotate(180 354.75 361.75)" stroke="#27272A" stroke-opacity="0.8" stroke-width="0.5"/>
<text x="344.0" y="357.5" font-family="Noto Sans SC, Microsoft YaHei, sans-serif" font-size="7" font-weight="bold" fill="white" text-anchor="middle" dominant-baseline="central">B墙</text>
<rect x="444" y="328" width="24" height="9" rx="2" transform="rotate(180 444 328)" fill="#18181B" fill-opacity="0.8"/>
<rect x="443.75" y="327.75" width="23.5" height="8.5" rx="1.75" transform="rotate(180 443.75 327.75)" stroke="#27272A" stroke-opacity="0.8" stroke-width="0.5"/>
<text x="432.0" y="323.5" font-family="Noto Sans SC, Microsoft YaHei, sans-serif" font-size="7" font-weight="bold" fill="white" text-anchor="middle" dominant-baseline="central">B后</text>
<rect x="407" y="239" width="24" height="9" rx="2" transform="rotate(180 407 239)" fill="#18181B" fill-opacity="0.8"/>
<rect x="406.75" y="238.75" width="23.5" height="8.5" rx="1.75" transform="rotate(180 406.75 238.75)" stroke="#27272A" stroke-opacity="0.8" stroke-width="0.5"/>
<text x="395.0" y="234.5" font-family="Noto Sans SC, Microsoft YaHei, sans-serif" font-size="7" font-weight="bold" fill="white" text-anchor="middle" dominant-baseline="central">B大</text>
<rect x="407" y="166" width="33" height="9" rx="2" transform="rotate(180 407 166)" fill="#18181B" fill-opacity="0.8"/>
<rect x="406.75" y="165.75" width="32.5" height="8.5" rx="1.75" transform="rotate(180 406.75 165.75)" stroke="#27272A" stroke-opacity="0.8" stroke-width="0.5"/>
<text x="390.5" y="161.5" font-family="Noto Sans SC, Microsoft YaHei, sans-serif" font-size="7" font-weight="bold" fill="white" text-anchor="middle" dominant-baseline="central">B窗</text>
<rect x="333" y="282" width="27" height="9" rx="2" transform="rotate(180 333 282)" fill="#18181B" fill-opacity="0.8"/>
<rect x="332.75" y="281.75" width="26.5" height="8.5" rx="1.75" transform="rotate(180 332.75 281.75)" stroke="#27272A" stroke-opacity="0.8" stroke-width="0.5"/>
<text x="319.5" y="277.5" font-family="Noto Sans SC, Microsoft YaHei, sans-serif" font-size="6" font-weight="bold" fill="white" text-anchor="middle" dominant-baseline="central">B肘位</text>
<rect x="274" y="366" width="30" height="9" rx="2" transform="rotate(180 274 366)" fill="#18181B" fill-opacity="0.8"/>
<rect x="273.75" y="365.75" width="29.5" height="8.5" rx="1.75" transform="rotate(180 273.75 365.75)" stroke="#27272A" stroke-opacity="0.8" stroke-width="0.5"/>
<text x="259.0" y="361.5" font-family="Noto Sans SC, Microsoft YaHei, sans-serif" font-size="6" font-weight="bold" fill="white" text-anchor="middle" dominant-baseline="central">中鸟巢</text>
<rect x="267" y="63" width="37" height="9" rx="2" transform="rotate(180 267 63)" fill="#18181B" fill-opacity="0.8"/>
<rect x="266.75" y="62.75" width="36.5" height="8.5" rx="1.75" transform="rotate(180 266.75 62.75)" stroke="#27272A" stroke-opacity="0.8" stroke-width="0.5"/>
<text x="248.5" y="58.5" font-family="Noto Sans SC, Microsoft YaHei, sans-serif" font-size="6" font-weight="bold" fill="white" text-anchor="middle" dominant-baseline="central">中大厅</text>
<rect x="165" y="96" width="28" height="9" rx="2" transform="rotate(180 165 96)" fill="#18181B" fill-opacity="0.8"/>
<rect x="164.75" y="95.75" width="27.5" height="8.5" rx="1.75" transform="rotate(180 164.75 95.75)" stroke="#27272A" stroke-opacity="0.8" stroke-width="0.5"/>
<text x="151.0" y="91.5" font-family="Noto Sans SC, Microsoft YaHei, sans-serif" font-size="7" font-weight="bold" fill="white" text-anchor="middle" dominant-baseline="central">A厅</text>
<rect x="90" y="179" width="19" height="9" rx="2" transform="rotate(180 90 179)" fill="#18181B" fill-opacity="0.8"/>
<rect x="89.75" y="178.75" width="18.5" height="8.5" rx="1.75" transform="rotate(180 89.75 178.75)" stroke="#27272A" stroke-opacity="0.8" stroke-width="0.5"/>
<text x="80.5" y="174.5" font-family="Noto Sans SC, Microsoft YaHei, sans-serif" font-size="7" font-weight="bold" fill="white" text-anchor="middle" dominant-baseline="central">商店</text>
<rect x="77" y="233" width="31" height="9" rx="2" transform="rotate(180 77 233)" fill="#18181B" fill-opacity="0.8"/>
<rect x="76.75" y="232.75" width="30.5" height="8.5" rx="1.75" transform="rotate(180 76.75 232.75)" stroke="#27272A" stroke-opacity="0.8" stroke-width="0.5"/>
<text x="61.5" y="228.5" font-family="Noto Sans SC, Microsoft YaHei, sans-serif" font-size="6" font-weight="bold" fill="white" text-anchor="middle" dominant-baseline="central">金字塔</text>
<rect x="131" y="362" width="29" height="9" rx="2" transform="rotate(180 131 362)" fill="#18181B" fill-opacity="0.8"/>
<rect x="130.75" y="361.75" width="28.5" height="8.5" rx="1.75" transform="rotate(180 130.75 361.75)" stroke="#27272A" stroke-opacity="0.8" stroke-width="0.5"/>
<text x="116.5" y="357.5" font-family="Noto Sans SC, Microsoft YaHei, sans-serif" font-size="7" font-weight="bold" fill="white" text-anchor="middle" dominant-baseline="central">桥</text>
<rect x="161" y="313" width="39" height="9" rx="2" transform="rotate(180 161 313)" fill="#18181B" fill-opacity="0.8"/>
<rect x="160.75" y="312.75" width="38.5" height="8.5" rx="1.75" transform="rotate(180 160.75 312.75)" stroke="#27272A" stroke-opacity="0.8" stroke-width="0.5"/>
<text x="141.5" y="308.5" font-family="Noto Sans SC, Microsoft YaHei, sans-serif" font-size="7" font-weight="bold" fill="white" text-anchor="middle" dominant-baseline="central">铁门</text>
<rect x="179" y="205" width="28" height="9" rx="2" transform="rotate(180 179 205)" fill="#18181B" fill-opacity="0.8"/>
<rect x="178.75" y="204.75" width="27.5" height="8.5" rx="1.75" transform="rotate(180 178.75 204.75)" stroke="#27272A" stroke-opacity="0.8" stroke-width="0.5"/>
<text x="165.0" y="200.5" font-family="Noto Sans SC, Microsoft YaHei, sans-serif" font-size="6" font-weight="bold" fill="white" text-anchor="middle" dominant-baseline="central">中大厅</text>
<rect x="324" y="182" width="27" height="9" rx="2" transform="rotate(180 324 182)" fill="#18181B" fill-opacity="0.8"/>
<rect x="323.75" y="181.75" width="26.5" height="8.5" rx="1.75" transform="rotate(180 323.75 181.75)" stroke="#27272A" stroke-opacity="0.8" stroke-width="0.5"/>
<text x="310.5" y="177.5" font-family="Noto Sans SC, Microsoft YaHei, sans-serif" font-size="7" font-weight="bold" fill="white" text-anchor="middle" dominant-baseline="central">大炮</text>
<rect x="253" y="162" width="38" height="9" rx="2" transform="rotate(180 253 162)" fill="#18181B" fill-opacity="0.8"/>
<rect x="252.75" y="161.75" width="37.5" height="8.5" rx="1.75" transform="rotate(180 252.75 161.75)" stroke="#27272A" stroke-opacity="0.8" stroke-width="0.5"/>
<text x="234.0" y="157.5" font-family="Noto Sans SC, Microsoft YaHei, sans-serif" font-size="6" font-weight="bold" fill="white" text-anchor="middle" dominant-baseline="central">中下层</text>
<rect x="303" y="418" width="25" height="9" rx="2" transform="rotate(180 303 418)" fill="#18181B" fill-opacity="0.8"/>
<rect x="302.75" y="417.75" width="24.5" height="8.5" rx="1.75" transform="rotate(180 302.75 417.75)" stroke="#27272A" stroke-opacity="0.8" stroke-width="0.5"/>
<text x="290.5" y="413.5" font-family="Noto Sans SC, Microsoft YaHei, sans-serif" font-size="7" font-weight="bold" fill="white" text-anchor="middle" dominant-baseline="central">拱门</text>
<rect x="247" y="222" width="31" height="9" rx="2" transform="rotate(180 247 222)" fill="#18181B" fill-opacity="0.8"/>
<rect x="246.75" y="221.75" width="30.5" height="8.5" rx="1.75" transform="rotate(180 246.75 221.75)" stroke="#27272A" stroke-opacity="0.8" stroke-width="0.5"/>
<text x="231.5" y="217.5" font-family="Noto Sans SC, Microsoft YaHei, sans-serif" font-size="7" font-weight="bold" fill="white" text-anchor="middle" dominant-baseline="central">中柱</text>
<rect x="253" y="328" width="27" height="9" rx="2" transform="rotate(180 253 328)" fill="#18181B" fill-opacity="0.8"/>
<rect x="252.75" y="327.75" width="26.5" height="8.5" rx="1.75" transform="rotate(180 252.75 327.75)" stroke="#27272A" stroke-opacity="0.8" stroke-width="0.5"/>
<text x="239.5" y="323.5" font-family="Noto Sans SC, Microsoft YaHei, sans-serif" font-size="6" font-weight="bold" fill="white" text-anchor="middle" dominant-baseline="central">中上层</text>
<rect x="177" y="258" width="40" height="9" rx="2" transform="rotate(180 177 258)" fill="#18181B" fill-opacity="0.8"/>
<rect x="176.75" y="257.75" width="39.5" height="8.5" rx="1.75" transform="rotate(180 176.75 257.75)" stroke="#27272A" stroke-opacity="0.8" stroke-width="0.5"/>
<text x="157.0" y="253.5" font-family="Noto Sans SC, Microsoft YaHei, sans-serif" font-size="7" font-weight="bold" fill="white" text-anchor="middle" dominant-baseline="central">木门</text>
<rect x="201" y="438" width="30" height="9" rx="2" transform="rotate(180 201 438)" fill="#18181B" fill-opacity="0.8"/>
<rect x="200.75" y="437.75" width="29.5" height="8.5" rx="1.75" transform="rotate(180 200.75 437.75)" stroke="#27272A" stroke-opacity="0.8" stroke-width="0.5"/>
<text x="186.0" y="433.5" font-family="Noto Sans SC, Microsoft YaHei, sans-serif" font-size="7" font-weight="bold" fill="white" text-anchor="middle" dominant-baseline="central">警侧</text>
</svg>