<svg width="447" height="474" viewBox="0 0 447 474" fill="none" xmlns="http://www.w3.org/2000/svg">
<rect x="121" y="142" width="29" height="9" rx="2" fill="#18181B" fill-opacity="0.8"/>
<rect x="121.25" y="142.25" width="28.5" height="8.5" rx="1.75" stroke="#27272A" stroke-opacity="0.8" stroke-width="0.5"/>
<text x="135.5" y="146.5" font-family="Noto Sans SC, Microsoft YaHei, sans-serif" font-size="5" font-weight="bold" fill="white" text-anchor="middle" dominant-baseline="central">B Tunnel</text>
<rect x="92" y="112" width="22" height="9" rx="2" fill="#18181B" fill-opacity="0.8"/>
<rect x="92.25" y="112.25" width="21.5" height="8.5" rx="1.75" stroke="#27272A" stroke-opacity="0.8" stroke-width="0.5"/>
<text x="103.0" y="116.5" font-family="Noto Sans SC, Microsoft YaHei, sans-serif" font-size="5" font-weight="bold" fill="white" text-anchor="middle" dominant-baseline="central">B Wall</text>
<rect x="3" y="146" width="24" height="9" rx="2" fill="#18181B" fill-opacity="0.8"/>
<rect x="3.25" y="146.25" width="23.5" height="8.5" rx="1.75" stroke="#27272A" stroke-opacity="0.8" stroke-width="0.5"/>
<text x="15.0" y="150.5" font-family="Noto Sans SC, Microsoft YaHei, sans-serif" font-size="5" font-weight="bold" fill="white" text-anchor="middle" dominant-baseline="central">B Back</text>
<rect x="40" y="235" width="24" height="9" rx="2" fill="#18181B" fill-opacity="0.8"/>
<rect x="40.25" y="235.25" width="23.5" height="8.5" rx="1.75" stroke="#27272A" stroke-opacity="0.8" stroke-width="0.5"/>
<text x="52.0" y="239.5" font-family="Noto Sans SC, Microsoft YaHei, sans-serif" font-size="5" font-weight="bold" fill="white" text-anchor="middle" dominant-baseline="central">B Main</text>
<rect x="40" y="308" width="33" height="9" rx="2" fill="#18181B" fill-opacity="0.8"/>
<rect x="40.25" y="308.25" width="32.5" height="8.5" rx="1.75" stroke="#27272A" stroke-opacity="0.8" stroke-width="0.5"/>
<text x="56.5" y="312.5" font-family="Noto Sans SC, Microsoft YaHei, sans-serif" font-size="5" font-weight="bold" fill="white" text-anchor="middle" dominant-baseline="central">B Window</text>
<rect x="114" y="192" width="27" height="9" rx="2" fill="#18181B" fill-opacity="0.8"/>
<rect x="114.25" y="192.25" width="26.5" height="8.5" rx="1.75" stroke="#27272A" stroke-opacity="0.8" stroke-width="0.5"/>
<text x="127.5" y="196.5" font-family="Noto Sans SC, Microsoft YaHei, sans-serif" font-size="5" font-weight="bold" fill="white" text-anchor="middle" dominant-baseline="central">B Elbow</text>
<rect x="173" y="108" width="30" height="9" rx="2" fill="#18181B" fill-opacity="0.8"/>
<rect x="173.25" y="108.25" width="29.5" height="8.5" rx="1.75" stroke="#27272A" stroke-opacity="0.8" stroke-width="0.5"/>
<text x="188.0" y="112.5" font-family="Noto Sans SC, Microsoft YaHei, sans-serif" font-size="5" font-weight="bold" fill="white" text-anchor="middle" dominant-baseline="central">Mid Nest</text>
<rect x="180" y="411" width="37" height="9" rx="2" fill="#18181B" fill-opacity="0.8"/>
<rect x="180.25" y="411.25" width="36.5" height="8.5" rx="1.75" stroke="#27272A" stroke-opacity="0.8" stroke-width="0.5"/>
<text x="198.5" y="415.5" font-family="Noto Sans SC, Microsoft YaHei, sans-serif" font-size="5" font-weight="bold" fill="white" text-anchor="middle" dominant-baseline="central">Mid Hall</text>
<rect x="282" y="378" width="28" height="9" rx="2" fill="#18181B" fill-opacity="0.8"/>
<rect x="282.25" y="378.25" width="27.5" height="8.5" rx="1.75" stroke="#27272A" stroke-opacity="0.8" stroke-width="0.5"/>
<text x="296.0" y="382.5" font-family="Noto Sans SC, Microsoft YaHei, sans-serif" font-size="5" font-weight="bold" fill="white" text-anchor="middle" dominant-baseline="central">A Lobby</text>
<rect x="357" y="295" width="19" height="9" rx="2" fill="#18181B" fill-opacity="0.8"/>
<rect x="357.25" y="295.25" width="18.5" height="8.5" rx="1.75" stroke="#27272A" stroke-opacity="0.8" stroke-width="0.5"/>
<text x="366.5" y="299.5" font-family="Noto Sans SC, Microsoft YaHei, sans-serif" font-size="5.5" font-weight="bold" fill="white" text-anchor="middle" dominant-baseline="central">Shop</text>
<rect x="370" y="241" width="31" height="9" rx="2" fill="#18181B" fill-opacity="0.8"/>
<rect x="370.25" y="241.25" width="30.5" height="8.5" rx="1.75" stroke="#27272A" stroke-opacity="0.8" stroke-width="0.5"/>
<text x="385.5" y="245.5" font-family="Noto Sans SC, Microsoft YaHei, sans-serif" font-size="5" font-weight="bold" fill="white" text-anchor="middle" dominant-baseline="central">Pyramids</text>
<rect x="316" y="112" width="29" height="9" rx="2" fill="#18181B" fill-opacity="0.8"/>
<rect x="316.25" y="112.25" width="28.5" height="8.5" rx="1.75" stroke="#27272A" stroke-opacity="0.8" stroke-width="0.5"/>
<text x="330.5" y="116.5" font-family="Noto Sans SC, Microsoft YaHei, sans-serif" font-size="5" font-weight="bold" fill="white" text-anchor="middle" dominant-baseline="central">A Bridge</text>
<rect x="286" y="161" width="39" height="9" rx="2" fill="#18181B" fill-opacity="0.8"/>
<rect x="286.25" y="161.25" width="38.5" height="8.5" rx="1.75" stroke="#27272A" stroke-opacity="0.8" stroke-width="0.5"/>
<text x="305.5" y="165.5" font-family="Noto Sans SC, Microsoft YaHei, sans-serif" font-size="5" font-weight="bold" fill="white" text-anchor="middle" dominant-baseline="central">Metal Doors</text>
<rect x="268" y="269" width="28" height="9" rx="2" fill="#18181B" fill-opacity="0.8"/>
<rect x="268.25" y="269.25" width="27.5" height="8.5" rx="1.75" stroke="#27272A" stroke-opacity="0.8" stroke-width="0.5"/>
<text x="282.0" y="273.5" font-family="Noto Sans SC, Microsoft YaHei, sans-serif" font-size="5" font-weight="bold" fill="white" text-anchor="middle" dominant-baseline="central">Mid Hall</text>
<rect x="123" y="292" width="27" height="9" rx="2" fill="#18181B" fill-opacity="0.8"/>
<rect x="123.25" y="292.25" width="26.5" height="8.5" rx="1.75" stroke="#27272A" stroke-opacity="0.8" stroke-width="0.5"/>
<text x="136.5" y="296.5" font-family="Noto Sans SC, Microsoft YaHei, sans-serif" font-size="5" font-weight="bold" fill="white" text-anchor="middle" dominant-baseline="central">Cannon</text>
<rect x="194" y="312" width="38" height="9" rx="2" fill="#18181B" fill-opacity="0.8"/>
<rect x="194.25" y="312.25" width="37.5" height="8.5" rx="1.75" stroke="#27272A" stroke-opacity="0.8" stroke-width="0.5"/>
<text x="213.0" y="316.5" font-family="Noto Sans SC, Microsoft YaHei, sans-serif" font-size="5" font-weight="bold" fill="white" text-anchor="middle" dominant-baseline="central">Mid Bottom</text>
<rect x="144" y="56" width="25" height="9" rx="2" fill="#18181B" fill-opacity="0.8"/>
<rect x="144.25" y="56.25" width="24.5" height="8.5" rx="1.75" stroke="#27272A" stroke-opacity="0.8" stroke-width="0.5"/>
<text x="156.5" y="60.5" font-family="Noto Sans SC, Microsoft YaHei, sans-serif" font-size="5" font-weight="bold" fill="white" text-anchor="middle" dominant-baseline="central">Arches</text>
<rect x="200" y="252" width="31" height="9" rx="2" fill="#18181B" fill-opacity="0.8"/>
<rect x="200.25" y="252.25" width="30.5" height="8.5" rx="1.75" stroke="#27272A" stroke-opacity="0.8" stroke-width="0.5"/>
<text x="215.5" y="256.5" font-family="Noto Sans SC, Microsoft YaHei, sans-serif" font-size="5" font-weight="bold" fill="white" text-anchor="middle" dominant-baseline="central">Mid Pillar</text>
<rect x="194" y="146" width="27" height="9" rx="2" fill="#18181B" fill-opacity="0.8"/>
<rect x="194.25" y="146.25" width="26.5" height="8.5" rx="1.75" stroke="#27272A" stroke-opacity="0.8" stroke-width="0.5"/>
<text x="207.5" y="150.5" font-family="Noto Sans SC, Microsoft YaHei, sans-serif" font-size="5" font-weight="bold" fill="white" text-anchor="middle" dominant-baseline="central">Mid Top</text>
<rect x="270" y="216" width="40" height="9" rx="2" fill="#18181B" fill-opacity="0.8"/>
<rect x="270.25" y="216.25" width="39.5" height="8.5" rx="1.75" stroke="#27272A" stroke-opacity="0.8" stroke-width="0.5"/>
<text x="290.0" y="220.5" font-family="Noto Sans SC, Microsoft YaHei, sans-serif" font-size="5" font-weight="bold" fill="white" text-anchor="middle" dominant-baseline="central">Wood Doors</text>
<rect x="246" y="36" width="30" height="9" rx="2" fill="#18181B" fill-opacity="0.8"/>
<rect x="246.25" y="36.25" width="29.5" height="8.5" rx="1.75" stroke="#27272A" stroke-opacity="0.8" stroke-width="0.5"/>
<text x="261.0" y="40.5" font-family="Noto Sans SC, Microsoft YaHei, sans-serif" font-size="5" font-weight="bold" fill="white" text-anchor="middle" dominant-baseline="central">DEF Side</text>
</svg>