<svg width="385" height="473" viewBox="0 0 385 473" fill="none" xmlns="http://www.w3.org/2000/svg">
<rect x="211" y="56" width="37" height="9" rx="2" transform="rotate(180 211 56)" fill="#18181B" fill-opacity="0.8"/>
<rect x="210.75" y="55.75" width="36.5" height="8.5" rx="1.75" transform="rotate(180 210.75 55.75)" stroke="#27272A" stroke-opacity="0.8" stroke-width="0.5"/>
<text x="192.5" y="51.5" font-family="Noto Sans SC, Microsoft YaHei, sans-serif" font-size="6" font-weight="bold" fill="white" text-anchor="middle" dominant-baseline="central">B大厅</text>
<rect x="286" y="156" width="28" height="9" rx="2" transform="rotate(180 286 156)" fill="#18181B" fill-opacity="0.8"/>
<rect x="285.75" y="155.75" width="27.5" height="8.5" rx="1.75" transform="rotate(180 285.75 155.75)" stroke="#27272A" stroke-opacity="0.8" stroke-width="0.5"/>
<text x="272.0" y="151.5" font-family="Noto Sans SC, Microsoft YaHei, sans-serif" font-size="5.5" font-weight="bold" fill="white" text-anchor="middle" dominant-baseline="central">中路下层</text>
<rect x="207" y="147" width="38" height="9" rx="2" transform="rotate(180 207 147)" fill="#18181B" fill-opacity="0.8"/>
<rect x="206.75" y="146.75" width="37.5" height="8.5" rx="1.75" transform="rotate(180 206.75 146.75)" stroke="#27272A" stroke-opacity="0.8" stroke-width="0.5"/>
<text x="188.0" y="142.5" font-family="Noto Sans SC, Microsoft YaHei, sans-serif" font-size="6" font-weight="bold" fill="white" text-anchor="middle" dominant-baseline="central">A大厅</text>
<rect x="132" y="143" width="28" height="9" rx="2" transform="rotate(180 132 143)" fill="#18181B" fill-opacity="0.8"/>
<rect x="131.75" y="142.75" width="27.5" height="8.5" rx="1.75" transform="rotate(180 131.75 142.75)" stroke="#27272A" stroke-opacity="0.8" stroke-width="0.5"/>
<text x="118.0" y="138.5" font-family="Noto Sans SC, Microsoft YaHei, sans-serif" font-size="6" font-weight="bold" fill="white" text-anchor="middle" dominant-baseline="central">A主路</text>
<rect x="93" y="196" width="24" height="9" rx="2" transform="rotate(180 93 196)" fill="#18181B" fill-opacity="0.8"/>
<rect x="92.75" y="195.75" width="23.5" height="8.5" rx="1.75" transform="rotate(180 92.75 195.75)" stroke="#27272A" stroke-opacity="0.8" stroke-width="0.5"/>
<text x="81.0" y="191.5" font-family="Noto Sans SC, Microsoft YaHei, sans-serif" font-size="5.5" font-weight="bold" fill="white" text-anchor="middle" dominant-baseline="central">中路楼梯</text>
<rect x="203" y="228" width="33" height="9" rx="2" transform="rotate(180 203 228)" fill="#18181B" fill-opacity="0.8"/>
<rect x="202.75" y="227.75" width="32.5" height="8.5" rx="1.75" transform="rotate(180 202.75 227.75)" stroke="#27272A" stroke-opacity="0.8" stroke-width="0.5"/>
<text x="186.5" y="223.5" font-family="Noto Sans SC, Microsoft YaHei, sans-serif" font-size="5.5" font-weight="bold" fill="white" text-anchor="middle" dominant-baseline="central">中路上层</text>
<rect x="207" y="297" width="27" height="9" rx="2" transform="rotate(180 207 297)" fill="#18181B" fill-opacity="0.8"/>
<rect x="206.75" y="296.75" width="26.5" height="8.5" rx="1.75" transform="rotate(180 206.75 296.75)" stroke="#27272A" stroke-opacity="0.8" stroke-width="0.5"/>
<text x="193.5" y="292.5" font-family="Noto Sans SC, Microsoft YaHei, sans-serif" font-size="5.5" font-weight="bold" fill="white" text-anchor="middle" dominant-baseline="central">A连接道</text>
<rect x="154" y="272" width="22" height="9" rx="2" transform="rotate(180 154 272)" fill="#18181B" fill-opacity="0.8"/>
<rect x="153.75" y="271.75" width="21.5" height="8.5" rx="1.75" transform="rotate(180 153.75 271.75)" stroke="#27272A" stroke-opacity="0.8" stroke-width="0.5"/>
<text x="143.0" y="267.5" font-family="Noto Sans SC, Microsoft YaHei, sans-serif" font-size="6" font-weight="bold" fill="white" text-anchor="middle" dominant-baseline="central">A院子</text>
<rect x="92" y="263" width="17" height="9" rx="2" transform="rotate(180 92 263)" fill="#18181B" fill-opacity="0.8"/>
<rect x="91.75" y="262.75" width="16.5" height="8.5" rx="1.75" transform="rotate(180 91.75 262.75)" stroke="#27272A" stroke-opacity="0.8" stroke-width="0.5"/>
<text x="83.5" y="258.5" font-family="Noto Sans SC, Microsoft YaHei, sans-serif" font-size="6" font-weight="bold" fill="white" text-anchor="middle" dominant-baseline="central">A凹室</text>
<rect x="32" y="264" width="24" height="9" rx="2" transform="rotate(180 32 264)" fill="#18181B" fill-opacity="0.8"/>
<rect x="31.75" y="263.75" width="23.5" height="8.5" rx="1.75" transform="rotate(180 31.75 263.75)" stroke="#27272A" stroke-opacity="0.8" stroke-width="0.5"/>
<text x="20.0" y="259.5" font-family="Noto Sans SC, Microsoft YaHei, sans-serif" font-size="6" font-weight="bold" fill="white" text-anchor="middle" dominant-baseline="central">A拐角</text>
<rect x="30" y="310" width="28" height="9" rx="2" transform="rotate(180 30 310)" fill="#18181B" fill-opacity="0.8"/>
<rect x="29.75" y="309.75" width="27.5" height="8.5" rx="1.75" transform="rotate(180 29.75 309.75)" stroke="#27272A" stroke-opacity="0.8" stroke-width="0.5"/>
<text x="16.0" y="305.5" font-family="Noto Sans SC, Microsoft YaHei, sans-serif" font-size="5.5" font-weight="bold" fill="white" text-anchor="middle" dominant-baseline="central">A起重机</text>
<rect x="83" y="388" width="22" height="9" rx="2" transform="rotate(180 83 388)" fill="#18181B" fill-opacity="0.8"/>
<rect x="82.75" y="387.75" width="21.5" height="8.5" rx="1.75" transform="rotate(180 82.75 387.75)" stroke="#27272A" stroke-opacity="0.8" stroke-width="0.5"/>
<text x="72.0" y="383.5" font-family="Noto Sans SC, Microsoft YaHei, sans-serif" font-size="5" font-weight="bold" fill="white" text-anchor="middle" dominant-baseline="central">防守方重生点</text>
<rect x="214" y="420" width="37" height="9" rx="2" transform="rotate(180 214 420)" fill="#18181B" fill-opacity="0.8"/>
<rect x="213.75" y="419.75" width="36.5" height="8.5" rx="1.75" transform="rotate(180 213.75 419.75)" stroke="#27272A" stroke-opacity="0.8" stroke-width="0.5"/>
<text x="195.5" y="415.5" font-family="Noto Sans SC, Microsoft YaHei, sans-serif" font-size="6" font-weight="bold" fill="white" text-anchor="middle" dominant-baseline="central">B拱门</text>
<rect x="348" y="395" width="18" height="9" rx="2" transform="rotate(180 348 395)" fill="#18181B" fill-opacity="0.8"/>
<rect x="347.75" y="394.75" width="17.5" height="8.5" rx="1.75" transform="rotate(180 347.75 394.75)" stroke="#27272A" stroke-opacity="0.8" stroke-width="0.5"/>
<text x="339.0" y="390.5" font-family="Noto Sans SC, Microsoft YaHei, sans-serif" font-size="6" font-weight="bold" fill="white" text-anchor="middle" dominant-baseline="central">B塔楼</text>
<rect x="307" y="337" width="22" height="9" rx="2" transform="rotate(180 307 337)" fill="#18181B" fill-opacity="0.8"/>
<rect x="306.75" y="336.75" width="21.5" height="8.5" rx="1.75" transform="rotate(180 306.75 336.75)" stroke="#27272A" stroke-opacity="0.8" stroke-width="0.5"/>
<text x="296.0" y="332.5" font-family="Noto Sans SC, Microsoft YaHei, sans-serif" font-size="6" font-weight="bold" fill="white" text-anchor="middle" dominant-baseline="central">B拐角</text>
<rect x="385" y="322" width="27" height="9" rx="2" transform="rotate(180 385 322)" fill="#18181B" fill-opacity="0.8"/>
<rect x="384.75" y="321.75" width="26.5" height="8.5" rx="1.75" transform="rotate(180 384.75 321.75)" stroke="#27272A" stroke-opacity="0.8" stroke-width="0.5"/>
<text x="371.5" y="317.5" font-family="Noto Sans SC, Microsoft YaHei, sans-serif" font-size="5.5" font-weight="bold" fill="white" text-anchor="middle" dominant-baseline="central">B连接道</text>
<rect x="253" y="292" width="22" height="9" rx="2" transform="rotate(180 253 292)" fill="#18181B" fill-opacity="0.8"/>
<rect x="252.75" y="291.75" width="21.5" height="8.5" rx="1.75" transform="rotate(180 252.75 291.75)" stroke="#27272A" stroke-opacity="0.8" stroke-width="0.5"/>
<text x="242.0" y="287.5" font-family="Noto Sans SC, Microsoft YaHei, sans-serif" font-size="6" font-weight="bold" fill="white" text-anchor="middle" dominant-baseline="central">B主路</text>
<rect x="332" y="228" width="24" height="9" rx="2" transform="rotate(180 332 228)" fill="#18181B" fill-opacity="0.8"/>
<rect x="331.75" y="227.75" width="23.5" height="8.5" rx="1.75" transform="rotate(180 331.75 227.75)" stroke="#27272A" stroke-opacity="0.8" stroke-width="0.5"/>
<text x="320.0" y="223.5" font-family="Noto Sans SC, Microsoft YaHei, sans-serif" font-size="5.5" font-weight="bold" fill="white" text-anchor="middle" dominant-baseline="central">中路窗口</text>
<rect x="213" y="328" width="40" height="9" rx="2" transform="rotate(180 213 328)" fill="#18181B" fill-opacity="0.8"/>
<rect x="212.75" y="327.75" width="39.5" height="8.5" rx="1.75" transform="rotate(180 212.75 327.75)" stroke="#27272A" stroke-opacity="0.8" stroke-width="0.5"/>
<text x="193.0" y="323.5" font-family="Noto Sans SC, Microsoft YaHei, sans-serif" font-size="6" font-weight="bold" fill="white" text-anchor="middle" dominant-baseline="central">A包点</text>
</svg>