<svg width="385" height="473" viewBox="0 0 385 473" fill="none" xmlns="http://www.w3.org/2000/svg">
<rect x="174" y="417" width="37" height="9" rx="2" fill="#18181B" fill-opacity="0.8"/>
<rect x="174.25" y="417.25" width="36.5" height="8.5" rx="1.75" stroke="#27272A" stroke-opacity="0.8" stroke-width="0.5"/>
<text x="192.5" y="421.5" font-family="Noto Sans SC, Microsoft YaHei, sans-serif" font-size="6" font-weight="bold" fill="white" text-anchor="middle" dominant-baseline="central">B大厅</text>
<rect x="99" y="317" width="28" height="9" rx="2" fill="#18181B" fill-opacity="0.8"/>
<rect x="99.25" y="317.25" width="27.5" height="8.5" rx="1.75" stroke="#27272A" stroke-opacity="0.8" stroke-width="0.5"/>
<text x="113.0" y="321.5" font-family="Noto Sans SC, Microsoft YaHei, sans-serif" font-size="5.5" font-weight="bold" fill="white" text-anchor="middle" dominant-baseline="central">中路下层</text>
<rect x="178" y="326" width="38" height="9" rx="2" fill="#18181B" fill-opacity="0.8"/>
<rect x="178.25" y="326.25" width="37.5" height="8.5" rx="1.75" stroke="#27272A" stroke-opacity="0.8" stroke-width="0.5"/>
<text x="197.0" y="330.5" font-family="Noto Sans SC, Microsoft YaHei, sans-serif" font-size="6" font-weight="bold" fill="white" text-anchor="middle" dominant-baseline="central">A大厅</text>
<rect x="253" y="330" width="28" height="9" rx="2" fill="#18181B" fill-opacity="0.8"/>
<rect x="253.25" y="330.25" width="27.5" height="8.5" rx="1.75" stroke="#27272A" stroke-opacity="0.8" stroke-width="0.5"/>
<text x="267.0" y="334.5" font-family="Noto Sans SC, Microsoft YaHei, sans-serif" font-size="6" font-weight="bold" fill="white" text-anchor="middle" dominant-baseline="central">A主路</text>
<rect x="292" y="277" width="24" height="9" rx="2" fill="#18181B" fill-opacity="0.8"/>
<rect x="292.25" y="277.25" width="23.5" height="8.5" rx="1.75" stroke="#27272A" stroke-opacity="0.8" stroke-width="0.5"/>
<text x="304.0" y="281.5" font-family="Noto Sans SC, Microsoft YaHei, sans-serif" font-size="5.5" font-weight="bold" fill="white" text-anchor="middle" dominant-baseline="central">中路楼梯</text>
<rect x="182" y="245" width="33" height="9" rx="2" fill="#18181B" fill-opacity="0.8"/>
<rect x="182.25" y="245.25" width="32.5" height="8.5" rx="1.75" stroke="#27272A" stroke-opacity="0.8" stroke-width="0.5"/>
<text x="198.5" y="249.5" font-family="Noto Sans SC, Microsoft YaHei, sans-serif" font-size="5.5" font-weight="bold" fill="white" text-anchor="middle" dominant-baseline="central">中路上层</text>
<rect x="178" y="176" width="27" height="9" rx="2" fill="#18181B" fill-opacity="0.8"/>
<rect x="178.25" y="176.25" width="26.5" height="8.5" rx="1.75" stroke="#27272A" stroke-opacity="0.8" stroke-width="0.5"/>
<text x="191.5" y="180.5" font-family="Noto Sans SC, Microsoft YaHei, sans-serif" font-size="5.5" font-weight="bold" fill="white" text-anchor="middle" dominant-baseline="central">A连接道</text>
<rect x="231" y="201" width="22" height="9" rx="2" fill="#18181B" fill-opacity="0.8"/>
<rect x="231.25" y="201.25" width="21.5" height="8.5" rx="1.75" stroke="#27272A" stroke-opacity="0.8" stroke-width="0.5"/>
<text x="242.0" y="205.5" font-family="Noto Sans SC, Microsoft YaHei, sans-serif" font-size="6" font-weight="bold" fill="white" text-anchor="middle" dominant-baseline="central">A院子</text>
<rect x="293" y="210" width="17" height="9" rx="2" fill="#18181B" fill-opacity="0.8"/>
<rect x="293.25" y="210.25" width="16.5" height="8.5" rx="1.75" stroke="#27272A" stroke-opacity="0.8" stroke-width="0.5"/>
<text x="301.5" y="214.5" font-family="Noto Sans SC, Microsoft YaHei, sans-serif" font-size="6" font-weight="bold" fill="white" text-anchor="middle" dominant-baseline="central">A凹室</text>
<rect x="353" y="209" width="24" height="9" rx="2" fill="#18181B" fill-opacity="0.8"/>
<rect x="353.25" y="209.25" width="23.5" height="8.5" rx="1.75" stroke="#27272A" stroke-opacity="0.8" stroke-width="0.5"/>
<text x="365.0" y="213.5" font-family="Noto Sans SC, Microsoft YaHei, sans-serif" font-size="6" font-weight="bold" fill="white" text-anchor="middle" dominant-baseline="central">A拐角</text>
<rect x="355" y="163" width="28" height="9" rx="2" fill="#18181B" fill-opacity="0.8"/>
<rect x="355.25" y="163.25" width="27.5" height="8.5" rx="1.75" stroke="#27272A" stroke-opacity="0.8" stroke-width="0.5"/>
<text x="369.0" y="167.5" font-family="Noto Sans SC, Microsoft YaHei, sans-serif" font-size="5.5" font-weight="bold" fill="white" text-anchor="middle" dominant-baseline="central">A起重机</text>
<rect x="302" y="85" width="22" height="9" rx="2" fill="#18181B" fill-opacity="0.8"/>
<rect x="302.25" y="85.25" width="21.5" height="8.5" rx="1.75" stroke="#27272A" stroke-opacity="0.8" stroke-width="0.5"/>
<text x="313.0" y="89.5" font-family="Noto Sans SC, Microsoft YaHei, sans-serif" font-size="5" font-weight="bold" fill="white" text-anchor="middle" dominant-baseline="central">防守方重生点</text>
<rect x="171" y="53" width="37" height="9" rx="2" fill="#18181B" fill-opacity="0.8"/>
<rect x="171.25" y="53.25" width="36.5" height="8.5" rx="1.75" stroke="#27272A" stroke-opacity="0.8" stroke-width="0.5"/>
<text x="189.5" y="57.5" font-family="Noto Sans SC, Microsoft YaHei, sans-serif" font-size="6" font-weight="bold" fill="white" text-anchor="middle" dominant-baseline="central">B拱门</text>
<rect x="37" y="78" width="18" height="9" rx="2" fill="#18181B" fill-opacity="0.8"/>
<rect x="37.25" y="78.25" width="17.5" height="8.5" rx="1.75" stroke="#27272A" stroke-opacity="0.8" stroke-width="0.5"/>
<text x="46.0" y="82.5" font-family="Noto Sans SC, Microsoft YaHei, sans-serif" font-size="6" font-weight="bold" fill="white" text-anchor="middle" dominant-baseline="central">B塔楼</text>
<rect x="78" y="136" width="22" height="9" rx="2" fill="#18181B" fill-opacity="0.8"/>
<rect x="78.25" y="136.25" width="21.5" height="8.5" rx="1.75" stroke="#27272A" stroke-opacity="0.8" stroke-width="0.5"/>
<text x="89.0" y="140.5" font-family="Noto Sans SC, Microsoft YaHei, sans-serif" font-size="6" font-weight="bold" fill="white" text-anchor="middle" dominant-baseline="central">B拐角</text>
<rect y="151" width="27" height="9" rx="2" fill="#18181B" fill-opacity="0.8"/>
<rect x="0.25" y="151.25" width="26.5" height="8.5" rx="1.75" stroke="#27272A" stroke-opacity="0.8" stroke-width="0.5"/>
<text x="15.5" y="155.5" font-family="Noto Sans SC, Microsoft YaHei, sans-serif" font-size="5.5" font-weight="bold" fill="white" text-anchor="middle" dominant-baseline="central">B连接道</text>
<rect x="132" y="181" width="22" height="9" rx="2" fill="#18181B" fill-opacity="0.8"/>
<rect x="132.25" y="181.25" width="21.5" height="8.5" rx="1.75" stroke="#27272A" stroke-opacity="0.8" stroke-width="0.5"/>
<text x="143.0" y="185.5" font-family="Noto Sans SC, Microsoft YaHei, sans-serif" font-size="6" font-weight="bold" fill="white" text-anchor="middle" dominant-baseline="central">B主路</text>
<rect x="53" y="245" width="24" height="9" rx="2" fill="#18181B" fill-opacity="0.8"/>
<rect x="53.25" y="245.25" width="23.5" height="8.5" rx="1.75" stroke="#27272A" stroke-opacity="0.8" stroke-width="0.5"/>
<text x="65.0" y="249.5" font-family="Noto Sans SC, Microsoft YaHei, sans-serif" font-size="5.5" font-weight="bold" fill="white" text-anchor="middle" dominant-baseline="central">中路窗口</text>
<rect x="172" y="145" width="40" height="9" rx="2" fill="#18181B" fill-opacity="0.8"/>
<rect x="172.25" y="145.25" width="39.5" height="8.5" rx="1.75" stroke="#27272A" stroke-opacity="0.8" stroke-width="0.5"/>
<text x="192.0" y="149.5" font-family="Noto Sans SC, Microsoft YaHei, sans-serif" font-size="6" font-weight="bold" fill="white" text-anchor="middle" dominant-baseline="central">A包点</text>
</svg>