<svg width="458" height="473" viewBox="0 0 458 473" fill="none" xmlns="http://www.w3.org/2000/svg">
<rect x="371" y="185" width="24" height="9" rx="2" fill="#18181B" fill-opacity="0.8"/>
<rect x="371.25" y="185.25" width="23.5" height="8.5" rx="1.75" stroke="#27272A" stroke-opacity="0.8" stroke-width="0.5"/>
<text x="383.0" y="189.5" font-family="Noto Sans SC, Microsoft YaHei, sans-serif" font-size="5" font-weight="bold" fill="white" text-anchor="middle" dominant-baseline="central">A Drop</text>
<rect x="215" y="387" width="37" height="9" rx="2" fill="#18181B" fill-opacity="0.8"/>
<rect x="215.25" y="387.25" width="36.5" height="8.5" rx="1.75" stroke="#27272A" stroke-opacity="0.8" stroke-width="0.5"/>
<text x="233.5" y="391.5" font-family="Noto Sans SC, Microsoft YaHei, sans-serif" font-size="5" font-weight="bold" fill="white" text-anchor="middle" dominant-baseline="central">ATK Spawn</text>
<rect x="342" y="363" width="21" height="9" rx="2" fill="#18181B" fill-opacity="0.8"/>
<rect x="342.25" y="363.25" width="20.5" height="8.5" rx="1.75" stroke="#27272A" stroke-opacity="0.8" stroke-width="0.5"/>
<text x="352.5" y="367.5" font-family="Noto Sans SC, Microsoft YaHei, sans-serif" font-size="5" font-weight="bold" fill="white" text-anchor="middle" dominant-baseline="central">A Hall</text>
<rect x="335" y="337" width="24" height="9" rx="2" fill="#18181B" fill-opacity="0.8"/>
<rect x="335.25" y="337.25" width="23.5" height="8.5" rx="1.75" stroke="#27272A" stroke-opacity="0.8" stroke-width="0.5"/>
<text x="347.0" y="341.5" font-family="Noto Sans SC, Microsoft YaHei, sans-serif" font-size="5" font-weight="bold" fill="white" text-anchor="middle" dominant-baseline="central">A Door</text>
<rect x="283" y="302" width="25" height="9" rx="2" fill="#18181B" fill-opacity="0.8"/>
<rect x="283.25" y="302.25" width="24.5" height="8.5" rx="1.75" stroke="#27272A" stroke-opacity="0.8" stroke-width="0.5"/>
<text x="295.5" y="306.5" font-family="Noto Sans SC, Microsoft YaHei, sans-serif" font-size="5" font-weight="bold" fill="white" text-anchor="middle" dominant-baseline="central">A Rope</text>
<rect x="159" y="190" width="22" height="9" rx="2" fill="#18181B" fill-opacity="0.8"/>
<rect x="159.25" y="190.25" width="21.5" height="8.5" rx="1.75" stroke="#27272A" stroke-opacity="0.8" stroke-width="0.5"/>
<text x="170.0" y="194.5" font-family="Noto Sans SC, Microsoft YaHei, sans-serif" font-size="5" font-weight="bold" fill="white" text-anchor="middle" dominant-baseline="central">B Link</text>
<rect x="230" y="197" width="37" height="9" rx="2" fill="#18181B" fill-opacity="0.8"/>
<rect x="230.25" y="197.25" width="36.5" height="8.5" rx="1.75" stroke="#27272A" stroke-opacity="0.8" stroke-width="0.5"/>
<text x="248.5" y="201.5" font-family="Noto Sans SC, Microsoft YaHei, sans-serif" font-size="5" font-weight="bold" fill="white" text-anchor="middle" dominant-baseline="central">ATK Spawn</text>
<rect x="159" y="124" width="23" height="9" rx="2" fill="#18181B" fill-opacity="0.8"/>
<rect x="159.25" y="124.25" width="22.5" height="8.5" rx="1.75" stroke="#27272A" stroke-opacity="0.8" stroke-width="0.5"/>
<text x="170.5" y="128.5" font-family="Noto Sans SC, Microsoft YaHei, sans-serif" font-size="5" font-weight="bold" fill="white" text-anchor="middle" dominant-baseline="central">Bench</text>
<rect x="220" y="45" width="51" height="9" rx="2" fill="#18181B" fill-opacity="0.8"/>
<rect x="220.25" y="45.25" width="50.5" height="8.5" rx="1.75" stroke="#27272A" stroke-opacity="0.8" stroke-width="0.5"/>
<text x="245.5" y="49.5" font-family="Noto Sans SC, Microsoft YaHei, sans-serif" font-size="5" font-weight="bold" fill="white" text-anchor="middle" dominant-baseline="central">ATK Side Bridge</text>
<rect x="319" y="45" width="24" height="9" rx="2" fill="#18181B" fill-opacity="0.8"/>
<rect x="319.25" y="45.25" width="23.5" height="8.5" rx="1.75" stroke="#27272A" stroke-opacity="0.8" stroke-width="0.5"/>
<text x="331.0" y="49.5" font-family="Noto Sans SC, Microsoft YaHei, sans-serif" font-size="5" font-weight="bold" fill="white" text-anchor="middle" dominant-baseline="central">A Gate</text>
<rect x="328" y="112" width="17" height="9" rx="2" fill="#18181B" fill-opacity="0.8"/>
<rect x="328.25" y="112.25" width="16.5" height="8.5" rx="1.75" stroke="#27272A" stroke-opacity="0.8" stroke-width="0.5"/>
<text x="336.5" y="116.5" font-family="Noto Sans SC, Microsoft YaHei, sans-serif" font-size="5.5" font-weight="bold" fill="white" text-anchor="middle" dominant-baseline="central">Dish</text>
<rect x="400" y="304" width="24" height="9" rx="2" fill="#18181B" fill-opacity="0.8"/>
<rect x="400.25" y="304.25" width="23.5" height="8.5" rx="1.75" stroke="#27272A" stroke-opacity="0.8" stroke-width="0.5"/>
<text x="412.0" y="308.5" font-family="Noto Sans SC, Microsoft YaHei, sans-serif" font-size="5" font-weight="bold" fill="white" text-anchor="middle" dominant-baseline="central">A Main</text>
<rect x="299" y="208" width="22" height="9" rx="2" fill="#18181B" fill-opacity="0.8"/>
<rect x="299.25" y="208.25" width="21.5" height="8.5" rx="1.75" stroke="#27272A" stroke-opacity="0.8" stroke-width="0.5"/>
<text x="310.0" y="212.5" font-family="Noto Sans SC, Microsoft YaHei, sans-serif" font-size="5" font-weight="bold" fill="white" text-anchor="middle" dominant-baseline="central">A Link</text>
<rect x="130" y="394" width="23" height="9" rx="2" fill="#18181B" fill-opacity="0.8"/>
<rect x="130.25" y="394.25" width="22.5" height="8.5" rx="1.75" stroke="#27272A" stroke-opacity="0.8" stroke-width="0.5"/>
<text x="141.5" y="398.5" font-family="Noto Sans SC, Microsoft YaHei, sans-serif" font-size="5" font-weight="bold" fill="white" text-anchor="middle" dominant-baseline="central">B Tree</text>
<rect x="98" y="327" width="29" height="9" rx="2" fill="#18181B" fill-opacity="0.8"/>
<rect x="98.25" y="327.25" width="28.5" height="8.5" rx="1.75" stroke="#27272A" stroke-opacity="0.8" stroke-width="0.5"/>
<text x="112.5" y="331.5" font-family="Noto Sans SC, Microsoft YaHei, sans-serif" font-size="5" font-weight="bold" fill="white" text-anchor="middle" dominant-baseline="central">B Tunnel</text>
<rect x="43" y="318" width="24" height="9" rx="2" fill="#18181B" fill-opacity="0.8"/>
<rect x="43.25" y="318.25" width="23.5" height="8.5" rx="1.75" stroke="#27272A" stroke-opacity="0.8" stroke-width="0.5"/>
<text x="55.0" y="322.5" font-family="Noto Sans SC, Microsoft YaHei, sans-serif" font-size="5" font-weight="bold" fill="white" text-anchor="middle" dominant-baseline="central">B Main</text>
<rect x="158" y="266" width="29" height="9" rx="2" fill="#18181B" fill-opacity="0.8"/>
<rect x="158.25" y="266.25" width="28.5" height="8.5" rx="1.75" stroke="#27272A" stroke-opacity="0.8" stroke-width="0.5"/>
<text x="172.5" y="270.5" font-family="Noto Sans SC, Microsoft YaHei, sans-serif" font-size="5" font-weight="bold" fill="white" text-anchor="middle" dominant-baseline="central">Canteen</text>
<rect x="120" y="235" width="33" height="9" rx="2" fill="#18181B" fill-opacity="0.8"/>
<rect x="120.25" y="235.25" width="32.5" height="8.5" rx="1.75" stroke="#27272A" stroke-opacity="0.8" stroke-width="0.5"/>
<text x="136.5" y="239.5" font-family="Noto Sans SC, Microsoft YaHei, sans-serif" font-size="5" font-weight="bold" fill="white" text-anchor="middle" dominant-baseline="central">Generator</text>
<rect x="15" y="203" width="28" height="9" rx="2" fill="#18181B" fill-opacity="0.8"/>
<rect x="15.25" y="203.25" width="27.5" height="8.5" rx="1.75" stroke="#27272A" stroke-opacity="0.8" stroke-width="0.5"/>
<text x="29.0" y="207.5" font-family="Noto Sans SC, Microsoft YaHei, sans-serif" font-size="5" font-weight="bold" fill="white" text-anchor="middle" dominant-baseline="central">B Tower</text>
<rect x="72" y="151" width="25" height="9" rx="2" fill="#18181B" fill-opacity="0.8"/>
<rect x="72.25" y="151.25" width="24.5" height="8.5" rx="1.75" stroke="#27272A" stroke-opacity="0.8" stroke-width="0.5"/>
<text x="84.5" y="155.5" font-family="Noto Sans SC, Microsoft YaHei, sans-serif" font-size="5" font-weight="bold" fill="white" text-anchor="middle" dominant-baseline="central">Arcade</text>
</svg>