<svg width="458" height="473" viewBox="0 0 458 473" fill="none" xmlns="http://www.w3.org/2000/svg">
<rect x="87" y="288" width="24" height="9" rx="2" transform="rotate(180 87 288)" fill="#18181B" fill-opacity="0.8"/>
<rect x="86.75" y="287.75" width="23.5" height="8.5" rx="1.75" transform="rotate(180 86.75 287.75)" stroke="#27272A" stroke-opacity="0.8" stroke-width="0.5"/>
<text x="75.0" y="283.5" font-family="Noto Sans SC, Microsoft YaHei, sans-serif" font-size="5" font-weight="bold" fill="white" text-anchor="middle" dominant-baseline="central">A Drop</text>
<rect x="243" y="86" width="37" height="9" rx="2" transform="rotate(180 243 86)" fill="#18181B" fill-opacity="0.8"/>
<rect x="242.75" y="85.75" width="36.5" height="8.5" rx="1.75" transform="rotate(180 242.75 85.75)" stroke="#27272A" stroke-opacity="0.8" stroke-width="0.5"/>
<text x="224.5" y="81.5" font-family="Noto Sans SC, Microsoft YaHei, sans-serif" font-size="5" font-weight="bold" fill="white" text-anchor="middle" dominant-baseline="central">ATK Spawn</text>
<rect x="116" y="110" width="21" height="9" rx="2" transform="rotate(180 116 110)" fill="#18181B" fill-opacity="0.8"/>
<rect x="115.75" y="109.75" width="20.5" height="8.5" rx="1.75" transform="rotate(180 115.75 109.75)" stroke="#27272A" stroke-opacity="0.8" stroke-width="0.5"/>
<text x="105.5" y="105.5" font-family="Noto Sans SC, Microsoft YaHei, sans-serif" font-size="5" font-weight="bold" fill="white" text-anchor="middle" dominant-baseline="central">A Hall</text>
<rect x="123" y="136" width="24" height="9" rx="2" transform="rotate(180 123 136)" fill="#18181B" fill-opacity="0.8"/>
<rect x="122.75" y="135.75" width="23.5" height="8.5" rx="1.75" transform="rotate(180 122.75 135.75)" stroke="#27272A" stroke-opacity="0.8" stroke-width="0.5"/>
<text x="111.0" y="131.5" font-family="Noto Sans SC, Microsoft YaHei, sans-serif" font-size="5" font-weight="bold" fill="white" text-anchor="middle" dominant-baseline="central">A Door</text>
<rect x="175" y="171" width="25" height="9" rx="2" transform="rotate(180 175 171)" fill="#18181B" fill-opacity="0.8"/>
<rect x="174.75" y="170.75" width="24.5" height="8.5" rx="1.75" transform="rotate(180 174.75 170.75)" stroke="#27272A" stroke-opacity="0.8" stroke-width="0.5"/>
<text x="162.5" y="166.5" font-family="Noto Sans SC, Microsoft YaHei, sans-serif" font-size="5" font-weight="bold" fill="white" text-anchor="middle" dominant-baseline="central">A Rope</text>
<rect x="299" y="283" width="22" height="9" rx="2" transform="rotate(180 299 283)" fill="#18181B" fill-opacity="0.8"/>
<rect x="298.75" y="282.75" width="21.5" height="8.5" rx="1.75" transform="rotate(180 298.75 282.75)" stroke="#27272A" stroke-opacity="0.8" stroke-width="0.5"/>
<text x="288.0" y="278.5" font-family="Noto Sans SC, Microsoft YaHei, sans-serif" font-size="5" font-weight="bold" fill="white" text-anchor="middle" dominant-baseline="central">B Link</text>
<rect x="228" y="276" width="37" height="9" rx="2" transform="rotate(180 228 276)" fill="#18181B" fill-opacity="0.8"/>
<rect x="227.75" y="275.75" width="36.5" height="8.5" rx="1.75" transform="rotate(180 227.75 275.75)" stroke="#27272A" stroke-opacity="0.8" stroke-width="0.5"/>
<text x="209.5" y="271.5" font-family="Noto Sans SC, Microsoft YaHei, sans-serif" font-size="5" font-weight="bold" fill="white" text-anchor="middle" dominant-baseline="central">ATK Spawn</text>
<rect x="299" y="349" width="23" height="9" rx="2" transform="rotate(180 299 349)" fill="#18181B" fill-opacity="0.8"/>
<rect x="298.75" y="348.75" width="22.5" height="8.5" rx="1.75" transform="rotate(180 298.75 348.75)" stroke="#27272A" stroke-opacity="0.8" stroke-width="0.5"/>
<text x="287.5" y="344.5" font-family="Noto Sans SC, Microsoft YaHei, sans-serif" font-size="5" font-weight="bold" fill="white" text-anchor="middle" dominant-baseline="central">Bench</text>
<rect x="238" y="428" width="51" height="9" rx="2" transform="rotate(180 238 428)" fill="#18181B" fill-opacity="0.8"/>
<rect x="237.75" y="427.75" width="50.5" height="8.5" rx="1.75" transform="rotate(180 237.75 427.75)" stroke="#27272A" stroke-opacity="0.8" stroke-width="0.5"/>
<text x="212.5" y="423.5" font-family="Noto Sans SC, Microsoft YaHei, sans-serif" font-size="5" font-weight="bold" fill="white" text-anchor="middle" dominant-baseline="central">ATK Side Bridge</text>
<rect x="139" y="428" width="24" height="9" rx="2" transform="rotate(180 139 428)" fill="#18181B" fill-opacity="0.8"/>
<rect x="138.75" y="427.75" width="23.5" height="8.5" rx="1.75" transform="rotate(180 138.75 427.75)" stroke="#27272A" stroke-opacity="0.8" stroke-width="0.5"/>
<text x="127.0" y="423.5" font-family="Noto Sans SC, Microsoft YaHei, sans-serif" font-size="5" font-weight="bold" fill="white" text-anchor="middle" dominant-baseline="central">A Gate</text>
<rect x="130" y="361" width="17" height="9" rx="2" transform="rotate(180 130 361)" fill="#18181B" fill-opacity="0.8"/>
<rect x="129.75" y="360.75" width="16.5" height="8.5" rx="1.75" transform="rotate(180 129.75 360.75)" stroke="#27272A" stroke-opacity="0.8" stroke-width="0.5"/>
<text x="121.5" y="356.5" font-family="Noto Sans SC, Microsoft YaHei, sans-serif" font-size="5.5" font-weight="bold" fill="white" text-anchor="middle" dominant-baseline="central">Dish</text>
<rect x="58" y="169" width="24" height="9" rx="2" transform="rotate(180 58 169)" fill="#18181B" fill-opacity="0.8"/>
<rect x="57.75" y="168.75" width="23.5" height="8.5" rx="1.75" transform="rotate(180 57.75 168.75)" stroke="#27272A" stroke-opacity="0.8" stroke-width="0.5"/>
<text x="46.0" y="164.5" font-family="Noto Sans SC, Microsoft YaHei, sans-serif" font-size="5" font-weight="bold" fill="white" text-anchor="middle" dominant-baseline="central">A Main</text>
<rect x="159" y="265" width="22" height="9" rx="2" transform="rotate(180 159 265)" fill="#18181B" fill-opacity="0.8"/>
<rect x="158.75" y="264.75" width="21.5" height="8.5" rx="1.75" transform="rotate(180 158.75 264.75)" stroke="#27272A" stroke-opacity="0.8" stroke-width="0.5"/>
<text x="148.0" y="260.5" font-family="Noto Sans SC, Microsoft YaHei, sans-serif" font-size="5" font-weight="bold" fill="white" text-anchor="middle" dominant-baseline="central">A Link</text>
<rect x="328" y="79" width="23" height="9" rx="2" transform="rotate(180 328 79)" fill="#18181B" fill-opacity="0.8"/>
<rect x="327.75" y="78.75" width="22.5" height="8.5" rx="1.75" transform="rotate(180 327.75 78.75)" stroke="#27272A" stroke-opacity="0.8" stroke-width="0.5"/>
<text x="316.5" y="74.5" font-family="Noto Sans SC, Microsoft YaHei, sans-serif" font-size="5" font-weight="bold" fill="white" text-anchor="middle" dominant-baseline="central">B Tree</text>
<rect x="360" y="146" width="29" height="9" rx="2" transform="rotate(180 360 146)" fill="#18181B" fill-opacity="0.8"/>
<rect x="359.75" y="145.75" width="28.5" height="8.5" rx="1.75" transform="rotate(180 359.75 145.75)" stroke="#27272A" stroke-opacity="0.8" stroke-width="0.5"/>
<text x="345.5" y="141.5" font-family="Noto Sans SC, Microsoft YaHei, sans-serif" font-size="5" font-weight="bold" fill="white" text-anchor="middle" dominant-baseline="central">B Tunnel</text>
<rect x="415" y="155" width="24" height="9" rx="2" transform="rotate(180 415 155)" fill="#18181B" fill-opacity="0.8"/>
<rect x="414.75" y="154.75" width="23.5" height="8.5" rx="1.75" transform="rotate(180 414.75 154.75)" stroke="#27272A" stroke-opacity="0.8" stroke-width="0.5"/>
<text x="403.0" y="150.5" font-family="Noto Sans SC, Microsoft YaHei, sans-serif" font-size="5" font-weight="bold" fill="white" text-anchor="middle" dominant-baseline="central">B Main</text>
<rect x="300" y="207" width="29" height="9" rx="2" transform="rotate(180 300 207)" fill="#18181B" fill-opacity="0.8"/>
<rect x="299.75" y="206.75" width="28.5" height="8.5" rx="1.75" transform="rotate(180 299.75 206.75)" stroke="#27272A" stroke-opacity="0.8" stroke-width="0.5"/>
<text x="285.5" y="202.5" font-family="Noto Sans SC, Microsoft YaHei, sans-serif" font-size="5" font-weight="bold" fill="white" text-anchor="middle" dominant-baseline="central">Canteen</text>
<rect x="338" y="238" width="33" height="9" rx="2" transform="rotate(180 338 238)" fill="#18181B" fill-opacity="0.8"/>
<rect x="337.75" y="237.75" width="32.5" height="8.5" rx="1.75" transform="rotate(180 337.75 237.75)" stroke="#27272A" stroke-opacity="0.8" stroke-width="0.5"/>
<text x="321.5" y="233.5" font-family="Noto Sans SC, Microsoft YaHei, sans-serif" font-size="5" font-weight="bold" fill="white" text-anchor="middle" dominant-baseline="central">Generator</text>
<rect x="443" y="270" width="28" height="9" rx="2" transform="rotate(180 443 270)" fill="#18181B" fill-opacity="0.8"/>
<rect x="442.75" y="269.75" width="27.5" height="8.5" rx="1.75" transform="rotate(180 442.75 269.75)" stroke="#27272A" stroke-opacity="0.8" stroke-width="0.5"/>
<text x="429.0" y="265.5" font-family="Noto Sans SC, Microsoft YaHei, sans-serif" font-size="5" font-weight="bold" fill="white" text-anchor="middle" dominant-baseline="central">B Tower</text>
<rect x="386" y="322" width="25" height="9" rx="2" transform="rotate(180 386 322)" fill="#18181B" fill-opacity="0.8"/>
<rect x="385.75" y="321.75" width="24.5" height="8.5" rx="1.75" transform="rotate(180 385.75 321.75)" stroke="#27272A" stroke-opacity="0.8" stroke-width="0.5"/>
<text x="373.5" y="317.5" font-family="Noto Sans SC, Microsoft YaHei, sans-serif" font-size="5" font-weight="bold" fill="white" text-anchor="middle" dominant-baseline="central">Arcade</text>
</svg>