<svg width="393" height="474" viewBox="0 0 393 474" fill="none" xmlns="http://www.w3.org/2000/svg">
<rect x="214" y="161" width="40" height="9" rx="2" transform="rotate(180 214 161)" fill="#18181B" fill-opacity="0.8"/>
<rect x="213.75" y="160.75" width="39.5" height="8.5" rx="1.75" transform="rotate(180 213.75 160.75)" stroke="#27272A" stroke-opacity="0.8" stroke-width="0.5"/>
<text x="194.0" y="156.5" font-family="Noto Sans SC, Microsoft YaHei, sans-serif" font-size="5.5" font-weight="bold" fill="white" text-anchor="middle" dominant-baseline="central">中路窗口</text>
<rect x="220" y="205" width="46" height="9" rx="2" transform="rotate(180 220 205)" fill="#18181B" fill-opacity="0.8"/>
<rect x="219.75" y="204.75" width="45.5" height="8.5" rx="1.75" transform="rotate(180 219.75 204.75)" stroke="#27272A" stroke-opacity="0.8" stroke-width="0.5"/>
<text x="197.0" y="200.5" font-family="Noto Sans SC, Microsoft YaHei, sans-serif" font-size="5.5" font-weight="bold" fill="white" text-anchor="middle" dominant-baseline="central">中路庭院</text>
<rect x="147" y="183" width="28" height="9" rx="2" transform="rotate(180 147 183)" fill="#18181B" fill-opacity="0.8"/>
<rect x="146.75" y="182.75" width="27.5" height="8.5" rx="1.75" transform="rotate(180 146.75 182.75)" stroke="#27272A" stroke-opacity="0.8" stroke-width="0.5"/>
<text x="133.0" y="178.5" font-family="Noto Sans SC, Microsoft YaHei, sans-serif" font-size="5" font-weight="bold" fill="white" text-anchor="middle" dominant-baseline="central">A入口大厅</text>
<rect x="68" y="205" width="25" height="9" rx="2" transform="rotate(180 68 205)" fill="#18181B" fill-opacity="0.8"/>
<rect x="67.75" y="204.75" width="24.5" height="8.5" rx="1.75" transform="rotate(180 67.75 204.75)" stroke="#27272A" stroke-opacity="0.8" stroke-width="0.5"/>
<text x="55.5" y="200.5" font-family="Noto Sans SC, Microsoft YaHei, sans-serif" font-size="6" font-weight="bold" fill="white" text-anchor="middle" dominant-baseline="central">A长路</text>
<rect x="152" y="246" width="28" height="9" rx="2" transform="rotate(180 152 246)" fill="#18181B" fill-opacity="0.8"/>
<rect x="151.75" y="245.75" width="27.5" height="8.5" rx="1.75" transform="rotate(180 151.75 245.75)" stroke="#27272A" stroke-opacity="0.8" stroke-width="0.5"/>
<text x="138.0" y="241.5" font-family="Noto Sans SC, Microsoft YaHei, sans-serif" font-size="5.5" font-weight="bold" fill="white" text-anchor="middle" dominant-baseline="central">A下水道</text>
<rect x="138" y="298" width="22" height="9" rx="2" transform="rotate(180 138 298)" fill="#18181B" fill-opacity="0.8"/>
<rect x="137.75" y="297.75" width="21.5" height="8.5" rx="1.75" transform="rotate(180 137.75 297.75)" stroke="#27272A" stroke-opacity="0.8" stroke-width="0.5"/>
<text x="127.0" y="293.5" font-family="Noto Sans SC, Microsoft YaHei, sans-serif" font-size="5.5" font-weight="bold" fill="white" text-anchor="middle" dominant-baseline="central">A连接道</text>
<rect x="207" y="339" width="24" height="9" rx="2" transform="rotate(180 207 339)" fill="#18181B" fill-opacity="0.8"/>
<rect x="206.75" y="338.75" width="23.5" height="8.5" rx="1.75" transform="rotate(180 206.75 338.75)" stroke="#27272A" stroke-opacity="0.8" stroke-width="0.5"/>
<text x="195.0" y="334.5" font-family="Noto Sans SC, Microsoft YaHei, sans-serif" font-size="6" font-weight="bold" fill="white" text-anchor="middle" dominant-baseline="central">B后方</text>
<rect x="40" y="331" width="28" height="9" rx="2" transform="rotate(180 40 331)" fill="#18181B" fill-opacity="0.8"/>
<rect x="39.75" y="330.75" width="27.5" height="8.5" rx="1.75" transform="rotate(180 39.75 330.75)" stroke="#27272A" stroke-opacity="0.8" stroke-width="0.5"/>
<text x="26.0" y="326.5" font-family="Noto Sans SC, Microsoft YaHei, sans-serif" font-size="6" font-weight="bold" fill="white" text-anchor="middle" dominant-baseline="central">A塔楼</text>
<rect x="272" y="246" width="31" height="9" rx="2" transform="rotate(180 272 246)" fill="#18181B" fill-opacity="0.8"/>
<rect x="271.75" y="245.75" width="30.5" height="8.5" rx="1.75" transform="rotate(180 271.75 245.75)" stroke="#27272A" stroke-opacity="0.8" stroke-width="0.5"/>
<text x="256.5" y="241.5" font-family="Noto Sans SC, Microsoft YaHei, sans-serif" font-size="6" font-weight="bold" fill="white" text-anchor="middle" dominant-baseline="central">C车库</text>
<rect x="276" y="283" width="34" height="9" rx="2" transform="rotate(180 276 283)" fill="#18181B" fill-opacity="0.8"/>
<rect x="275.75" y="282.75" width="33.5" height="8.5" rx="1.75" transform="rotate(180 275.75 282.75)" stroke="#27272A" stroke-opacity="0.8" stroke-width="0.5"/>
<text x="259.0" y="278.5" font-family="Noto Sans SC, Microsoft YaHei, sans-serif" font-size="6" font-weight="bold" fill="white" text-anchor="middle" dominant-baseline="central">C窗口</text>
<rect x="282" y="335" width="22" height="9" rx="2" transform="rotate(180 282 335)" fill="#18181B" fill-opacity="0.8"/>
<rect x="281.75" y="334.75" width="21.5" height="8.5" rx="1.75" transform="rotate(180 281.75 334.75)" stroke="#27272A" stroke-opacity="0.8" stroke-width="0.5"/>
<text x="271.0" y="330.5" font-family="Noto Sans SC, Microsoft YaHei, sans-serif" font-size="5.5" font-weight="bold" fill="white" text-anchor="middle" dominant-baseline="central">C连接道</text>
<rect x="171" y="408" width="37" height="9" rx="2" transform="rotate(180 171 408)" fill="#18181B" fill-opacity="0.8"/>
<rect x="170.75" y="407.75" width="36.5" height="8.5" rx="1.75" transform="rotate(180 170.75 407.75)" stroke="#27272A" stroke-opacity="0.8" stroke-width="0.5"/>
<text x="152.5" y="403.5" font-family="Noto Sans SC, Microsoft YaHei, sans-serif" font-size="5" font-weight="bold" fill="white" text-anchor="middle" dominant-baseline="central">防守方重生点</text>
<rect x="229" y="52" width="37" height="9" rx="2" transform="rotate(180 229 52)" fill="#18181B" fill-opacity="0.8"/>
<rect x="228.75" y="51.75" width="36.5" height="8.5" rx="1.75" transform="rotate(180 228.75 51.75)" stroke="#27272A" stroke-opacity="0.8" stroke-width="0.5"/>
<text x="210.5" y="47.5" font-family="Noto Sans SC, Microsoft YaHei, sans-serif" font-size="6" font-weight="bold" fill="white" text-anchor="middle" dominant-baseline="central">C长路</text>
<rect x="164" y="121" width="31" height="9" rx="2" transform="rotate(180 164 121)" fill="#18181B" fill-opacity="0.8"/>
<rect x="163.75" y="120.75" width="30.5" height="8.5" rx="1.75" transform="rotate(180 163.75 120.75)" stroke="#27272A" stroke-opacity="0.8" stroke-width="0.5"/>
<text x="148.5" y="116.5" font-family="Noto Sans SC, Microsoft YaHei, sans-serif" font-size="6" font-weight="bold" fill="white" text-anchor="middle" dominant-baseline="central">A花园</text>
<rect x="315" y="140" width="28" height="9" rx="2" transform="rotate(180 315 140)" fill="#18181B" fill-opacity="0.8"/>
<rect x="314.75" y="139.75" width="27.5" height="8.5" rx="1.75" transform="rotate(180 314.75 139.75)" stroke="#27272A" stroke-opacity="0.8" stroke-width="0.5"/>
<text x="301.0" y="135.5" font-family="Noto Sans SC, Microsoft YaHei, sans-serif" font-size="6" font-weight="bold" fill="white" text-anchor="middle" dominant-baseline="central">C大厅</text>
<rect x="365" y="157" width="25" height="9" rx="2" transform="rotate(180 365 157)" fill="#18181B" fill-opacity="0.8"/>
<rect x="364.75" y="156.75" width="24.5" height="8.5" rx="1.75" transform="rotate(180 364.75 156.75)" stroke="#27272A" stroke-opacity="0.8" stroke-width="0.5"/>
<text x="352.5" y="152.5" font-family="Noto Sans SC, Microsoft YaHei, sans-serif" font-size="6" font-weight="bold" fill="white" text-anchor="middle" dominant-baseline="central">C凹室</text>
<rect x="358" y="192" width="29" height="9" rx="2" transform="rotate(180 358 192)" fill="#18181B" fill-opacity="0.8"/>
<rect x="357.75" y="191.75" width="28.5" height="8.5" rx="1.75" transform="rotate(180 357.75 191.75)" stroke="#27272A" stroke-opacity="0.8" stroke-width="0.5"/>
<text x="343.5" y="187.5" font-family="Noto Sans SC, Microsoft YaHei, sans-serif" font-size="6" font-weight="bold" fill="white" text-anchor="middle" dominant-baseline="central">C凹室</text>
<rect x="274" y="196" width="34" height="9" rx="2" transform="rotate(180 274 196)" fill="#18181B" fill-opacity="0.8"/>
<rect x="273.75" y="195.75" width="33.5" height="8.5" rx="1.75" transform="rotate(180 273.75 195.75)" stroke="#27272A" stroke-opacity="0.8" stroke-width="0.5"/>
<text x="257.0" y="191.5" font-family="Noto Sans SC, Microsoft YaHei, sans-serif" font-size="6" font-weight="bold" fill="white" text-anchor="middle" dominant-baseline="central">中路门</text>
</svg>