<svg width="393" height="474" viewBox="0 0 393 474" fill="none" xmlns="http://www.w3.org/2000/svg">
<rect x="179" y="313" width="40" height="9" rx="2" fill="#18181B" fill-opacity="0.8"/>
<rect x="179.25" y="313.25" width="39.5" height="8.5" rx="1.75" stroke="#27272A" stroke-opacity="0.8" stroke-width="0.5"/>
<text x="199.0" y="317.5" font-family="Noto Sans SC, Microsoft YaHei, sans-serif" font-size="5.5" font-weight="bold" fill="white" text-anchor="middle" dominant-baseline="central">中路窗口</text>
<rect x="173" y="269" width="46" height="9" rx="2" fill="#18181B" fill-opacity="0.8"/>
<rect x="173.25" y="269.25" width="45.5" height="8.5" rx="1.75" stroke="#27272A" stroke-opacity="0.8" stroke-width="0.5"/>
<text x="196.0" y="273.5" font-family="Noto Sans SC, Microsoft YaHei, sans-serif" font-size="5.5" font-weight="bold" fill="white" text-anchor="middle" dominant-baseline="central">中路庭院</text>
<rect x="246" y="291" width="28" height="9" rx="2" fill="#18181B" fill-opacity="0.8"/>
<rect x="246.25" y="291.25" width="27.5" height="8.5" rx="1.75" stroke="#27272A" stroke-opacity="0.8" stroke-width="0.5"/>
<text x="260.0" y="295.5" font-family="Noto Sans SC, Microsoft YaHei, sans-serif" font-size="5" font-weight="bold" fill="white" text-anchor="middle" dominant-baseline="central">A入口大厅</text>
<rect x="325" y="269" width="25" height="9" rx="2" fill="#18181B" fill-opacity="0.8"/>
<rect x="325.25" y="269.25" width="24.5" height="8.5" rx="1.75" stroke="#27272A" stroke-opacity="0.8" stroke-width="0.5"/>
<text x="337.5" y="273.5" font-family="Noto Sans SC, Microsoft YaHei, sans-serif" font-size="6" font-weight="bold" fill="white" text-anchor="middle" dominant-baseline="central">A长路</text>
<rect x="241" y="228" width="28" height="9" rx="2" fill="#18181B" fill-opacity="0.8"/>
<rect x="241.25" y="228.25" width="27.5" height="8.5" rx="1.75" stroke="#27272A" stroke-opacity="0.8" stroke-width="0.5"/>
<text x="255.0" y="232.5" font-family="Noto Sans SC, Microsoft YaHei, sans-serif" font-size="5.5" font-weight="bold" fill="white" text-anchor="middle" dominant-baseline="central">A下水道</text>
<rect x="255" y="176" width="22" height="9" rx="2" fill="#18181B" fill-opacity="0.8"/>
<rect x="255.25" y="176.25" width="21.5" height="8.5" rx="1.75" stroke="#27272A" stroke-opacity="0.8" stroke-width="0.5"/>
<text x="266.0" y="180.5" font-family="Noto Sans SC, Microsoft YaHei, sans-serif" font-size="5.5" font-weight="bold" fill="white" text-anchor="middle" dominant-baseline="central">A连接道</text>
<rect x="186" y="135" width="24" height="9" rx="2" fill="#18181B" fill-opacity="0.8"/>
<rect x="186.25" y="135.25" width="23.5" height="8.5" rx="1.75" stroke="#27272A" stroke-opacity="0.8" stroke-width="0.5"/>
<text x="198.0" y="139.5" font-family="Noto Sans SC, Microsoft YaHei, sans-serif" font-size="6" font-weight="bold" fill="white" text-anchor="middle" dominant-baseline="central">B后方</text>
<rect x="353" y="143" width="28" height="9" rx="2" fill="#18181B" fill-opacity="0.8"/>
<rect x="353.25" y="143.25" width="27.5" height="8.5" rx="1.75" stroke="#27272A" stroke-opacity="0.8" stroke-width="0.5"/>
<text x="367.0" y="147.5" font-family="Noto Sans SC, Microsoft YaHei, sans-serif" font-size="6" font-weight="bold" fill="white" text-anchor="middle" dominant-baseline="central">A塔楼</text>
<rect x="121" y="228" width="31" height="9" rx="2" fill="#18181B" fill-opacity="0.8"/>
<rect x="121.25" y="228.25" width="30.5" height="8.5" rx="1.75" stroke="#27272A" stroke-opacity="0.8" stroke-width="0.5"/>
<text x="136.5" y="232.5" font-family="Noto Sans SC, Microsoft YaHei, sans-serif" font-size="6" font-weight="bold" fill="white" text-anchor="middle" dominant-baseline="central">C车库</text>
<rect x="117" y="191" width="34" height="9" rx="2" fill="#18181B" fill-opacity="0.8"/>
<rect x="117.25" y="191.25" width="33.5" height="8.5" rx="1.75" stroke="#27272A" stroke-opacity="0.8" stroke-width="0.5"/>
<text x="134.0" y="195.5" font-family="Noto Sans SC, Microsoft YaHei, sans-serif" font-size="6" font-weight="bold" fill="white" text-anchor="middle" dominant-baseline="central">C窗口</text>
<rect x="111" y="139" width="22" height="9" rx="2" fill="#18181B" fill-opacity="0.8"/>
<rect x="111.25" y="139.25" width="21.5" height="8.5" rx="1.75" stroke="#27272A" stroke-opacity="0.8" stroke-width="0.5"/>
<text x="122.0" y="143.5" font-family="Noto Sans SC, Microsoft YaHei, sans-serif" font-size="5.5" font-weight="bold" fill="white" text-anchor="middle" dominant-baseline="central">C连接道</text>
<rect x="222" y="66" width="37" height="9" rx="2" fill="#18181B" fill-opacity="0.8"/>
<rect x="222.25" y="66.25" width="36.5" height="8.5" rx="1.75" stroke="#27272A" stroke-opacity="0.8" stroke-width="0.5"/>
<text x="240.5" y="70.5" font-family="Noto Sans SC, Microsoft YaHei, sans-serif" font-size="5" font-weight="bold" fill="white" text-anchor="middle" dominant-baseline="central">防守方重生点</text>
<rect x="164" y="422" width="37" height="9" rx="2" fill="#18181B" fill-opacity="0.8"/>
<rect x="164.25" y="422.25" width="36.5" height="8.5" rx="1.75" stroke="#27272A" stroke-opacity="0.8" stroke-width="0.5"/>
<text x="182.5" y="426.5" font-family="Noto Sans SC, Microsoft YaHei, sans-serif" font-size="6" font-weight="bold" fill="white" text-anchor="middle" dominant-baseline="central">C长路</text>
<rect x="229" y="353" width="31" height="9" rx="2" fill="#18181B" fill-opacity="0.8"/>
<rect x="229.25" y="353.25" width="30.5" height="8.5" rx="1.75" stroke="#27272A" stroke-opacity="0.8" stroke-width="0.5"/>
<text x="244.5" y="357.5" font-family="Noto Sans SC, Microsoft YaHei, sans-serif" font-size="6" font-weight="bold" fill="white" text-anchor="middle" dominant-baseline="central">A花园</text>
<rect x="78" y="334" width="28" height="9" rx="2" fill="#18181B" fill-opacity="0.8"/>
<rect x="78.25" y="334.25" width="27.5" height="8.5" rx="1.75" stroke="#27272A" stroke-opacity="0.8" stroke-width="0.5"/>
<text x="92.0" y="338.5" font-family="Noto Sans SC, Microsoft YaHei, sans-serif" font-size="6" font-weight="bold" fill="white" text-anchor="middle" dominant-baseline="central">C大厅</text>
<rect x="28" y="317" width="25" height="9" rx="2" fill="#18181B" fill-opacity="0.8"/>
<rect x="28.25" y="317.25" width="24.5" height="8.5" rx="1.75" stroke="#27272A" stroke-opacity="0.8" stroke-width="0.5"/>
<text x="40.5" y="321.5" font-family="Noto Sans SC, Microsoft YaHei, sans-serif" font-size="6" font-weight="bold" fill="white" text-anchor="middle" dominant-baseline="central">C凹室</text>
<rect x="35" y="282" width="29" height="9" rx="2" fill="#18181B" fill-opacity="0.8"/>
<rect x="35.25" y="282.25" width="28.5" height="8.5" rx="1.75" stroke="#27272A" stroke-opacity="0.8" stroke-width="0.5"/>
<text x="49.5" y="286.5" font-family="Noto Sans SC, Microsoft YaHei, sans-serif" font-size="6" font-weight="bold" fill="white" text-anchor="middle" dominant-baseline="central">C凹室</text>
<rect x="119" y="278" width="34" height="9" rx="2" fill="#18181B" fill-opacity="0.8"/>
<rect x="119.25" y="278.25" width="33.5" height="8.5" rx="1.75" stroke="#27272A" stroke-opacity="0.8" stroke-width="0.5"/>
<text x="136.0" y="282.5" font-family="Noto Sans SC, Microsoft YaHei, sans-serif" font-size="6" font-weight="bold" fill="white" text-anchor="middle" dominant-baseline="central">中路门</text>
</svg>