<svg width="385" height="473" viewBox="0 0 385 473" fill="none" xmlns="http://www.w3.org/2000/svg">
<rect x="233" y="342" width="37" height="9" rx="2" fill="#18181B" fill-opacity="0.8"/>
<rect x="233.25" y="342.25" width="36.5" height="8.5" rx="1.75" stroke="#27272A" stroke-opacity="0.8" stroke-width="0.5"/>
<text x="251.5" y="346.5" font-family="Noto Sans SC, Microsoft YaHei, sans-serif" font-size="5" font-weight="bold" fill="white" text-anchor="middle" dominant-baseline="central">进攻方重生点</text>
<rect x="148" y="319" width="25" height="9" rx="2" fill="#18181B" fill-opacity="0.8"/>
<rect x="148.25" y="319.25" width="24.5" height="8.5" rx="1.75" stroke="#27272A" stroke-opacity="0.8" stroke-width="0.5"/>
<text x="160.5" y="323.5" font-family="Noto Sans SC, Microsoft YaHei, sans-serif" font-size="7" font-weight="bold" fill="white" text-anchor="middle" dominant-baseline="central">车库</text>
<rect x="126" y="271" width="22" height="9" rx="2" fill="#18181B" fill-opacity="0.8"/>
<rect x="126.25" y="271.25" width="21.5" height="8.5" rx="1.75" stroke="#27272A" stroke-opacity="0.8" stroke-width="0.5"/>
<text x="137.0" y="275.5" font-family="Noto Sans SC, Microsoft YaHei, sans-serif" font-size="6" font-weight="bold" fill="white" text-anchor="middle" dominant-baseline="central">绿色区</text>
<rect x="55" y="293" width="29" height="9" rx="2" fill="#18181B" fill-opacity="0.8"/>
<rect x="55.25" y="293.25" width="28.5" height="8.5" rx="1.75" stroke="#27272A" stroke-opacity="0.8" stroke-width="0.5"/>
<text x="69.5" y="297.5" font-family="Noto Sans SC, Microsoft YaHei, sans-serif" font-size="6" font-weight="bold" fill="white" text-anchor="middle" dominant-baseline="central">B凹室</text>
<rect x="24" y="271" width="23" height="9" rx="2" fill="#18181B" fill-opacity="0.8"/>
<rect x="24.25" y="271.25" width="22.5" height="8.5" rx="1.75" stroke="#27272A" stroke-opacity="0.8" stroke-width="0.5"/>
<text x="35.5" y="275.5" font-family="Noto Sans SC, Microsoft YaHei, sans-serif" font-size="6" font-weight="bold" fill="white" text-anchor="middle" dominant-baseline="central">黄色区</text>
<rect x="24" y="115" width="33" height="9" rx="2" fill="#18181B" fill-opacity="0.8"/>
<rect x="24.25" y="115.25" width="32.5" height="8.5" rx="1.75" stroke="#27272A" stroke-opacity="0.8" stroke-width="0.5"/>
<text x="40.5" y="119.5" font-family="Noto Sans SC, Microsoft YaHei, sans-serif" font-size="6" font-weight="bold" fill="white" text-anchor="middle" dominant-baseline="central">A雪人</text>
<rect x="87" y="106" width="19" height="9" rx="2" fill="#18181B" fill-opacity="0.8"/>
<rect x="87.25" y="106.25" width="18.5" height="8.5" rx="1.75" stroke="#27272A" stroke-opacity="0.8" stroke-width="0.5"/>
<text x="96.5" y="110.5" font-family="Noto Sans SC, Microsoft YaHei, sans-serif" font-size="7" font-weight="bold" fill="white" text-anchor="middle" dominant-baseline="central">后方</text>
<rect x="83" y="146" width="22" height="9" rx="2" fill="#18181B" fill-opacity="0.8"/>
<rect x="83.25" y="146.25" width="21.5" height="8.5" rx="1.75" stroke="#27272A" stroke-opacity="0.8" stroke-width="0.5"/>
<text x="94.0" y="150.5" font-family="Noto Sans SC, Microsoft YaHei, sans-serif" font-size="7" font-weight="bold" fill="white" text-anchor="middle" dominant-baseline="central">栅栏</text>
<rect x="126" y="160" width="15" height="9" rx="2" fill="#18181B" fill-opacity="0.8"/>
<rect x="126.25" y="160.25" width="14.5" height="8.5" rx="1.75" stroke="#27272A" stroke-opacity="0.8" stroke-width="0.5"/>
<text x="133.5" y="164.5" font-family="Noto Sans SC, Microsoft YaHei, sans-serif" font-size="7" font-weight="bold" fill="white" text-anchor="middle" dominant-baseline="central">大厅</text>
<rect x="162" y="151" width="27" height="9" rx="2" fill="#18181B" fill-opacity="0.8"/>
<rect x="162.25" y="151.25" width="26.5" height="8.5" rx="1.75" stroke="#27272A" stroke-opacity="0.8" stroke-width="0.5"/>
<text x="175.5" y="155.5" font-family="Noto Sans SC, Microsoft YaHei, sans-serif" font-size="5.5" font-weight="bold" fill="white" text-anchor="middle" dominant-baseline="central">中路厨房</text>
<rect x="150" y="186" width="32" height="9" rx="2" fill="#18181B" fill-opacity="0.8"/>
<rect x="150.25" y="186.25" width="31.5" height="8.5" rx="1.75" stroke="#27272A" stroke-opacity="0.8" stroke-width="0.5"/>
<text x="166.0" y="190.5" font-family="Noto Sans SC, Microsoft YaHei, sans-serif" font-size="7" font-weight="bold" fill="white" text-anchor="middle" dominant-baseline="central">雪堆</text>
<rect x="179" y="242" width="19" height="9" rx="2" fill="#18181B" fill-opacity="0.8"/>
<rect x="179.25" y="242.25" width="18.5" height="8.5" rx="1.75" stroke="#27272A" stroke-opacity="0.8" stroke-width="0.5"/>
<text x="188.5" y="246.5" font-family="Noto Sans SC, Microsoft YaHei, sans-serif" font-size="7" font-weight="bold" fill="white" text-anchor="middle" dominant-baseline="central">管道</text>
<rect x="148" y="214" width="26" height="9" rx="2" fill="#18181B" fill-opacity="0.8"/>
<rect x="148.25" y="214.25" width="25.5" height="8.5" rx="1.75" stroke="#27272A" stroke-opacity="0.8" stroke-width="0.5"/>
<text x="161.0" y="218.5" font-family="Noto Sans SC, Microsoft YaHei, sans-serif" font-size="6" font-weight="bold" fill="white" text-anchor="middle" dominant-baseline="central">橘色区</text>
<rect x="148" y="119" width="15" height="9" rx="2" fill="#18181B" fill-opacity="0.8"/>
<rect x="148.25" y="119.25" width="14.5" height="8.5" rx="1.75" stroke="#27272A" stroke-opacity="0.8" stroke-width="0.5"/>
<text x="155.5" y="123.5" font-family="Noto Sans SC, Microsoft YaHei, sans-serif" font-size="7" font-weight="bold" fill="white" text-anchor="middle" dominant-baseline="central">小屋</text>
<rect x="202" y="84" width="37" height="9" rx="2" fill="#18181B" fill-opacity="0.8"/>
<rect x="202.25" y="84.25" width="36.5" height="8.5" rx="1.75" stroke="#27272A" stroke-opacity="0.8" stroke-width="0.5"/>
<text x="220.5" y="88.5" font-family="Noto Sans SC, Microsoft YaHei, sans-serif" font-size="5" font-weight="bold" fill="white" text-anchor="middle" dominant-baseline="central">防守方重生点</text>
<rect x="204" y="161" width="33" height="9" rx="2" fill="#18181B" fill-opacity="0.8"/>
<rect x="204.25" y="161.25" width="32.5" height="8.5" rx="1.75" stroke="#27272A" stroke-opacity="0.8" stroke-width="0.5"/>
<text x="220.5" y="165.5" font-family="Noto Sans SC, Microsoft YaHei, sans-serif" font-size="5.5" font-weight="bold" fill="white" text-anchor="middle" dominant-baseline="central">中路锅炉</text>
<rect x="235" y="200" width="20" height="9" rx="2" fill="#18181B" fill-opacity="0.8"/>
<rect x="235.25" y="200.25" width="19.5" height="8.5" rx="1.75" stroke="#27272A" stroke-opacity="0.8" stroke-width="0.5"/>
<text x="245.0" y="204.5" font-family="Noto Sans SC, Microsoft YaHei, sans-serif" font-size="7" font-weight="bold" fill="white" text-anchor="middle" dominant-baseline="central">木板</text>
<rect x="209" y="273" width="29" height="9" rx="2" fill="#18181B" fill-opacity="0.8"/>
<rect x="209.25" y="273.25" width="28.5" height="8.5" rx="1.75" stroke="#27272A" stroke-opacity="0.8" stroke-width="0.5"/>
<text x="223.5" y="277.5" font-family="Noto Sans SC, Microsoft YaHei, sans-serif" font-size="5" font-weight="bold" fill="white" text-anchor="middle" dominant-baseline="central">中路蓝色区</text>
<rect x="264" y="159" width="25" height="9" rx="2" fill="#18181B" fill-opacity="0.8"/>
<rect x="264.25" y="159.25" width="24.5" height="8.5" rx="1.75" stroke="#27272A" stroke-opacity="0.8" stroke-width="0.5"/>
<text x="276.5" y="163.5" font-family="Noto Sans SC, Microsoft YaHei, sans-serif" font-size="7" font-weight="bold" fill="white" text-anchor="middle" dominant-baseline="central">屏幕</text>
<rect x="315" y="123" width="25" height="9" rx="2" fill="#18181B" fill-opacity="0.8"/>
<rect x="315.25" y="123.25" width="24.5" height="8.5" rx="1.75" stroke="#27272A" stroke-opacity="0.8" stroke-width="0.5"/>
<text x="327.5" y="127.5" font-family="Noto Sans SC, Microsoft YaHei, sans-serif" font-size="7" font-weight="bold" fill="white" text-anchor="middle" dominant-baseline="central">阁楼</text>
<rect x="318" y="205" width="20" height="9" rx="2" fill="#18181B" fill-opacity="0.8"/>
<rect x="318.25" y="205.25" width="19.5" height="8.5" rx="1.75" stroke="#27272A" stroke-opacity="0.8" stroke-width="0.5"/>
<text x="328.0" y="209.5" font-family="Noto Sans SC, Microsoft YaHei, sans-serif" font-size="6" font-weight="bold" fill="white" text-anchor="middle" dominant-baseline="central">A管道</text>
<rect x="322" y="235" width="18" height="9" rx="2" fill="#18181B" fill-opacity="0.8"/>
<rect x="322.25" y="235.25" width="17.5" height="8.5" rx="1.75" stroke="#27272A" stroke-opacity="0.8" stroke-width="0.5"/>
<text x="331.0" y="239.5" font-family="Noto Sans SC, Microsoft YaHei, sans-serif" font-size="7" font-weight="bold" fill="white" text-anchor="middle" dominant-baseline="central">鸟巢</text>
<rect x="335" y="280" width="16" height="9" rx="2" fill="#18181B" fill-opacity="0.8"/>
<rect x="335.25" y="280.25" width="15.5" height="8.5" rx="1.75" stroke="#27272A" stroke-opacity="0.8" stroke-width="0.5"/>
<text x="343.0" y="284.5" font-family="Noto Sans SC, Microsoft YaHei, sans-serif" font-size="6" font-weight="bold" fill="white" text-anchor="middle" dominant-baseline="central">传送带</text>
</svg>