<svg width="385" height="473" viewBox="0 0 385 473" fill="none" xmlns="http://www.w3.org/2000/svg">
<rect x="152" y="131" width="37" height="9" rx="2" transform="rotate(180 152 131)" fill="#18181B" fill-opacity="0.8"/>
<rect x="151.75" y="130.75" width="36.5" height="8.5" rx="1.75" transform="rotate(180 151.75 130.75)" stroke="#27272A" stroke-opacity="0.8" stroke-width="0.5"/>
<text x="133.5" y="126.5" font-family="Noto Sans SC, Microsoft YaHei, sans-serif" font-size="5" font-weight="bold" fill="white" text-anchor="middle" dominant-baseline="central">进攻方重生点</text>
<rect x="237" y="154" width="25" height="9" rx="2" transform="rotate(180 237 154)" fill="#18181B" fill-opacity="0.8"/>
<rect x="236.75" y="153.75" width="24.5" height="8.5" rx="1.75" transform="rotate(180 236.75 153.75)" stroke="#27272A" stroke-opacity="0.8" stroke-width="0.5"/>
<text x="224.5" y="149.5" font-family="Noto Sans SC, Microsoft YaHei, sans-serif" font-size="7" font-weight="bold" fill="white" text-anchor="middle" dominant-baseline="central">车库</text>
<rect x="259" y="202" width="22" height="9" rx="2" transform="rotate(180 259 202)" fill="#18181B" fill-opacity="0.8"/>
<rect x="258.75" y="201.75" width="21.5" height="8.5" rx="1.75" transform="rotate(180 258.75 201.75)" stroke="#27272A" stroke-opacity="0.8" stroke-width="0.5"/>
<text x="248.0" y="197.5" font-family="Noto Sans SC, Microsoft YaHei, sans-serif" font-size="6" font-weight="bold" fill="white" text-anchor="middle" dominant-baseline="central">绿色区</text>
<rect x="330" y="180" width="29" height="9" rx="2" transform="rotate(180 330 180)" fill="#18181B" fill-opacity="0.8"/>
<rect x="329.75" y="179.75" width="28.5" height="8.5" rx="1.75" transform="rotate(180 329.75 179.75)" stroke="#27272A" stroke-opacity="0.8" stroke-width="0.5"/>
<text x="315.5" y="175.5" font-family="Noto Sans SC, Microsoft YaHei, sans-serif" font-size="6" font-weight="bold" fill="white" text-anchor="middle" dominant-baseline="central">B凹室</text>
<rect x="361" y="202" width="23" height="9" rx="2" transform="rotate(180 361 202)" fill="#18181B" fill-opacity="0.8"/>
<rect x="360.75" y="201.75" width="22.5" height="8.5" rx="1.75" transform="rotate(180 360.75 201.75)" stroke="#27272A" stroke-opacity="0.8" stroke-width="0.5"/>
<text x="349.5" y="197.5" font-family="Noto Sans SC, Microsoft YaHei, sans-serif" font-size="6" font-weight="bold" fill="white" text-anchor="middle" dominant-baseline="central">黄色区</text>
<rect x="361" y="358" width="33" height="9" rx="2" transform="rotate(180 361 358)" fill="#18181B" fill-opacity="0.8"/>
<rect x="360.75" y="357.75" width="32.5" height="8.5" rx="1.75" transform="rotate(180 360.75 357.75)" stroke="#27272A" stroke-opacity="0.8" stroke-width="0.5"/>
<text x="344.5" y="353.5" font-family="Noto Sans SC, Microsoft YaHei, sans-serif" font-size="6" font-weight="bold" fill="white" text-anchor="middle" dominant-baseline="central">A雪人</text>
<rect x="298" y="367" width="19" height="9" rx="2" transform="rotate(180 298 367)" fill="#18181B" fill-opacity="0.8"/>
<rect x="297.75" y="366.75" width="18.5" height="8.5" rx="1.75" transform="rotate(180 297.75 366.75)" stroke="#27272A" stroke-opacity="0.8" stroke-width="0.5"/>
<text x="288.5" y="362.5" font-family="Noto Sans SC, Microsoft YaHei, sans-serif" font-size="7" font-weight="bold" fill="white" text-anchor="middle" dominant-baseline="central">后方</text>
<rect x="302" y="327" width="22" height="9" rx="2" transform="rotate(180 302 327)" fill="#18181B" fill-opacity="0.8"/>
<rect x="301.75" y="326.75" width="21.5" height="8.5" rx="1.75" transform="rotate(180 301.75 326.75)" stroke="#27272A" stroke-opacity="0.8" stroke-width="0.5"/>
<text x="291.0" y="322.5" font-family="Noto Sans SC, Microsoft YaHei, sans-serif" font-size="7" font-weight="bold" fill="white" text-anchor="middle" dominant-baseline="central">栅栏</text>
<rect x="259" y="313" width="15" height="9" rx="2" transform="rotate(180 259 313)" fill="#18181B" fill-opacity="0.8"/>
<rect x="258.75" y="312.75" width="14.5" height="8.5" rx="1.75" transform="rotate(180 258.75 312.75)" stroke="#27272A" stroke-opacity="0.8" stroke-width="0.5"/>
<text x="251.5" y="308.5" font-family="Noto Sans SC, Microsoft YaHei, sans-serif" font-size="7" font-weight="bold" fill="white" text-anchor="middle" dominant-baseline="central">大厅</text>
<rect x="223" y="322" width="27" height="9" rx="2" transform="rotate(180 223 322)" fill="#18181B" fill-opacity="0.8"/>
<rect x="222.75" y="321.75" width="26.5" height="8.5" rx="1.75" transform="rotate(180 222.75 321.75)" stroke="#27272A" stroke-opacity="0.8" stroke-width="0.5"/>
<text x="209.5" y="317.5" font-family="Noto Sans SC, Microsoft YaHei, sans-serif" font-size="5.5" font-weight="bold" fill="white" text-anchor="middle" dominant-baseline="central">中路厨房</text>
<rect x="235" y="287" width="32" height="9" rx="2" transform="rotate(180 235 287)" fill="#18181B" fill-opacity="0.8"/>
<rect x="234.75" y="286.75" width="31.5" height="8.5" rx="1.75" transform="rotate(180 234.75 286.75)" stroke="#27272A" stroke-opacity="0.8" stroke-width="0.5"/>
<text x="219.0" y="282.5" font-family="Noto Sans SC, Microsoft YaHei, sans-serif" font-size="7" font-weight="bold" fill="white" text-anchor="middle" dominant-baseline="central">雪堆</text>
<rect x="206" y="231" width="19" height="9" rx="2" transform="rotate(180 206 231)" fill="#18181B" fill-opacity="0.8"/>
<rect x="205.75" y="230.75" width="18.5" height="8.5" rx="1.75" transform="rotate(180 205.75 230.75)" stroke="#27272A" stroke-opacity="0.8" stroke-width="0.5"/>
<text x="196.5" y="226.5" font-family="Noto Sans SC, Microsoft YaHei, sans-serif" font-size="7" font-weight="bold" fill="white" text-anchor="middle" dominant-baseline="central">管道</text>
<rect x="237" y="259" width="26" height="9" rx="2" transform="rotate(180 237 259)" fill="#18181B" fill-opacity="0.8"/>
<rect x="236.75" y="258.75" width="25.5" height="8.5" rx="1.75" transform="rotate(180 236.75 258.75)" stroke="#27272A" stroke-opacity="0.8" stroke-width="0.5"/>
<text x="224.0" y="254.5" font-family="Noto Sans SC, Microsoft YaHei, sans-serif" font-size="6" font-weight="bold" fill="white" text-anchor="middle" dominant-baseline="central">橘色区</text>
<rect x="237" y="354" width="15" height="9" rx="2" transform="rotate(180 237 354)" fill="#18181B" fill-opacity="0.8"/>
<rect x="236.75" y="353.75" width="14.5" height="8.5" rx="1.75" transform="rotate(180 236.75 353.75)" stroke="#27272A" stroke-opacity="0.8" stroke-width="0.5"/>
<text x="229.5" y="349.5" font-family="Noto Sans SC, Microsoft YaHei, sans-serif" font-size="7" font-weight="bold" fill="white" text-anchor="middle" dominant-baseline="central">小屋</text>
<rect x="183" y="389" width="37" height="9" rx="2" transform="rotate(180 183 389)" fill="#18181B" fill-opacity="0.8"/>
<rect x="182.75" y="388.75" width="36.5" height="8.5" rx="1.75" transform="rotate(180 182.75 388.75)" stroke="#27272A" stroke-opacity="0.8" stroke-width="0.5"/>
<text x="164.5" y="384.5" font-family="Noto Sans SC, Microsoft YaHei, sans-serif" font-size="5" font-weight="bold" fill="white" text-anchor="middle" dominant-baseline="central">防守方重生点</text>
<rect x="181" y="312" width="33" height="9" rx="2" transform="rotate(180 181 312)" fill="#18181B" fill-opacity="0.8"/>
<rect x="180.75" y="311.75" width="32.5" height="8.5" rx="1.75" transform="rotate(180 180.75 311.75)" stroke="#27272A" stroke-opacity="0.8" stroke-width="0.5"/>
<text x="164.5" y="307.5" font-family="Noto Sans SC, Microsoft YaHei, sans-serif" font-size="5.5" font-weight="bold" fill="white" text-anchor="middle" dominant-baseline="central">中路锅炉</text>
<rect x="150" y="273" width="20" height="9" rx="2" transform="rotate(180 150 273)" fill="#18181B" fill-opacity="0.8"/>
<rect x="149.75" y="272.75" width="19.5" height="8.5" rx="1.75" transform="rotate(180 149.75 272.75)" stroke="#27272A" stroke-opacity="0.8" stroke-width="0.5"/>
<text x="140.0" y="268.5" font-family="Noto Sans SC, Microsoft YaHei, sans-serif" font-size="7" font-weight="bold" fill="white" text-anchor="middle" dominant-baseline="central">木板</text>
<rect x="176" y="200" width="29" height="9" rx="2" transform="rotate(180 176 200)" fill="#18181B" fill-opacity="0.8"/>
<rect x="175.75" y="199.75" width="28.5" height="8.5" rx="1.75" transform="rotate(180 175.75 199.75)" stroke="#27272A" stroke-opacity="0.8" stroke-width="0.5"/>
<text x="161.5" y="195.5" font-family="Noto Sans SC, Microsoft YaHei, sans-serif" font-size="5" font-weight="bold" fill="white" text-anchor="middle" dominant-baseline="central">中路蓝色区</text>
<rect x="121" y="314" width="25" height="9" rx="2" transform="rotate(180 121 314)" fill="#18181B" fill-opacity="0.8"/>
<rect x="120.75" y="313.75" width="24.5" height="8.5" rx="1.75" transform="rotate(180 120.75 313.75)" stroke="#27272A" stroke-opacity="0.8" stroke-width="0.5"/>
<text x="108.5" y="309.5" font-family="Noto Sans SC, Microsoft YaHei, sans-serif" font-size="7" font-weight="bold" fill="white" text-anchor="middle" dominant-baseline="central">屏幕</text>
<rect x="70" y="350" width="25" height="9" rx="2" transform="rotate(180 70 350)" fill="#18181B" fill-opacity="0.8"/>
<rect x="69.75" y="349.75" width="24.5" height="8.5" rx="1.75" transform="rotate(180 69.75 349.75)" stroke="#27272A" stroke-opacity="0.8" stroke-width="0.5"/>
<text x="57.5" y="345.5" font-family="Noto Sans SC, Microsoft YaHei, sans-serif" font-size="7" font-weight="bold" fill="white" text-anchor="middle" dominant-baseline="central">阁楼</text>
<rect x="67" y="268" width="20" height="9" rx="2" transform="rotate(180 67 268)" fill="#18181B" fill-opacity="0.8"/>
<rect x="66.75" y="267.75" width="19.5" height="8.5" rx="1.75" transform="rotate(180 66.75 267.75)" stroke="#27272A" stroke-opacity="0.8" stroke-width="0.5"/>
<text x="57.0" y="263.5" font-family="Noto Sans SC, Microsoft YaHei, sans-serif" font-size="6" font-weight="bold" fill="white" text-anchor="middle" dominant-baseline="central">A管道</text>
<rect x="63" y="238" width="18" height="9" rx="2" transform="rotate(180 63 238)" fill="#18181B" fill-opacity="0.8"/>
<rect x="62.75" y="237.75" width="17.5" height="8.5" rx="1.75" transform="rotate(180 62.75 237.75)" stroke="#27272A" stroke-opacity="0.8" stroke-width="0.5"/>
<text x="54.0" y="233.5" font-family="Noto Sans SC, Microsoft YaHei, sans-serif" font-size="7" font-weight="bold" fill="white" text-anchor="middle" dominant-baseline="central">鸟巢</text>
<rect x="50" y="193" width="16" height="9" rx="2" transform="rotate(180 50 193)" fill="#18181B" fill-opacity="0.8"/>
<rect x="49.75" y="192.75" width="15.5" height="8.5" rx="1.75" transform="rotate(180 49.75 192.75)" stroke="#27272A" stroke-opacity="0.8" stroke-width="0.5"/>
<text x="42.0" y="188.5" font-family="Noto Sans SC, Microsoft YaHei, sans-serif" font-size="6" font-weight="bold" fill="white" text-anchor="middle" dominant-baseline="central">传送带</text>
</svg>