<svg width="493" height="473" viewBox="0 0 493 473" fill="none" xmlns="http://www.w3.org/2000/svg">
<rect x="195.64" y="431" width="37" height="9" rx="2" transform="rotate(180 195.64 431)" fill="#18181B" fill-opacity="0.8"/>
<rect x="195.39" y="430.75" width="36.5" height="8.5" rx="1.75" transform="rotate(180 195.39 430.75)" stroke="#27272A" stroke-opacity="0.8" stroke-width="0.5"/>
<text x="177.14" y="426.5" font-family="Noto Sans SC, Microsoft YaHei, sans-serif" font-size="5" font-weight="bold" fill="white" text-anchor="middle" dominant-baseline="central">防守方重生点</text>
<rect x="84.64" y="395" width="21" height="9" rx="2" transform="rotate(180 84.64 395)" fill="#18181B" fill-opacity="0.8"/>
<rect x="84.39" y="394.75" width="20.5" height="8.5" rx="1.75" transform="rotate(180 84.39 394.75)" stroke="#27272A" stroke-opacity="0.8" stroke-width="0.5"/>
<text x="74.14" y="390.5" font-family="Noto Sans SC, Microsoft YaHei, sans-serif" font-size="6" font-weight="bold" fill="white" text-anchor="middle" dominant-baseline="central">A上层</text>
<rect x="22.64" y="395" width="18" height="9" rx="2" transform="rotate(180 22.64 395)" fill="#18181B" fill-opacity="0.8"/>
<rect x="22.39" y="394.75" width="17.5" height="8.5" rx="1.75" transform="rotate(180 22.39 394.75)" stroke="#27272A" stroke-opacity="0.8" stroke-width="0.5"/>
<text x="13.64" y="390.5" font-family="Noto Sans SC, Microsoft YaHei, sans-serif" font-size="6" font-weight="bold" fill="white" text-anchor="middle" dominant-baseline="central">A绳索</text>
<rect x="118.64" y="355" width="27" height="9" rx="2" transform="rotate(180 118.64 355)" fill="#18181B" fill-opacity="0.8"/>
<rect x="118.39" y="354.75" width="26.5" height="8.5" rx="1.75" transform="rotate(180 118.39 354.75)" stroke="#27272A" stroke-opacity="0.8" stroke-width="0.5"/>
<text x="105.14000000000001" y="350.5" font-family="Noto Sans SC, Microsoft YaHei, sans-serif" font-size="5.5" font-weight="bold" fill="white" text-anchor="middle" dominant-baseline="central">A高低差</text>
<rect x="49.64" y="342" width="15" height="9" rx="2" transform="rotate(180 49.64 342)" fill="#18181B" fill-opacity="0.8"/>
<rect x="49.39" y="341.75" width="14.5" height="8.5" rx="1.75" transform="rotate(180 49.39 341.75)" stroke="#27272A" stroke-opacity="0.8" stroke-width="0.5"/>
<text x="42.14" y="337.5" font-family="Noto Sans SC, Microsoft YaHei, sans-serif" font-size="6" font-weight="bold" fill="white" text-anchor="middle" dominant-baseline="central">A小屋</text>
<rect x="48.64" y="265" width="23" height="9" rx="2" transform="rotate(180 48.64 265)" fill="#18181B" fill-opacity="0.8"/>
<rect x="48.39" y="264.75" width="22.5" height="8.5" rx="1.75" transform="rotate(180 48.39 264.75)" stroke="#27272A" stroke-opacity="0.8" stroke-width="0.5"/>
<text x="37.14" y="260.5" font-family="Noto Sans SC, Microsoft YaHei, sans-serif" font-size="6" font-weight="bold" fill="white" text-anchor="middle" dominant-baseline="central">A树屋</text>
<rect x="114.64" y="250" width="24" height="9" rx="2" transform="rotate(180 114.64 250)" fill="#18181B" fill-opacity="0.8"/>
<rect x="114.39" y="249.75" width="23.5" height="8.5" rx="1.75" transform="rotate(180 114.39 249.75)" stroke="#27272A" stroke-opacity="0.8" stroke-width="0.5"/>
<text x="102.64" y="245.5" font-family="Noto Sans SC, Microsoft YaHei, sans-serif" font-size="6" font-weight="bold" fill="white" text-anchor="middle" dominant-baseline="central">A树根</text>
<rect x="83.64" y="188" width="24" height="9" rx="2" transform="rotate(180 83.64 188)" fill="#18181B" fill-opacity="0.8"/>
<rect x="83.39" y="187.75" width="23.5" height="8.5" rx="1.75" transform="rotate(180 83.39 187.75)" stroke="#27272A" stroke-opacity="0.8" stroke-width="0.5"/>
<text x="71.64" y="183.5" font-family="Noto Sans SC, Microsoft YaHei, sans-serif" font-size="7" font-weight="bold" fill="white" text-anchor="middle" dominant-baseline="central">石台</text>
<rect x="147.64" y="176" width="18" height="9" rx="2" transform="rotate(180 147.64 176)" fill="#18181B" fill-opacity="0.8"/>
<rect x="147.39" y="175.75" width="17.5" height="8.5" rx="1.75" transform="rotate(180 147.39 175.75)" stroke="#27272A" stroke-opacity="0.8" stroke-width="0.5"/>
<text x="138.64" y="171.5" font-family="Noto Sans SC, Microsoft YaHei, sans-serif" font-size="5.5" font-weight="bold" fill="white" text-anchor="middle" dominant-baseline="central">C碎石路</text>
<rect x="308.64" y="375" width="29" height="9" rx="2" transform="rotate(180 308.64 375)" fill="#18181B" fill-opacity="0.8"/>
<rect x="308.39" y="374.75" width="28.5" height="8.5" rx="1.75" transform="rotate(180 308.39 374.75)" stroke="#27272A" stroke-opacity="0.8" stroke-width="0.5"/>
<text x="294.14" y="370.5" font-family="Noto Sans SC, Microsoft YaHei, sans-serif" font-size="6" font-weight="bold" fill="white" text-anchor="middle" dominant-baseline="central">A主路</text>
<rect x="188.64" y="259" width="22" height="9" rx="2" transform="rotate(180 188.64 259)" fill="#18181B" fill-opacity="0.8"/>
<rect x="188.39" y="258.75" width="21.5" height="8.5" rx="1.75" transform="rotate(180 188.39 258.75)" stroke="#27272A" stroke-opacity="0.8" stroke-width="0.5"/>
<text x="177.64" y="254.5" font-family="Noto Sans SC, Microsoft YaHei, sans-serif" font-size="5" font-weight="bold" fill="white" text-anchor="middle" dominant-baseline="central">A入口大厅</text>
<rect x="233.64" y="319" width="28" height="9" rx="2" transform="rotate(180 233.64 319)" fill="#18181B" fill-opacity="0.8"/>
<rect x="233.39" y="318.75" width="27.5" height="8.5" rx="1.75" transform="rotate(180 233.39 318.75)" stroke="#27272A" stroke-opacity="0.8" stroke-width="0.5"/>
<text x="219.64" y="314.5" font-family="Noto Sans SC, Microsoft YaHei, sans-serif" font-size="6" font-weight="bold" fill="white" text-anchor="middle" dominant-baseline="central">B主路</text>
<rect x="256.64" y="145" width="27" height="9" rx="2" transform="rotate(180 256.64 145)" fill="#18181B" fill-opacity="0.8"/>
<rect x="256.39" y="144.75" width="26.5" height="8.5" rx="1.75" transform="rotate(180 256.39 144.75)" stroke="#27272A" stroke-opacity="0.8" stroke-width="0.5"/>
<text x="243.14" y="140.5" font-family="Noto Sans SC, Microsoft YaHei, sans-serif" font-size="7" font-weight="bold" fill="white" text-anchor="middle" dominant-baseline="central">走廊</text>
<rect x="297.64" y="209" width="24" height="9" rx="2" transform="rotate(180 297.64 209)" fill="#18181B" fill-opacity="0.8"/>
<rect x="297.39" y="208.75" width="23.5" height="8.5" rx="1.75" transform="rotate(180 297.39 208.75)" stroke="#27272A" stroke-opacity="0.8" stroke-width="0.5"/>
<text x="285.64" y="204.5" font-family="Noto Sans SC, Microsoft YaHei, sans-serif" font-size="6" font-weight="bold" fill="white" text-anchor="middle" dominant-baseline="central">B上层</text>
<rect x="431.64" y="342" width="15" height="9" rx="2" transform="rotate(180 431.64 342)" fill="#18181B" fill-opacity="0.8"/>
<rect x="431.39" y="341.75" width="14.5" height="8.5" rx="1.75" transform="rotate(180 431.39 341.75)" stroke="#27272A" stroke-opacity="0.8" stroke-width="0.5"/>
<text x="424.14" y="337.5" font-family="Noto Sans SC, Microsoft YaHei, sans-serif" font-size="5.5" font-weight="bold" fill="white" text-anchor="middle" dominant-baseline="central">B柱子区</text>
<rect x="340.64" y="314" width="22" height="9" rx="2" transform="rotate(180 340.64 314)" fill="#18181B" fill-opacity="0.8"/>
<rect x="340.39" y="313.75" width="21.5" height="8.5" rx="1.75" transform="rotate(180 340.39 313.75)" stroke="#27272A" stroke-opacity="0.8" stroke-width="0.5"/>
<text x="329.64" y="309.5" font-family="Noto Sans SC, Microsoft YaHei, sans-serif" font-size="6" font-weight="bold" fill="white" text-anchor="middle" dominant-baseline="central">C瀑布</text>
<rect x="391.64" y="269" width="30" height="9" rx="2" transform="rotate(180 391.64 269)" fill="#18181B" fill-opacity="0.8"/>
<rect x="391.39" y="268.75" width="29.5" height="8.5" rx="1.75" transform="rotate(180 391.39 268.75)" stroke="#27272A" stroke-opacity="0.8" stroke-width="0.5"/>
<text x="376.64" y="264.5" font-family="Noto Sans SC, Microsoft YaHei, sans-serif" font-size="7" font-weight="bold" fill="white" text-anchor="middle" dominant-baseline="central">弯道</text>
<rect x="491.64" y="237" width="19" height="9" rx="2" transform="rotate(180 491.64 237)" fill="#18181B" fill-opacity="0.8"/>
<rect x="491.39" y="236.75" width="18.5" height="8.5" rx="1.75" transform="rotate(180 491.39 236.75)" stroke="#27272A" stroke-opacity="0.8" stroke-width="0.5"/>
<text x="482.14" y="232.5" font-family="Noto Sans SC, Microsoft YaHei, sans-serif" font-size="6" font-weight="bold" fill="white" text-anchor="middle" dominant-baseline="central">C主路</text>
<rect x="418.64" y="221" width="24" height="9" rx="2" transform="rotate(180 418.64 221)" fill="#18181B" fill-opacity="0.8"/>
<rect x="418.39" y="220.75" width="23.5" height="8.5" rx="1.75" transform="rotate(180 418.39 220.75)" stroke="#27272A" stroke-opacity="0.8" stroke-width="0.5"/>
<text x="406.64" y="216.5" font-family="Noto Sans SC, Microsoft YaHei, sans-serif" font-size="6" font-weight="bold" fill="white" text-anchor="middle" dominant-baseline="central">C土堆</text>
<rect x="378.64" y="178" width="24" height="9" rx="2" transform="rotate(180 378.64 178)" fill="#18181B" fill-opacity="0.8"/>
<rect x="378.39" y="177.75" width="23.5" height="8.5" rx="1.75" transform="rotate(180 378.39 177.75)" stroke="#27272A" stroke-opacity="0.8" stroke-width="0.5"/>
<text x="366.64" y="173.5" font-family="Noto Sans SC, Microsoft YaHei, sans-serif" font-size="5.5" font-weight="bold" fill="white" text-anchor="middle" dominant-baseline="central">C连接道</text>
<rect x="249.64" y="63" width="37" height="9" rx="2" transform="rotate(180 249.64 63)" fill="#18181B" fill-opacity="0.8"/>
<rect x="249.39" y="62.75" width="36.5" height="8.5" rx="1.75" transform="rotate(180 249.39 62.75)" stroke="#27272A" stroke-opacity="0.8" stroke-width="0.5"/>
<text x="231.14" y="58.5" font-family="Noto Sans SC, Microsoft YaHei, sans-serif" font-size="5" font-weight="bold" fill="white" text-anchor="middle" dominant-baseline="central">A/C旋转门</text>
<rect x="162.64" y="115" width="28" height="9" rx="2" transform="rotate(180 162.64 115)" fill="#18181B" fill-opacity="0.8"/>
<rect x="162.39" y="114.75" width="27.5" height="8.5" rx="1.75" transform="rotate(180 162.39 114.75)" stroke="#27272A" stroke-opacity="0.8" stroke-width="0.5"/>
<text x="148.64" y="110.5" font-family="Noto Sans SC, Microsoft YaHei, sans-serif" font-size="6" font-weight="bold" fill="white" text-anchor="middle" dominant-baseline="central">C大厅</text>
<rect x="354.64" y="102" width="28" height="9" rx="2" transform="rotate(180 354.64 102)" fill="#18181B" fill-opacity="0.8"/>
<rect x="354.39" y="101.75" width="27.5" height="8.5" rx="1.75" transform="rotate(180 354.39 101.75)" stroke="#27272A" stroke-opacity="0.8" stroke-width="0.5"/>
<text x="340.64" y="97.5" font-family="Noto Sans SC, Microsoft YaHei, sans-serif" font-size="5" font-weight="bold" fill="white" text-anchor="middle" dominant-baseline="central">进攻方重生点</text>
</svg>