<svg width="493" height="473" viewBox="0 0 493 473" fill="none" xmlns="http://www.w3.org/2000/svg">
<rect x="296.5" y="42" width="37" height="9" rx="2" fill="#18181B" fill-opacity="0.8"/>
<rect x="296.75" y="42.25" width="36.5" height="8.5" rx="1.75" stroke="#27272A" stroke-opacity="0.8" stroke-width="0.5"/>
<text x="315.0" y="46.5" font-family="Noto Sans SC, Microsoft YaHei, sans-serif" font-size="5" font-weight="bold" fill="white" text-anchor="middle" dominant-baseline="central">防守方重生点</text>
<rect x="407.5" y="78" width="21" height="9" rx="2" fill="#18181B" fill-opacity="0.8"/>
<rect x="407.75" y="78.25" width="20.5" height="8.5" rx="1.75" stroke="#27272A" stroke-opacity="0.8" stroke-width="0.5"/>
<text x="418.0" y="82.5" font-family="Noto Sans SC, Microsoft YaHei, sans-serif" font-size="6" font-weight="bold" fill="white" text-anchor="middle" dominant-baseline="central">A上层</text>
<rect x="469.5" y="78" width="18" height="9" rx="2" fill="#18181B" fill-opacity="0.8"/>
<rect x="469.75" y="78.25" width="17.5" height="8.5" rx="1.75" stroke="#27272A" stroke-opacity="0.8" stroke-width="0.5"/>
<text x="478.5" y="82.5" font-family="Noto Sans SC, Microsoft YaHei, sans-serif" font-size="6" font-weight="bold" fill="white" text-anchor="middle" dominant-baseline="central">A绳索</text>
<rect x="373.5" y="118" width="27" height="9" rx="2" fill="#18181B" fill-opacity="0.8"/>
<rect x="373.75" y="118.25" width="26.5" height="8.5" rx="1.75" stroke="#27272A" stroke-opacity="0.8" stroke-width="0.5"/>
<text x="387.0" y="122.5" font-family="Noto Sans SC, Microsoft YaHei, sans-serif" font-size="5.5" font-weight="bold" fill="white" text-anchor="middle" dominant-baseline="central">A高低差</text>
<rect x="442.5" y="131" width="15" height="9" rx="2" fill="#18181B" fill-opacity="0.8"/>
<rect x="442.75" y="131.25" width="14.5" height="8.5" rx="1.75" stroke="#27272A" stroke-opacity="0.8" stroke-width="0.5"/>
<text x="450.0" y="135.5" font-family="Noto Sans SC, Microsoft YaHei, sans-serif" font-size="6" font-weight="bold" fill="white" text-anchor="middle" dominant-baseline="central">A小屋</text>
<rect x="443.5" y="208" width="23" height="9" rx="2" fill="#18181B" fill-opacity="0.8"/>
<rect x="443.75" y="208.25" width="22.5" height="8.5" rx="1.75" stroke="#27272A" stroke-opacity="0.8" stroke-width="0.5"/>
<text x="455.0" y="212.5" font-family="Noto Sans SC, Microsoft YaHei, sans-serif" font-size="6" font-weight="bold" fill="white" text-anchor="middle" dominant-baseline="central">A树屋</text>
<rect x="377.5" y="223" width="24" height="9" rx="2" fill="#18181B" fill-opacity="0.8"/>
<rect x="377.75" y="223.25" width="23.5" height="8.5" rx="1.75" stroke="#27272A" stroke-opacity="0.8" stroke-width="0.5"/>
<text x="389.5" y="227.5" font-family="Noto Sans SC, Microsoft YaHei, sans-serif" font-size="6" font-weight="bold" fill="white" text-anchor="middle" dominant-baseline="central">A树根</text>
<rect x="408.5" y="285" width="24" height="9" rx="2" fill="#18181B" fill-opacity="0.8"/>
<rect x="408.75" y="285.25" width="23.5" height="8.5" rx="1.75" stroke="#27272A" stroke-opacity="0.8" stroke-width="0.5"/>
<text x="420.5" y="289.5" font-family="Noto Sans SC, Microsoft YaHei, sans-serif" font-size="7" font-weight="bold" fill="white" text-anchor="middle" dominant-baseline="central">石台</text>
<rect x="344.5" y="297" width="18" height="9" rx="2" fill="#18181B" fill-opacity="0.8"/>
<rect x="344.75" y="297.25" width="17.5" height="8.5" rx="1.75" stroke="#27272A" stroke-opacity="0.8" stroke-width="0.5"/>
<text x="353.5" y="301.5" font-family="Noto Sans SC, Microsoft YaHei, sans-serif" font-size="5.5" font-weight="bold" fill="white" text-anchor="middle" dominant-baseline="central">C碎石路</text>
<rect x="183.5" y="98" width="29" height="9" rx="2" fill="#18181B" fill-opacity="0.8"/>
<rect x="183.75" y="98.25" width="28.5" height="8.5" rx="1.75" stroke="#27272A" stroke-opacity="0.8" stroke-width="0.5"/>
<text x="198.0" y="102.5" font-family="Noto Sans SC, Microsoft YaHei, sans-serif" font-size="6" font-weight="bold" fill="white" text-anchor="middle" dominant-baseline="central">A主路</text>
<rect x="303.5" y="214" width="22" height="9" rx="2" fill="#18181B" fill-opacity="0.8"/>
<rect x="303.75" y="214.25" width="21.5" height="8.5" rx="1.75" stroke="#27272A" stroke-opacity="0.8" stroke-width="0.5"/>
<text x="314.5" y="218.5" font-family="Noto Sans SC, Microsoft YaHei, sans-serif" font-size="5" font-weight="bold" fill="white" text-anchor="middle" dominant-baseline="central">A入口大厅</text>
<rect x="258.5" y="154" width="28" height="9" rx="2" fill="#18181B" fill-opacity="0.8"/>
<rect x="258.75" y="154.25" width="27.5" height="8.5" rx="1.75" stroke="#27272A" stroke-opacity="0.8" stroke-width="0.5"/>
<text x="272.5" y="158.5" font-family="Noto Sans SC, Microsoft YaHei, sans-serif" font-size="6" font-weight="bold" fill="white" text-anchor="middle" dominant-baseline="central">B主路</text>
<rect x="235.5" y="328" width="27" height="9" rx="2" fill="#18181B" fill-opacity="0.8"/>
<rect x="235.75" y="328.25" width="26.5" height="8.5" rx="1.75" stroke="#27272A" stroke-opacity="0.8" stroke-width="0.5"/>
<text x="249.0" y="332.5" font-family="Noto Sans SC, Microsoft YaHei, sans-serif" font-size="7" font-weight="bold" fill="white" text-anchor="middle" dominant-baseline="central">走廊</text>
<rect x="194.5" y="264" width="24" height="9" rx="2" fill="#18181B" fill-opacity="0.8"/>
<rect x="194.75" y="264.25" width="23.5" height="8.5" rx="1.75" stroke="#27272A" stroke-opacity="0.8" stroke-width="0.5"/>
<text x="206.5" y="268.5" font-family="Noto Sans SC, Microsoft YaHei, sans-serif" font-size="6" font-weight="bold" fill="white" text-anchor="middle" dominant-baseline="central">B上层</text>
<rect x="60.5" y="131" width="15" height="9" rx="2" fill="#18181B" fill-opacity="0.8"/>
<rect x="60.75" y="131.25" width="14.5" height="8.5" rx="1.75" stroke="#27272A" stroke-opacity="0.8" stroke-width="0.5"/>
<text x="68.0" y="135.5" font-family="Noto Sans SC, Microsoft YaHei, sans-serif" font-size="5.5" font-weight="bold" fill="white" text-anchor="middle" dominant-baseline="central">B柱子区</text>
<rect x="151.5" y="159" width="22" height="9" rx="2" fill="#18181B" fill-opacity="0.8"/>
<rect x="151.75" y="159.25" width="21.5" height="8.5" rx="1.75" stroke="#27272A" stroke-opacity="0.8" stroke-width="0.5"/>
<text x="162.5" y="163.5" font-family="Noto Sans SC, Microsoft YaHei, sans-serif" font-size="6" font-weight="bold" fill="white" text-anchor="middle" dominant-baseline="central">C瀑布</text>
<rect x="100.5" y="204" width="30" height="9" rx="2" fill="#18181B" fill-opacity="0.8"/>
<rect x="100.75" y="204.25" width="29.5" height="8.5" rx="1.75" stroke="#27272A" stroke-opacity="0.8" stroke-width="0.5"/>
<text x="115.5" y="208.5" font-family="Noto Sans SC, Microsoft YaHei, sans-serif" font-size="7" font-weight="bold" fill="white" text-anchor="middle" dominant-baseline="central">弯道</text>
<rect x="0.5" y="236" width="19" height="9" rx="2" fill="#18181B" fill-opacity="0.8"/>
<rect x="0.75" y="236.25" width="18.5" height="8.5" rx="1.75" stroke="#27272A" stroke-opacity="0.8" stroke-width="0.5"/>
<text x="10.0" y="240.5" font-family="Noto Sans SC, Microsoft YaHei, sans-serif" font-size="6" font-weight="bold" fill="white" text-anchor="middle" dominant-baseline="central">C主路</text>
<rect x="73.5" y="252" width="24" height="9" rx="2" fill="#18181B" fill-opacity="0.8"/>
<rect x="73.75" y="252.25" width="23.5" height="8.5" rx="1.75" stroke="#27272A" stroke-opacity="0.8" stroke-width="0.5"/>
<text x="85.5" y="256.5" font-family="Noto Sans SC, Microsoft YaHei, sans-serif" font-size="6" font-weight="bold" fill="white" text-anchor="middle" dominant-baseline="central">C土堆</text>
<rect x="113.5" y="295" width="24" height="9" rx="2" fill="#18181B" fill-opacity="0.8"/>
<rect x="113.75" y="295.25" width="23.5" height="8.5" rx="1.75" stroke="#27272A" stroke-opacity="0.8" stroke-width="0.5"/>
<text x="125.5" y="299.5" font-family="Noto Sans SC, Microsoft YaHei, sans-serif" font-size="5.5" font-weight="bold" fill="white" text-anchor="middle" dominant-baseline="central">C连接道</text>
<rect x="242.5" y="410" width="37" height="9" rx="2" fill="#18181B" fill-opacity="0.8"/>
<rect x="242.75" y="410.25" width="36.5" height="8.5" rx="1.75" stroke="#27272A" stroke-opacity="0.8" stroke-width="0.5"/>
<text x="261.0" y="414.5" font-family="Noto Sans SC, Microsoft YaHei, sans-serif" font-size="5" font-weight="bold" fill="white" text-anchor="middle" dominant-baseline="central">A/C旋转门</text>
<rect x="329.5" y="358" width="28" height="9" rx="2" fill="#18181B" fill-opacity="0.8"/>
<rect x="329.75" y="358.25" width="27.5" height="8.5" rx="1.75" stroke="#27272A" stroke-opacity="0.8" stroke-width="0.5"/>
<text x="343.5" y="362.5" font-family="Noto Sans SC, Microsoft YaHei, sans-serif" font-size="6" font-weight="bold" fill="white" text-anchor="middle" dominant-baseline="central">C大厅</text>
<rect x="137.5" y="371" width="28" height="9" rx="2" fill="#18181B" fill-opacity="0.8"/>
<rect x="137.75" y="371.25" width="27.5" height="8.5" rx="1.75" stroke="#27272A" stroke-opacity="0.8" stroke-width="0.5"/>
<text x="151.5" y="375.5" font-family="Noto Sans SC, Microsoft YaHei, sans-serif" font-size="5" font-weight="bold" fill="white" text-anchor="middle" dominant-baseline="central">进攻方重生点</text>
</svg>