<svg width="468" height="473" viewBox="0 0 468 473" fill="none" xmlns="http://www.w3.org/2000/svg">
<rect x="346.78" y="115" width="23" height="9" rx="2" transform="rotate(180 346.78 115)" fill="#18181B" fill-opacity="0.8"/>
<rect x="346.53" y="114.75" width="22.5" height="8.5" rx="1.75" transform="rotate(180 346.53 114.75)" stroke="#27272A" stroke-opacity="0.8" stroke-width="0.5"/>
<text x="335.28" y="110.5" font-family="Noto Sans SC, Microsoft YaHei, sans-serif" font-size="7" font-weight="bold" fill="white" text-anchor="middle" dominant-baseline="central">夜店</text>
<rect x="235.78" y="53" width="37" height="9" rx="2" transform="rotate(180 235.78 53)" fill="#18181B" fill-opacity="0.8"/>
<rect x="235.53" y="52.75" width="36.5" height="8.5" rx="1.75" transform="rotate(180 235.53 52.75)" stroke="#27272A" stroke-opacity="0.8" stroke-width="0.5"/>
<text x="217.28" y="48.5" font-family="Noto Sans SC, Microsoft YaHei, sans-serif" font-size="7" font-weight="bold" fill="white" text-anchor="middle" dominant-baseline="central">票亭</text>
<rect x="47.78" y="240" width="24" height="9" rx="2" transform="rotate(180 47.78 240)" fill="#18181B" fill-opacity="0.8"/>
<rect x="47.53" y="239.75" width="23.5" height="8.5" rx="1.75" transform="rotate(180 47.53 239.75)" stroke="#27272A" stroke-opacity="0.8" stroke-width="0.5"/>
<text x="35.78" y="235.5" font-family="Noto Sans SC, Microsoft YaHei, sans-serif" font-size="7" font-weight="bold" fill="white" text-anchor="middle" dominant-baseline="central">地铁</text>
<rect x="46.78" y="332" width="26" height="9" rx="2" transform="rotate(180 46.78 332)" fill="#18181B" fill-opacity="0.8"/>
<rect x="46.53" y="331.75" width="25.5" height="8.5" rx="1.75" transform="rotate(180 46.53 331.75)" stroke="#27272A" stroke-opacity="0.8" stroke-width="0.5"/>
<text x="33.78" y="327.5" font-family="Noto Sans SC, Microsoft YaHei, sans-serif" font-size="7" font-weight="bold" fill="white" text-anchor="middle" dominant-baseline="central">屏幕</text>
<rect x="84.78" y="386" width="23" height="9" rx="2" transform="rotate(180 84.78 386)" fill="#18181B" fill-opacity="0.8"/>
<rect x="84.53" y="385.75" width="22.5" height="8.5" rx="1.75" transform="rotate(180 84.53 385.75)" stroke="#27272A" stroke-opacity="0.8" stroke-width="0.5"/>
<text x="73.28" y="381.5" font-family="Noto Sans SC, Microsoft YaHei, sans-serif" font-size="7" font-weight="bold" fill="white" text-anchor="middle" dominant-baseline="central">隧道</text>
<rect x="125.78" y="367" width="27" height="9" rx="2" transform="rotate(180 125.78 367)" fill="#18181B" fill-opacity="0.8"/>
<rect x="125.53" y="366.75" width="26.5" height="8.5" rx="1.75" transform="rotate(180 125.53 366.75)" stroke="#27272A" stroke-opacity="0.8" stroke-width="0.5"/>
<text x="112.28" y="362.5" font-family="Noto Sans SC, Microsoft YaHei, sans-serif" font-size="7" font-weight="bold" fill="white" text-anchor="middle" dominant-baseline="central">密道</text>
<rect x="219.78" y="434" width="37" height="9" rx="2" transform="rotate(180 219.78 434)" fill="#18181B" fill-opacity="0.8"/>
<rect x="219.53" y="433.75" width="36.5" height="8.5" rx="1.75" transform="rotate(180 219.53 433.75)" stroke="#27272A" stroke-opacity="0.8" stroke-width="0.5"/>
<text x="201.28" y="429.5" font-family="Noto Sans SC, Microsoft YaHei, sans-serif" font-size="6" font-weight="bold" fill="white" text-anchor="middle" dominant-baseline="central">防空洞</text>
<rect x="269.78" y="346" width="28" height="9" rx="2" transform="rotate(180 269.78 346)" fill="#18181B" fill-opacity="0.8"/>
<rect x="269.53" y="345.75" width="27.5" height="8.5" rx="1.75" transform="rotate(180 269.53 345.75)" stroke="#27272A" stroke-opacity="0.8" stroke-width="0.5"/>
<text x="255.77999999999997" y="341.5" font-family="Noto Sans SC, Microsoft YaHei, sans-serif" font-size="7" font-weight="bold" fill="white" text-anchor="middle" dominant-baseline="central">花店</text>
<rect x="322.78" y="308" width="24" height="9" rx="2" transform="rotate(180 322.78 308)" fill="#18181B" fill-opacity="0.8"/>
<rect x="322.53" y="307.75" width="23.5" height="8.5" rx="1.75" transform="rotate(180 322.53 307.75)" stroke="#27272A" stroke-opacity="0.8" stroke-width="0.5"/>
<text x="310.78" y="303.5" font-family="Noto Sans SC, Microsoft YaHei, sans-serif" font-size="7" font-weight="bold" fill="white" text-anchor="middle" dominant-baseline="central">汽水</text>
<rect x="347.78" y="290" width="22" height="9" rx="2" transform="rotate(180 347.78 290)" fill="#18181B" fill-opacity="0.8"/>
<rect x="347.53" y="289.75" width="21.5" height="8.5" rx="1.75" transform="rotate(180 347.53 289.75)" stroke="#27272A" stroke-opacity="0.8" stroke-width="0.5"/>
<text x="336.78" y="285.5" font-family="Noto Sans SC, Microsoft YaHei, sans-serif" font-size="7" font-weight="bold" fill="white" text-anchor="middle" dominant-baseline="central">大厅</text>
<rect x="391.78" y="339" width="15" height="9" rx="2" transform="rotate(180 391.78 339)" fill="#18181B" fill-opacity="0.8"/>
<rect x="391.53" y="338.75" width="14.5" height="8.5" rx="1.75" transform="rotate(180 391.53 338.75)" stroke="#27272A" stroke-opacity="0.8" stroke-width="0.5"/>
<text x="384.28" y="334.5" font-family="Noto Sans SC, Microsoft YaHei, sans-serif" font-size="6" font-weight="bold" fill="white" text-anchor="middle" dominant-baseline="central">B天堂</text>
<rect x="136.78" y="163" width="36" height="9" rx="2" transform="rotate(180 136.78 163)" fill="#18181B" fill-opacity="0.8"/>
<rect x="136.53" y="162.75" width="35.5" height="8.5" rx="1.75" transform="rotate(180 136.53 162.75)" stroke="#27272A" stroke-opacity="0.8" stroke-width="0.5"/>
<text x="118.78" y="158.5" font-family="Noto Sans SC, Microsoft YaHei, sans-serif" font-size="7" font-weight="bold" fill="white" text-anchor="middle" dominant-baseline="central">餐厅</text>
<rect x="191.78" y="132" width="27" height="9" rx="2" transform="rotate(180 191.78 132)" fill="#18181B" fill-opacity="0.8"/>
<rect x="191.53" y="131.75" width="26.5" height="8.5" rx="1.75" transform="rotate(180 191.53 131.75)" stroke="#27272A" stroke-opacity="0.8" stroke-width="0.5"/>
<text x="178.28" y="127.5" font-family="Noto Sans SC, Microsoft YaHei, sans-serif" font-size="6" font-weight="bold" fill="white" text-anchor="middle" dominant-baseline="central">中上层</text>
<rect x="298.78" y="159" width="35" height="9" rx="2" transform="rotate(180 298.78 159)" fill="#18181B" fill-opacity="0.8"/>
<rect x="298.53" y="158.75" width="34.5" height="8.5" rx="1.75" transform="rotate(180 298.53 158.75)" stroke="#27272A" stroke-opacity="0.8" stroke-width="0.5"/>
<text x="281.28" y="154.5" font-family="Noto Sans SC, Microsoft YaHei, sans-serif" font-size="6" font-weight="bold" fill="white" text-anchor="middle" dominant-baseline="central">商店街</text>
<rect x="438.78" y="150" width="21" height="9" rx="2" transform="rotate(180 438.78 150)" fill="#18181B" fill-opacity="0.8"/>
<rect x="438.53" y="149.75" width="20.5" height="8.5" rx="1.75" transform="rotate(180 438.53 149.75)" stroke="#27272A" stroke-opacity="0.8" stroke-width="0.5"/>
<text x="428.28" y="145.5" font-family="Noto Sans SC, Microsoft YaHei, sans-serif" font-size="7" font-weight="bold" fill="white" text-anchor="middle" dominant-baseline="central">画廊</text>
<rect x="439.78" y="220" width="24" height="9" rx="2" transform="rotate(180 439.78 220)" fill="#18181B" fill-opacity="0.8"/>
<rect x="439.53" y="219.75" width="23.5" height="8.5" rx="1.75" transform="rotate(180 439.53 219.75)" stroke="#27272A" stroke-opacity="0.8" stroke-width="0.5"/>
<text x="427.78" y="215.5" font-family="Noto Sans SC, Microsoft YaHei, sans-serif" font-size="7" font-weight="bold" fill="white" text-anchor="middle" dominant-baseline="central">B大</text>
<rect x="444.78" y="301" width="25" height="9" rx="2" transform="rotate(180 444.78 301)" fill="#18181B" fill-opacity="0.8"/>
<rect x="444.53" y="300.75" width="24.5" height="8.5" rx="1.75" transform="rotate(180 444.53 300.75)" stroke="#27272A" stroke-opacity="0.8" stroke-width="0.5"/>
<text x="432.28" y="296.5" font-family="Noto Sans SC, Microsoft YaHei, sans-serif" font-size="7" font-weight="bold" fill="white" text-anchor="middle" dominant-baseline="central">屏幕</text>
<rect x="231.78" y="180" width="36" height="9" rx="2" transform="rotate(180 231.78 180)" fill="#18181B" fill-opacity="0.8"/>
<rect x="231.53" y="179.75" width="35.5" height="8.5" rx="1.75" transform="rotate(180 231.53 179.75)" stroke="#27272A" stroke-opacity="0.8" stroke-width="0.5"/>
<text x="213.78" y="175.5" font-family="Noto Sans SC, Microsoft YaHei, sans-serif" font-size="7" font-weight="bold" fill="white" text-anchor="middle" dominant-baseline="central">广场</text>
<rect x="244.78" y="222" width="34" height="9" rx="2" transform="rotate(180 244.78 222)" fill="#18181B" fill-opacity="0.8"/>
<rect x="244.53" y="221.75" width="33.5" height="8.5" rx="1.75" transform="rotate(180 244.53 221.75)" stroke="#27272A" stroke-opacity="0.8" stroke-width="0.5"/>
<text x="227.78000000000003" y="217.5" font-family="Noto Sans SC, Microsoft YaHei, sans-serif" font-size="7" font-weight="bold" fill="white" text-anchor="middle" dominant-baseline="central">中门</text>
<rect x="209.78" y="346" width="21" height="9" rx="2" transform="rotate(180 209.78 346)" fill="#18181B" fill-opacity="0.8"/>
<rect x="209.53" y="345.75" width="20.5" height="8.5" rx="1.75" transform="rotate(180 209.53 345.75)" stroke="#27272A" stroke-opacity="0.8" stroke-width="0.5"/>
<text x="199.28" y="341.5" font-family="Noto Sans SC, Microsoft YaHei, sans-serif" font-size="7" font-weight="bold" fill="white" text-anchor="middle" dominant-baseline="central">A灯</text>
<rect x="252.78" y="302" width="47" height="9" rx="2" transform="rotate(180 252.78 302)" fill="#18181B" fill-opacity="0.8"/>
<rect x="252.53" y="301.75" width="46.5" height="8.5" rx="1.75" transform="rotate(180 252.53 301.75)" stroke="#27272A" stroke-opacity="0.8" stroke-width="0.5"/>
<text x="229.28000000000003" y="297.5" font-family="Noto Sans SC, Microsoft YaHei, sans-serif" font-size="6" font-weight="bold" fill="white" text-anchor="middle" dominant-baseline="central">连接道</text>
<rect x="154.78" y="313" width="22" height="9" rx="2" transform="rotate(180 154.78 313)" fill="#18181B" fill-opacity="0.8"/>
<rect x="154.53" y="312.75" width="21.5" height="8.5" rx="1.75" transform="rotate(180 154.53 312.75)" stroke="#27272A" stroke-opacity="0.8" stroke-width="0.5"/>
<text x="143.78" y="308.5" font-family="Noto Sans SC, Microsoft YaHei, sans-serif" font-size="7" font-weight="bold" fill="white" text-anchor="middle" dominant-baseline="central">A连</text>
<rect x="322.78" y="231" width="22" height="9" rx="2" transform="rotate(180 322.78 231)" fill="#18181B" fill-opacity="0.8"/>
<rect x="322.53" y="230.75" width="21.5" height="8.5" rx="1.75" transform="rotate(180 322.53 230.75)" stroke="#27272A" stroke-opacity="0.8" stroke-width="0.5"/>
<text x="311.78" y="226.5" font-family="Noto Sans SC, Microsoft YaHei, sans-serif" font-size="7" font-weight="bold" fill="white" text-anchor="middle" dominant-baseline="central">B连</text>
<rect x="148.78" y="239" width="13" height="9" rx="2" transform="rotate(180 148.78 239)" fill="#18181B" fill-opacity="0.8"/>
<rect x="148.53" y="238.75" width="12.5" height="8.5" rx="1.75" transform="rotate(180 148.53 238.75)" stroke="#27272A" stroke-opacity="0.8" stroke-width="0.5"/>
<text x="142.28" y="234.5" font-family="Noto Sans SC, Microsoft YaHei, sans-serif" font-size="7" font-weight="bold" fill="white" text-anchor="middle" dominant-baseline="central">酒窖</text>
</svg>