<svg width="468" height="473" viewBox="0 0 468 473" fill="none" xmlns="http://www.w3.org/2000/svg">
<rect x="121" y="358" width="23" height="9" rx="2" fill="#18181B" fill-opacity="0.8"/>
<rect x="121.25" y="358.25" width="22.5" height="8.5" rx="1.75" stroke="#27272A" stroke-opacity="0.8" stroke-width="0.5"/>
<text x="132.5" y="362.5" font-family="Noto Sans SC, Microsoft YaHei, sans-serif" font-size="7" font-weight="bold" fill="white" text-anchor="middle" dominant-baseline="central">夜店</text>
<rect x="232" y="420" width="37" height="9" rx="2" fill="#18181B" fill-opacity="0.8"/>
<rect x="232.25" y="420.25" width="36.5" height="8.5" rx="1.75" stroke="#27272A" stroke-opacity="0.8" stroke-width="0.5"/>
<text x="250.5" y="424.5" font-family="Noto Sans SC, Microsoft YaHei, sans-serif" font-size="7" font-weight="bold" fill="white" text-anchor="middle" dominant-baseline="central">票亭</text>
<rect x="420" y="233" width="24" height="9" rx="2" fill="#18181B" fill-opacity="0.8"/>
<rect x="420.25" y="233.25" width="23.5" height="8.5" rx="1.75" stroke="#27272A" stroke-opacity="0.8" stroke-width="0.5"/>
<text x="432.0" y="237.5" font-family="Noto Sans SC, Microsoft YaHei, sans-serif" font-size="7" font-weight="bold" fill="white" text-anchor="middle" dominant-baseline="central">地铁</text>
<rect x="421" y="141" width="26" height="9" rx="2" fill="#18181B" fill-opacity="0.8"/>
<rect x="421.25" y="141.25" width="25.5" height="8.5" rx="1.75" stroke="#27272A" stroke-opacity="0.8" stroke-width="0.5"/>
<text x="434.0" y="145.5" font-family="Noto Sans SC, Microsoft YaHei, sans-serif" font-size="7" font-weight="bold" fill="white" text-anchor="middle" dominant-baseline="central">屏幕</text>
<rect x="383" y="87" width="23" height="9" rx="2" fill="#18181B" fill-opacity="0.8"/>
<rect x="383.25" y="87.25" width="22.5" height="8.5" rx="1.75" stroke="#27272A" stroke-opacity="0.8" stroke-width="0.5"/>
<text x="394.5" y="91.5" font-family="Noto Sans SC, Microsoft YaHei, sans-serif" font-size="7" font-weight="bold" fill="white" text-anchor="middle" dominant-baseline="central">隧道</text>
<rect x="342" y="106" width="27" height="9" rx="2" fill="#18181B" fill-opacity="0.8"/>
<rect x="342.25" y="106.25" width="26.5" height="8.5" rx="1.75" stroke="#27272A" stroke-opacity="0.8" stroke-width="0.5"/>
<text x="355.5" y="110.5" font-family="Noto Sans SC, Microsoft YaHei, sans-serif" font-size="7" font-weight="bold" fill="white" text-anchor="middle" dominant-baseline="central">密道</text>
<rect x="248" y="39" width="37" height="9" rx="2" fill="#18181B" fill-opacity="0.8"/>
<rect x="248.25" y="39.25" width="36.5" height="8.5" rx="1.75" stroke="#27272A" stroke-opacity="0.8" stroke-width="0.5"/>
<text x="266.5" y="43.5" font-family="Noto Sans SC, Microsoft YaHei, sans-serif" font-size="6" font-weight="bold" fill="white" text-anchor="middle" dominant-baseline="central">防空洞</text>
<rect x="198" y="127" width="28" height="9" rx="2" fill="#18181B" fill-opacity="0.8"/>
<rect x="198.25" y="127.25" width="27.5" height="8.5" rx="1.75" stroke="#27272A" stroke-opacity="0.8" stroke-width="0.5"/>
<text x="212.0" y="131.5" font-family="Noto Sans SC, Microsoft YaHei, sans-serif" font-size="7" font-weight="bold" fill="white" text-anchor="middle" dominant-baseline="central">花店</text>
<rect x="145" y="165" width="24" height="9" rx="2" fill="#18181B" fill-opacity="0.8"/>
<rect x="145.25" y="165.25" width="23.5" height="8.5" rx="1.75" stroke="#27272A" stroke-opacity="0.8" stroke-width="0.5"/>
<text x="157.0" y="169.5" font-family="Noto Sans SC, Microsoft YaHei, sans-serif" font-size="7" font-weight="bold" fill="white" text-anchor="middle" dominant-baseline="central">汽水</text>
<rect x="120" y="183" width="22" height="9" rx="2" fill="#18181B" fill-opacity="0.8"/>
<rect x="120.25" y="183.25" width="21.5" height="8.5" rx="1.75" stroke="#27272A" stroke-opacity="0.8" stroke-width="0.5"/>
<text x="131.0" y="187.5" font-family="Noto Sans SC, Microsoft YaHei, sans-serif" font-size="7" font-weight="bold" fill="white" text-anchor="middle" dominant-baseline="central">大厅</text>
<rect x="76" y="134" width="15" height="9" rx="2" fill="#18181B" fill-opacity="0.8"/>
<rect x="76.25" y="134.25" width="14.5" height="8.5" rx="1.75" stroke="#27272A" stroke-opacity="0.8" stroke-width="0.5"/>
<text x="83.5" y="138.5" font-family="Noto Sans SC, Microsoft YaHei, sans-serif" font-size="6" font-weight="bold" fill="white" text-anchor="middle" dominant-baseline="central">B天堂</text>
<rect x="331" y="310" width="36" height="9" rx="2" fill="#18181B" fill-opacity="0.8"/>
<rect x="331.25" y="310.25" width="35.5" height="8.5" rx="1.75" stroke="#27272A" stroke-opacity="0.8" stroke-width="0.5"/>
<text x="349.0" y="314.5" font-family="Noto Sans SC, Microsoft YaHei, sans-serif" font-size="7" font-weight="bold" fill="white" text-anchor="middle" dominant-baseline="central">餐厅</text>
<rect x="276" y="341" width="27" height="9" rx="2" fill="#18181B" fill-opacity="0.8"/>
<rect x="276.25" y="341.25" width="26.5" height="8.5" rx="1.75" stroke="#27272A" stroke-opacity="0.8" stroke-width="0.5"/>
<text x="289.5" y="345.5" font-family="Noto Sans SC, Microsoft YaHei, sans-serif" font-size="6" font-weight="bold" fill="white" text-anchor="middle" dominant-baseline="central">中上层</text>
<rect x="169" y="314" width="35" height="9" rx="2" fill="#18181B" fill-opacity="0.8"/>
<rect x="169.25" y="314.25" width="34.5" height="8.5" rx="1.75" stroke="#27272A" stroke-opacity="0.8" stroke-width="0.5"/>
<text x="186.5" y="318.5" font-family="Noto Sans SC, Microsoft YaHei, sans-serif" font-size="6" font-weight="bold" fill="white" text-anchor="middle" dominant-baseline="central">商店街</text>
<rect x="29" y="323" width="21" height="9" rx="2" fill="#18181B" fill-opacity="0.8"/>
<rect x="29.25" y="323.25" width="20.5" height="8.5" rx="1.75" stroke="#27272A" stroke-opacity="0.8" stroke-width="0.5"/>
<text x="39.5" y="327.5" font-family="Noto Sans SC, Microsoft YaHei, sans-serif" font-size="7" font-weight="bold" fill="white" text-anchor="middle" dominant-baseline="central">画廊</text>
<rect x="28" y="253" width="24" height="9" rx="2" fill="#18181B" fill-opacity="0.8"/>
<rect x="28.25" y="253.25" width="23.5" height="8.5" rx="1.75" stroke="#27272A" stroke-opacity="0.8" stroke-width="0.5"/>
<text x="40.0" y="257.5" font-family="Noto Sans SC, Microsoft YaHei, sans-serif" font-size="7" font-weight="bold" fill="white" text-anchor="middle" dominant-baseline="central">B大</text>
<rect x="23" y="172" width="25" height="9" rx="2" fill="#18181B" fill-opacity="0.8"/>
<rect x="23.25" y="172.25" width="24.5" height="8.5" rx="1.75" stroke="#27272A" stroke-opacity="0.8" stroke-width="0.5"/>
<text x="35.5" y="176.5" font-family="Noto Sans SC, Microsoft YaHei, sans-serif" font-size="7" font-weight="bold" fill="white" text-anchor="middle" dominant-baseline="central">屏幕</text>
<rect x="236" y="293" width="36" height="9" rx="2" fill="#18181B" fill-opacity="0.8"/>
<rect x="236.25" y="293.25" width="35.5" height="8.5" rx="1.75" stroke="#27272A" stroke-opacity="0.8" stroke-width="0.5"/>
<text x="254.0" y="297.5" font-family="Noto Sans SC, Microsoft YaHei, sans-serif" font-size="7" font-weight="bold" fill="white" text-anchor="middle" dominant-baseline="central">广场</text>
<rect x="223" y="251" width="34" height="9" rx="2" fill="#18181B" fill-opacity="0.8"/>
<rect x="223.25" y="251.25" width="33.5" height="8.5" rx="1.75" stroke="#27272A" stroke-opacity="0.8" stroke-width="0.5"/>
<text x="240.0" y="255.5" font-family="Noto Sans SC, Microsoft YaHei, sans-serif" font-size="7" font-weight="bold" fill="white" text-anchor="middle" dominant-baseline="central">中门</text>
<rect x="258" y="127" width="21" height="9" rx="2" fill="#18181B" fill-opacity="0.8"/>
<rect x="258.25" y="127.25" width="20.5" height="8.5" rx="1.75" stroke="#27272A" stroke-opacity="0.8" stroke-width="0.5"/>
<text x="268.5" y="131.5" font-family="Noto Sans SC, Microsoft YaHei, sans-serif" font-size="7" font-weight="bold" fill="white" text-anchor="middle" dominant-baseline="central">A灯</text>
<rect x="215" y="171" width="47" height="9" rx="2" fill="#18181B" fill-opacity="0.8"/>
<rect x="215.25" y="171.25" width="46.5" height="8.5" rx="1.75" stroke="#27272A" stroke-opacity="0.8" stroke-width="0.5"/>
<text x="238.5" y="175.5" font-family="Noto Sans SC, Microsoft YaHei, sans-serif" font-size="6" font-weight="bold" fill="white" text-anchor="middle" dominant-baseline="central">连接道</text>
<rect x="313" y="160" width="22" height="9" rx="2" fill="#18181B" fill-opacity="0.8"/>
<rect x="313.25" y="160.25" width="21.5" height="8.5" rx="1.75" stroke="#27272A" stroke-opacity="0.8" stroke-width="0.5"/>
<text x="324.0" y="164.5" font-family="Noto Sans SC, Microsoft YaHei, sans-serif" font-size="7" font-weight="bold" fill="white" text-anchor="middle" dominant-baseline="central">A连</text>
<rect x="145" y="242" width="22" height="9" rx="2" fill="#18181B" fill-opacity="0.8"/>
<rect x="145.25" y="242.25" width="21.5" height="8.5" rx="1.75" stroke="#27272A" stroke-opacity="0.8" stroke-width="0.5"/>
<text x="156.0" y="246.5" font-family="Noto Sans SC, Microsoft YaHei, sans-serif" font-size="7" font-weight="bold" fill="white" text-anchor="middle" dominant-baseline="central">B连</text>
<rect x="319" y="234" width="13" height="9" rx="2" fill="#18181B" fill-opacity="0.8"/>
<rect x="319.25" y="234.25" width="12.5" height="8.5" rx="1.75" stroke="#27272A" stroke-opacity="0.8" stroke-width="0.5"/>
<text x="325.5" y="238.5" font-family="Noto Sans SC, Microsoft YaHei, sans-serif" font-size="7" font-weight="bold" fill="white" text-anchor="middle" dominant-baseline="central">酒窖</text>
</svg>