<svg width="465" height="473" viewBox="0 0 465 473" fill="none" xmlns="http://www.w3.org/2000/svg">
<rect x="196" y="419" width="37" height="9" rx="2" fill="#18181B" fill-opacity="0.8"/>
<rect x="196.25" y="419.25" width="36.5" height="8.5" rx="1.75" stroke="#27272A" stroke-opacity="0.8" stroke-width="0.5"/>
<text x="214.5" y="423.5" font-family="Noto Sans SC, Microsoft YaHei, sans-serif" font-size="7" font-weight="bold" fill="white" text-anchor="middle" dominant-baseline="central">A厅</text>
<rect x="392" y="320" width="28" height="9" rx="2" fill="#18181B" fill-opacity="0.8"/>
<rect x="392.25" y="320.25" width="27.5" height="8.5" rx="1.75" stroke="#27272A" stroke-opacity="0.8" stroke-width="0.5"/>
<text x="406.0" y="324.5" font-family="Noto Sans SC, Microsoft YaHei, sans-serif" font-size="7" font-weight="bold" fill="white" text-anchor="middle" dominant-baseline="central">A大</text>
<rect x="73" y="330" width="28" height="9" rx="2" fill="#18181B" fill-opacity="0.8"/>
<rect x="73.25" y="330.25" width="27.5" height="8.5" rx="1.75" stroke="#27272A" stroke-opacity="0.8" stroke-width="0.5"/>
<text x="87.0" y="334.5" font-family="Noto Sans SC, Microsoft YaHei, sans-serif" font-size="7" font-weight="bold" fill="white" text-anchor="middle" dominant-baseline="central">B连</text>
<rect x="318" y="315" width="26" height="9" rx="2" fill="#18181B" fill-opacity="0.8"/>
<rect x="318.25" y="315.25" width="25.5" height="8.5" rx="1.75" stroke="#27272A" stroke-opacity="0.8" stroke-width="0.5"/>
<text x="331.0" y="319.5" font-family="Noto Sans SC, Microsoft YaHei, sans-serif" font-size="6" font-weight="bold" fill="white" text-anchor="middle" dominant-baseline="central">下水道</text>
<rect x="195" y="307" width="38" height="9" rx="2" fill="#18181B" fill-opacity="0.8"/>
<rect x="195.25" y="307.25" width="37.5" height="8.5" rx="1.75" stroke="#27272A" stroke-opacity="0.8" stroke-width="0.5"/>
<text x="214.0" y="311.5" font-family="Noto Sans SC, Microsoft YaHei, sans-serif" font-size="6" font-weight="bold" fill="white" text-anchor="middle" dominant-baseline="central">中下层</text>
<rect x="46" y="263" width="31" height="9" rx="2" fill="#18181B" fill-opacity="0.8"/>
<rect x="46.25" y="263.25" width="30.5" height="8.5" rx="1.75" stroke="#27272A" stroke-opacity="0.8" stroke-width="0.5"/>
<text x="61.5" y="267.5" font-family="Noto Sans SC, Microsoft YaHei, sans-serif" font-size="7" font-weight="bold" fill="white" text-anchor="middle" dominant-baseline="central">车库</text>
<rect x="126" y="319" width="22" height="9" rx="2" fill="#18181B" fill-opacity="0.8"/>
<rect x="126.25" y="319.25" width="21.5" height="8.5" rx="1.75" stroke="#27272A" stroke-opacity="0.8" stroke-width="0.5"/>
<text x="137.0" y="323.5" font-family="Noto Sans SC, Microsoft YaHei, sans-serif" font-size="7" font-weight="bold" fill="white" text-anchor="middle" dominant-baseline="central">B连</text>
<rect x="207" y="228" width="27" height="9" rx="2" fill="#18181B" fill-opacity="0.8"/>
<rect x="207.25" y="228.25" width="26.5" height="8.5" rx="1.75" stroke="#27272A" stroke-opacity="0.8" stroke-width="0.5"/>
<text x="220.5" y="232.5" font-family="Noto Sans SC, Microsoft YaHei, sans-serif" font-size="6" font-weight="bold" fill="white" text-anchor="middle" dominant-baseline="central">中上层</text>
<rect x="251" y="198" width="18" height="9" rx="2" fill="#18181B" fill-opacity="0.8"/>
<rect x="251.25" y="198.25" width="17.5" height="8.5" rx="1.75" stroke="#27272A" stroke-opacity="0.8" stroke-width="0.5"/>
<text x="260.0" y="202.5" font-family="Noto Sans SC, Microsoft YaHei, sans-serif" font-size="7" font-weight="bold" fill="white" text-anchor="middle" dominant-baseline="central">绳房</text>
<rect x="372" y="243" width="24" height="9" rx="2" fill="#18181B" fill-opacity="0.8"/>
<rect x="372.25" y="243.25" width="23.5" height="8.5" rx="1.75" stroke="#27272A" stroke-opacity="0.8" stroke-width="0.5"/>
<text x="384.0" y="247.5" font-family="Noto Sans SC, Microsoft YaHei, sans-serif" font-size="7" font-weight="bold" fill="white" text-anchor="middle" dominant-baseline="central">A大</text>
<rect x="297" y="227" width="30" height="9" rx="2" fill="#18181B" fill-opacity="0.8"/>
<rect x="297.25" y="227.25" width="29.5" height="8.5" rx="1.75" stroke="#27272A" stroke-opacity="0.8" stroke-width="0.5"/>
<text x="312.0" y="231.5" font-family="Noto Sans SC, Microsoft YaHei, sans-serif" font-size="7" font-weight="bold" fill="white" text-anchor="middle" dominant-baseline="central">A坡</text>
<rect x="309" y="141" width="28" height="9" rx="2" fill="#18181B" fill-opacity="0.8"/>
<rect x="309.25" y="141.25" width="27.5" height="8.5" rx="1.75" stroke="#27272A" stroke-opacity="0.8" stroke-width="0.5"/>
<text x="323.0" y="145.5" font-family="Noto Sans SC, Microsoft YaHei, sans-serif" font-size="6" font-weight="bold" fill="white" text-anchor="middle" dominant-baseline="central">A天堂</text>
<rect x="361" y="64" width="34" height="9" rx="2" fill="#18181B" fill-opacity="0.8"/>
<rect x="361.25" y="64.25" width="33.5" height="8.5" rx="1.75" stroke="#27272A" stroke-opacity="0.8" stroke-width="0.5"/>
<text x="378.0" y="68.5" font-family="Noto Sans SC, Microsoft YaHei, sans-serif" font-size="7" font-weight="bold" fill="white" text-anchor="middle" dominant-baseline="central">屏幕</text>
<rect x="399" y="97" width="24" height="9" rx="2" fill="#18181B" fill-opacity="0.8"/>
<rect x="399.25" y="97.25" width="23.5" height="8.5" rx="1.75" stroke="#27272A" stroke-opacity="0.8" stroke-width="0.5"/>
<text x="411.0" y="101.5" font-family="Noto Sans SC, Microsoft YaHei, sans-serif" font-size="7" font-weight="bold" fill="white" text-anchor="middle" dominant-baseline="central">A后</text>
<rect x="341" y="140" width="31" height="9" rx="2" fill="#18181B" fill-opacity="0.8"/>
<rect x="341.25" y="140.25" width="30.5" height="8.5" rx="1.75" stroke="#27272A" stroke-opacity="0.8" stroke-width="0.5"/>
<text x="356.5" y="144.5" font-family="Noto Sans SC, Microsoft YaHei, sans-serif" font-size="6" font-weight="bold" fill="white" text-anchor="middle" dominant-baseline="central">A阁楼</text>
<rect x="132" y="198" width="28" height="9" rx="2" fill="#18181B" fill-opacity="0.8"/>
<rect x="132.25" y="198.25" width="27.5" height="8.5" rx="1.75" stroke="#27272A" stroke-opacity="0.8" stroke-width="0.5"/>
<text x="146.0" y="202.5" font-family="Noto Sans SC, Microsoft YaHei, sans-serif" font-size="6" font-weight="bold" fill="white" text-anchor="middle" dominant-baseline="central">B天堂</text>
<rect x="95" y="164" width="31" height="9" rx="2" fill="#18181B" fill-opacity="0.8"/>
<rect x="95.25" y="164.25" width="30.5" height="8.5" rx="1.75" stroke="#27272A" stroke-opacity="0.8" stroke-width="0.5"/>
<text x="110.5" y="168.5" font-family="Noto Sans SC, Microsoft YaHei, sans-serif" font-size="6" font-weight="bold" fill="white" text-anchor="middle" dominant-baseline="central">B阁楼</text>
<rect x="166" y="140" width="27" height="9" rx="2" fill="#18181B" fill-opacity="0.8"/>
<rect x="166.25" y="140.25" width="26.5" height="8.5" rx="1.75" stroke="#27272A" stroke-opacity="0.8" stroke-width="0.5"/>
<text x="179.5" y="144.5" font-family="Noto Sans SC, Microsoft YaHei, sans-serif" font-size="6" font-weight="bold" fill="white" text-anchor="middle" dominant-baseline="central">B楼梯</text>
<rect x="204" y="48" width="37" height="9" rx="2" fill="#18181B" fill-opacity="0.8"/>
<rect x="204.25" y="48.25" width="36.5" height="8.5" rx="1.75" stroke="#27272A" stroke-opacity="0.8" stroke-width="0.5"/>
<text x="222.5" y="52.5" font-family="Noto Sans SC, Microsoft YaHei, sans-serif" font-size="7" font-weight="bold" fill="white" text-anchor="middle" dominant-baseline="central">警家</text>
<rect x="78" y="92" width="24" height="9" rx="2" fill="#18181B" fill-opacity="0.8"/>
<rect x="78.25" y="92.25" width="23.5" height="8.5" rx="1.75" stroke="#27272A" stroke-opacity="0.8" stroke-width="0.5"/>
<text x="90.0" y="96.5" font-family="Noto Sans SC, Microsoft YaHei, sans-serif" font-size="7" font-weight="bold" fill="white" text-anchor="middle" dominant-baseline="central">B小</text>
<rect x="4" y="119" width="24" height="9" rx="2" fill="#18181B" fill-opacity="0.8"/>
<rect x="4.25" y="119.25" width="23.5" height="8.5" rx="1.75" stroke="#27272A" stroke-opacity="0.8" stroke-width="0.5"/>
<text x="16.0" y="123.5" font-family="Noto Sans SC, Microsoft YaHei, sans-serif" font-size="7" font-weight="bold" fill="white" text-anchor="middle" dominant-baseline="central">B后</text>
<rect x="175" y="212" width="16" height="9" rx="2" fill="#18181B" fill-opacity="0.8"/>
<rect x="175.25" y="212.25" width="15.5" height="8.5" rx="1.75" stroke="#27272A" stroke-opacity="0.8" stroke-width="0.5"/>
<text x="183.0" y="216.5" font-family="Noto Sans SC, Microsoft YaHei, sans-serif" font-size="7" font-weight="bold" fill="white" text-anchor="middle" dominant-baseline="central">邮箱</text>
</svg>