<svg width="465" height="473" viewBox="0 0 465 473" fill="none" xmlns="http://www.w3.org/2000/svg">
<rect x="269" y="54" width="37" height="9" rx="2" transform="rotate(180 269 54)" fill="#18181B" fill-opacity="0.8"/>
<rect x="268.75" y="53.75" width="36.5" height="8.5" rx="1.75" transform="rotate(180 268.75 53.75)" stroke="#27272A" stroke-opacity="0.8" stroke-width="0.5"/>
<text x="250.5" y="49.5" font-family="Noto Sans SC, Microsoft YaHei, sans-serif" font-size="5" font-weight="bold" fill="white" text-anchor="middle" dominant-baseline="central">A Lobby</text>
<rect x="73" y="153" width="28" height="9" rx="2" transform="rotate(180 73 153)" fill="#18181B" fill-opacity="0.8"/>
<rect x="72.75" y="152.75" width="27.5" height="8.5" rx="1.75" transform="rotate(180 72.75 152.75)" stroke="#27272A" stroke-opacity="0.8" stroke-width="0.5"/>
<text x="59.0" y="148.5" font-family="Noto Sans SC, Microsoft YaHei, sans-serif" font-size="5" font-weight="bold" fill="white" text-anchor="middle" dominant-baseline="central">A Main</text>
<rect x="392" y="143" width="28" height="9" rx="2" transform="rotate(180 392 143)" fill="#18181B" fill-opacity="0.8"/>
<rect x="391.75" y="142.75" width="27.5" height="8.5" rx="1.75" transform="rotate(180 391.75 142.75)" stroke="#27272A" stroke-opacity="0.8" stroke-width="0.5"/>
<text x="378.0" y="138.5" font-family="Noto Sans SC, Microsoft YaHei, sans-serif" font-size="5" font-weight="bold" fill="white" text-anchor="middle" dominant-baseline="central">B Link</text>
<rect x="147" y="158" width="26" height="9" rx="2" transform="rotate(180 147 158)" fill="#18181B" fill-opacity="0.8"/>
<rect x="146.75" y="157.75" width="25.5" height="8.5" rx="1.75" transform="rotate(180 146.75 157.75)" stroke="#27272A" stroke-opacity="0.8" stroke-width="0.5"/>
<text x="134.0" y="153.5" font-family="Noto Sans SC, Microsoft YaHei, sans-serif" font-size="5" font-weight="bold" fill="white" text-anchor="middle" dominant-baseline="central">Sewers</text>
<rect x="270" y="166" width="38" height="9" rx="2" transform="rotate(180 270 166)" fill="#18181B" fill-opacity="0.8"/>
<rect x="269.75" y="165.75" width="37.5" height="8.5" rx="1.75" transform="rotate(180 269.75 165.75)" stroke="#27272A" stroke-opacity="0.8" stroke-width="0.5"/>
<text x="251.0" y="161.5" font-family="Noto Sans SC, Microsoft YaHei, sans-serif" font-size="5" font-weight="bold" fill="white" text-anchor="middle" dominant-baseline="central">Mid Bottom</text>
<rect x="419" y="210" width="31" height="9" rx="2" transform="rotate(180 419 210)" fill="#18181B" fill-opacity="0.8"/>
<rect x="418.75" y="209.75" width="30.5" height="8.5" rx="1.75" transform="rotate(180 418.75 209.75)" stroke="#27272A" stroke-opacity="0.8" stroke-width="0.5"/>
<text x="403.5" y="205.5" font-family="Noto Sans SC, Microsoft YaHei, sans-serif" font-size="5" font-weight="bold" fill="white" text-anchor="middle" dominant-baseline="central">B Garage</text>
<rect x="339" y="154" width="22" height="9" rx="2" transform="rotate(180 339 154)" fill="#18181B" fill-opacity="0.8"/>
<rect x="338.75" y="153.75" width="21.5" height="8.5" rx="1.75" transform="rotate(180 338.75 153.75)" stroke="#27272A" stroke-opacity="0.8" stroke-width="0.5"/>
<text x="328.0" y="149.5" font-family="Noto Sans SC, Microsoft YaHei, sans-serif" font-size="5" font-weight="bold" fill="white" text-anchor="middle" dominant-baseline="central">B Link</text>
<rect x="258" y="245" width="27" height="9" rx="2" transform="rotate(180 258 245)" fill="#18181B" fill-opacity="0.8"/>
<rect x="257.75" y="244.75" width="26.5" height="8.5" rx="1.75" transform="rotate(180 257.75 244.75)" stroke="#27272A" stroke-opacity="0.8" stroke-width="0.5"/>
<text x="244.5" y="240.5" font-family="Noto Sans SC, Microsoft YaHei, sans-serif" font-size="5" font-weight="bold" fill="white" text-anchor="middle" dominant-baseline="central">Mid Top</text>
<rect x="214" y="275" width="18" height="9" rx="2" transform="rotate(180 214 275)" fill="#18181B" fill-opacity="0.8"/>
<rect x="213.75" y="274.75" width="17.5" height="8.5" rx="1.75" transform="rotate(180 213.75 274.75)" stroke="#27272A" stroke-opacity="0.8" stroke-width="0.5"/>
<text x="205.0" y="270.5" font-family="Noto Sans SC, Microsoft YaHei, sans-serif" font-size="5.5" font-weight="bold" fill="white" text-anchor="middle" dominant-baseline="central">Vent</text>
<rect x="93" y="230" width="24" height="9" rx="2" transform="rotate(180 93 230)" fill="#18181B" fill-opacity="0.8"/>
<rect x="92.75" y="229.75" width="23.5" height="8.5" rx="1.75" transform="rotate(180 92.75 229.75)" stroke="#27272A" stroke-opacity="0.8" stroke-width="0.5"/>
<text x="81.0" y="225.5" font-family="Noto Sans SC, Microsoft YaHei, sans-serif" font-size="5" font-weight="bold" fill="white" text-anchor="middle" dominant-baseline="central">A Main</text>
<rect x="168" y="246" width="30" height="9" rx="2" transform="rotate(180 168 246)" fill="#18181B" fill-opacity="0.8"/>
<rect x="167.75" y="245.75" width="29.5" height="8.5" rx="1.75" transform="rotate(180 167.75 245.75)" stroke="#27272A" stroke-opacity="0.8" stroke-width="0.5"/>
<text x="153.0" y="241.5" font-family="Noto Sans SC, Microsoft YaHei, sans-serif" font-size="5" font-weight="bold" fill="white" text-anchor="middle" dominant-baseline="central">A Ramp</text>
<rect x="156" y="332" width="28" height="9" rx="2" transform="rotate(180 156 332)" fill="#18181B" fill-opacity="0.8"/>
<rect x="155.75" y="331.75" width="27.5" height="8.5" rx="1.75" transform="rotate(180 155.75 331.75)" stroke="#27272A" stroke-opacity="0.8" stroke-width="0.5"/>
<text x="142.0" y="327.5" font-family="Noto Sans SC, Microsoft YaHei, sans-serif" font-size="5" font-weight="bold" fill="white" text-anchor="middle" dominant-baseline="central">A Tower</text>
<rect x="104" y="409" width="34" height="9" rx="2" transform="rotate(180 104 409)" fill="#18181B" fill-opacity="0.8"/>
<rect x="103.75" y="408.75" width="33.5" height="8.5" rx="1.75" transform="rotate(180 103.75 408.75)" stroke="#27272A" stroke-opacity="0.8" stroke-width="0.5"/>
<text x="87.0" y="404.5" font-family="Noto Sans SC, Microsoft YaHei, sans-serif" font-size="5" font-weight="bold" fill="white" text-anchor="middle" dominant-baseline="central">A Screens</text>
<rect x="66" y="376" width="24" height="9" rx="2" transform="rotate(180 66 376)" fill="#18181B" fill-opacity="0.8"/>
<rect x="65.75" y="375.75" width="23.5" height="8.5" rx="1.75" transform="rotate(180 65.75 375.75)" stroke="#27272A" stroke-opacity="0.8" stroke-width="0.5"/>
<text x="54.0" y="371.5" font-family="Noto Sans SC, Microsoft YaHei, sans-serif" font-size="5" font-weight="bold" fill="white" text-anchor="middle" dominant-baseline="central">A Back</text>
<rect x="124" y="333" width="31" height="9" rx="2" transform="rotate(180 124 333)" fill="#18181B" fill-opacity="0.8"/>
<rect x="123.75" y="332.75" width="30.5" height="8.5" rx="1.75" transform="rotate(180 123.75 332.75)" stroke="#27272A" stroke-opacity="0.8" stroke-width="0.5"/>
<text x="108.5" y="328.5" font-family="Noto Sans SC, Microsoft YaHei, sans-serif" font-size="5" font-weight="bold" fill="white" text-anchor="middle" dominant-baseline="central">A Rafters</text>
<rect x="333" y="275" width="28" height="9" rx="2" transform="rotate(180 333 275)" fill="#18181B" fill-opacity="0.8"/>
<rect x="332.75" y="274.75" width="27.5" height="8.5" rx="1.75" transform="rotate(180 332.75 274.75)" stroke="#27272A" stroke-opacity="0.8" stroke-width="0.5"/>
<text x="319.0" y="270.5" font-family="Noto Sans SC, Microsoft YaHei, sans-serif" font-size="5" font-weight="bold" fill="white" text-anchor="middle" dominant-baseline="central">B Tower</text>
<rect x="370" y="309" width="31" height="9" rx="2" transform="rotate(180 370 309)" fill="#18181B" fill-opacity="0.8"/>
<rect x="369.75" y="308.75" width="30.5" height="8.5" rx="1.75" transform="rotate(180 369.75 308.75)" stroke="#27272A" stroke-opacity="0.8" stroke-width="0.5"/>
<text x="354.5" y="304.5" font-family="Noto Sans SC, Microsoft YaHei, sans-serif" font-size="5" font-weight="bold" fill="white" text-anchor="middle" dominant-baseline="central">B Rafters</text>
<rect x="299" y="333" width="27" height="9" rx="2" transform="rotate(180 299 333)" fill="#18181B" fill-opacity="0.8"/>
<rect x="298.75" y="332.75" width="26.5" height="8.5" rx="1.75" transform="rotate(180 298.75 332.75)" stroke="#27272A" stroke-opacity="0.8" stroke-width="0.5"/>
<text x="285.5" y="328.5" font-family="Noto Sans SC, Microsoft YaHei, sans-serif" font-size="5" font-weight="bold" fill="white" text-anchor="middle" dominant-baseline="central">B Stairs</text>
<rect x="261" y="425" width="37" height="9" rx="2" transform="rotate(180 261 425)" fill="#18181B" fill-opacity="0.8"/>
<rect x="260.75" y="424.75" width="36.5" height="8.5" rx="1.75" transform="rotate(180 260.75 424.75)" stroke="#27272A" stroke-opacity="0.8" stroke-width="0.5"/>
<text x="242.5" y="420.5" font-family="Noto Sans SC, Microsoft YaHei, sans-serif" font-size="5" font-weight="bold" fill="white" text-anchor="middle" dominant-baseline="central">DEF Spawn</text>
<rect x="387" y="381" width="24" height="9" rx="2" transform="rotate(180 387 381)" fill="#18181B" fill-opacity="0.8"/>
<rect x="386.75" y="380.75" width="23.5" height="8.5" rx="1.75" transform="rotate(180 386.75 380.75)" stroke="#27272A" stroke-opacity="0.8" stroke-width="0.5"/>
<text x="375.0" y="376.5" font-family="Noto Sans SC, Microsoft YaHei, sans-serif" font-size="5" font-weight="bold" fill="white" text-anchor="middle" dominant-baseline="central">B Alley</text>
<rect x="461" y="354" width="24" height="9" rx="2" transform="rotate(180 461 354)" fill="#18181B" fill-opacity="0.8"/>
<rect x="460.75" y="353.75" width="23.5" height="8.5" rx="1.75" transform="rotate(180 460.75 353.75)" stroke="#27272A" stroke-opacity="0.8" stroke-width="0.5"/>
<text x="449.0" y="349.5" font-family="Noto Sans SC, Microsoft YaHei, sans-serif" font-size="5" font-weight="bold" fill="white" text-anchor="middle" dominant-baseline="central">B Back</text>
<rect x="290" y="261" width="16" height="9" rx="2" transform="rotate(180 290 261)" fill="#18181B" fill-opacity="0.8"/>
<rect x="289.75" y="260.75" width="15.5" height="8.5" rx="1.75" transform="rotate(180 289.75 260.75)" stroke="#27272A" stroke-opacity="0.8" stroke-width="0.5"/>
<text x="282.0" y="256.5" font-family="Noto Sans SC, Microsoft YaHei, sans-serif" font-size="5.5" font-weight="bold" fill="white" text-anchor="middle" dominant-baseline="central">Mail</text>
</svg>