<svg width="414" height="473" viewBox="0 0 414 473" fill="none" xmlns="http://www.w3.org/2000/svg">
<rect x="286" y="130" width="28" height="9" rx="2" transform="rotate(180 286 130)" fill="#18181B" fill-opacity="0.8"/>
<rect x="285.75" y="129.75" width="27.5" height="8.5" rx="1.75" transform="rotate(180 285.75 129.75)" stroke="#27272A" stroke-opacity="0.8" stroke-width="0.5"/>
<text x="272.0" y="125.5" font-family="Noto Sans SC, Microsoft YaHei, sans-serif" font-size="6" font-weight="bold" fill="white" text-anchor="middle" dominant-baseline="central">B大厅</text>
<rect x="263" y="188" width="38" height="9" rx="2" transform="rotate(180 263 188)" fill="#18181B" fill-opacity="0.8"/>
<rect x="262.75" y="187.75" width="37.5" height="8.5" rx="1.75" transform="rotate(180 262.75 187.75)" stroke="#27272A" stroke-opacity="0.8" stroke-width="0.5"/>
<text x="244.0" y="183.5" font-family="Noto Sans SC, Microsoft YaHei, sans-serif" font-size="5.5" font-weight="bold" fill="white" text-anchor="middle" dominant-baseline="central">中路下层</text>
<rect x="347" y="188" width="24" height="9" rx="2" transform="rotate(180 347 188)" fill="#18181B" fill-opacity="0.8"/>
<rect x="346.75" y="187.75" width="23.5" height="8.5" rx="1.75" transform="rotate(180 346.75 187.75)" stroke="#27272A" stroke-opacity="0.8" stroke-width="0.5"/>
<text x="335.0" y="183.5" font-family="Noto Sans SC, Microsoft YaHei, sans-serif" font-size="6" font-weight="bold" fill="white" text-anchor="middle" dominant-baseline="central">B主路</text>
<rect x="316" y="246" width="30" height="9" rx="2" transform="rotate(180 316 246)" fill="#18181B" fill-opacity="0.8"/>
<rect x="315.75" y="245.75" width="29.5" height="8.5" rx="1.75" transform="rotate(180 315.75 245.75)" stroke="#27272A" stroke-opacity="0.8" stroke-width="0.5"/>
<text x="301.0" y="241.5" font-family="Noto Sans SC, Microsoft YaHei, sans-serif" font-size="6" font-weight="bold" fill="white" text-anchor="middle" dominant-baseline="central">B市场</text>
<rect x="365" y="341" width="19" height="9" rx="2" transform="rotate(180 365 341)" fill="#18181B" fill-opacity="0.8"/>
<rect x="364.75" y="340.75" width="18.5" height="8.5" rx="1.75" transform="rotate(180 364.75 340.75)" stroke="#27272A" stroke-opacity="0.8" stroke-width="0.5"/>
<text x="355.5" y="336.5" font-family="Noto Sans SC, Microsoft YaHei, sans-serif" font-size="5.5" font-weight="bold" fill="white" text-anchor="middle" dominant-baseline="central">B奶茶店</text>
<rect x="240" y="252" width="33" height="9" rx="2" transform="rotate(180 240 252)" fill="#18181B" fill-opacity="0.8"/>
<rect x="239.75" y="251.75" width="32.5" height="8.5" rx="1.75" transform="rotate(180 239.75 251.75)" stroke="#27272A" stroke-opacity="0.8" stroke-width="0.5"/>
<text x="223.5" y="247.5" font-family="Noto Sans SC, Microsoft YaHei, sans-serif" font-size="7" font-weight="bold" fill="white" text-anchor="middle" dominant-baseline="central">庭院</text>
<rect x="191" y="216" width="30" height="9" rx="2" transform="rotate(180 191 216)" fill="#18181B" fill-opacity="0.8"/>
<rect x="190.75" y="215.75" width="29.5" height="8.5" rx="1.75" transform="rotate(180 190.75 215.75)" stroke="#27272A" stroke-opacity="0.8" stroke-width="0.5"/>
<text x="176.0" y="211.5" font-family="Noto Sans SC, Microsoft YaHei, sans-serif" font-size="5.5" font-weight="bold" fill="white" text-anchor="middle" dominant-baseline="central">中路红砖</text>
<rect x="228" y="318" width="27" height="9" rx="2" transform="rotate(180 228 318)" fill="#18181B" fill-opacity="0.8"/>
<rect x="227.75" y="317.75" width="26.5" height="8.5" rx="1.75" transform="rotate(180 227.75 317.75)" stroke="#27272A" stroke-opacity="0.8" stroke-width="0.5"/>
<text x="214.5" y="313.5" font-family="Noto Sans SC, Microsoft YaHei, sans-serif" font-size="5.5" font-weight="bold" fill="white" text-anchor="middle" dominant-baseline="central">中路上层</text>
<rect x="106" y="183" width="28" height="9" rx="2" transform="rotate(180 106 183)" fill="#18181B" fill-opacity="0.8"/>
<rect x="105.75" y="182.75" width="27.5" height="8.5" rx="1.75" transform="rotate(180 105.75 182.75)" stroke="#27272A" stroke-opacity="0.8" stroke-width="0.5"/>
<text x="92.0" y="178.5" font-family="Noto Sans SC, Microsoft YaHei, sans-serif" font-size="5" font-weight="bold" fill="white" text-anchor="middle" dominant-baseline="central">A入口大厅</text>
<rect x="106" y="240" width="24" height="9" rx="2" transform="rotate(180 106 240)" fill="#18181B" fill-opacity="0.8"/>
<rect x="105.75" y="239.75" width="23.5" height="8.5" rx="1.75" transform="rotate(180 105.75 239.75)" stroke="#27272A" stroke-opacity="0.8" stroke-width="0.5"/>
<text x="94.0" y="235.5" font-family="Noto Sans SC, Microsoft YaHei, sans-serif" font-size="6" font-weight="bold" fill="white" text-anchor="middle" dominant-baseline="central">A主路</text>
<rect x="143" y="339" width="22" height="9" rx="2" transform="rotate(180 143 339)" fill="#18181B" fill-opacity="0.8"/>
<rect x="142.75" y="338.75" width="21.5" height="8.5" rx="1.75" transform="rotate(180 142.75 338.75)" stroke="#27272A" stroke-opacity="0.8" stroke-width="0.5"/>
<text x="132.0" y="334.5" font-family="Noto Sans SC, Microsoft YaHei, sans-serif" font-size="5.5" font-weight="bold" fill="white" text-anchor="middle" dominant-baseline="central">A连接道</text>
<rect x="102" y="386" width="24" height="9" rx="2" transform="rotate(180 102 386)" fill="#18181B" fill-opacity="0.8"/>
<rect x="101.75" y="385.75" width="23.5" height="8.5" rx="1.75" transform="rotate(180 101.75 385.75)" stroke="#27272A" stroke-opacity="0.8" stroke-width="0.5"/>
<text x="90.0" y="381.5" font-family="Noto Sans SC, Microsoft YaHei, sans-serif" font-size="5.5" font-weight="bold" fill="white" text-anchor="middle" dominant-baseline="central">中路小巷</text>
<rect x="28" y="274" width="22" height="9" rx="2" transform="rotate(180 28 274)" fill="#18181B" fill-opacity="0.8"/>
<rect x="27.75" y="273.75" width="21.5" height="8.5" rx="1.75" transform="rotate(180 27.75 273.75)" stroke="#27272A" stroke-opacity="0.8" stroke-width="0.5"/>
<text x="17.0" y="269.5" font-family="Noto Sans SC, Microsoft YaHei, sans-serif" font-size="7" font-weight="bold" fill="white" text-anchor="middle" dominant-baseline="central">拐角</text>
<rect x="210" y="49" width="37" height="9" rx="2" transform="rotate(180 210 49)" fill="#18181B" fill-opacity="0.8"/>
<rect x="209.75" y="48.75" width="36.5" height="8.5" rx="1.75" transform="rotate(180 209.75 48.75)" stroke="#27272A" stroke-opacity="0.8" stroke-width="0.5"/>
<text x="191.5" y="44.5" font-family="Noto Sans SC, Microsoft YaHei, sans-serif" font-size="5.5" font-weight="bold" fill="white" text-anchor="middle" dominant-baseline="central">包点箱子</text>
<rect x="225" y="426" width="37" height="9" rx="2" transform="rotate(180 225 426)" fill="#18181B" fill-opacity="0.8"/>
<rect x="224.75" y="425.75" width="36.5" height="8.5" rx="1.75" transform="rotate(180 224.75 425.75)" stroke="#27272A" stroke-opacity="0.8" stroke-width="0.5"/>
<text x="206.5" y="421.5" font-family="Noto Sans SC, Microsoft YaHei, sans-serif" font-size="5" font-weight="bold" fill="white" text-anchor="middle" dominant-baseline="central">防守方重生点</text>
</svg>