<svg width="414" height="473" viewBox="0 0 414 473" fill="none" xmlns="http://www.w3.org/2000/svg">
<rect x="128" y="343" width="28" height="9" rx="2" fill="#18181B" fill-opacity="0.8"/>
<rect x="128.25" y="343.25" width="27.5" height="8.5" rx="1.75" stroke="#27272A" stroke-opacity="0.8" stroke-width="0.5"/>
<text x="142.0" y="347.5" font-family="Noto Sans SC, Microsoft YaHei, sans-serif" font-size="7" font-weight="bold" fill="white" text-anchor="middle" dominant-baseline="central">B厅</text>
<rect x="151" y="285" width="38" height="9" rx="2" fill="#18181B" fill-opacity="0.8"/>
<rect x="151.25" y="285.25" width="37.5" height="8.5" rx="1.75" stroke="#27272A" stroke-opacity="0.8" stroke-width="0.5"/>
<text x="170.0" y="289.5" font-family="Noto Sans SC, Microsoft YaHei, sans-serif" font-size="6" font-weight="bold" fill="white" text-anchor="middle" dominant-baseline="central">中下层</text>
<rect x="67" y="285" width="24" height="9" rx="2" fill="#18181B" fill-opacity="0.8"/>
<rect x="67.25" y="285.25" width="23.5" height="8.5" rx="1.75" stroke="#27272A" stroke-opacity="0.8" stroke-width="0.5"/>
<text x="79.0" y="289.5" font-family="Noto Sans SC, Microsoft YaHei, sans-serif" font-size="7" font-weight="bold" fill="white" text-anchor="middle" dominant-baseline="central">B大</text>
<rect x="98" y="227" width="30" height="9" rx="2" fill="#18181B" fill-opacity="0.8"/>
<rect x="98.25" y="227.25" width="29.5" height="8.5" rx="1.75" stroke="#27272A" stroke-opacity="0.8" stroke-width="0.5"/>
<text x="113.0" y="231.5" font-family="Noto Sans SC, Microsoft YaHei, sans-serif" font-size="6" font-weight="bold" fill="white" text-anchor="middle" dominant-baseline="central">B市场</text>
<rect x="49" y="132" width="19" height="9" rx="2" fill="#18181B" fill-opacity="0.8"/>
<rect x="49.25" y="132.25" width="18.5" height="8.5" rx="1.75" stroke="#27272A" stroke-opacity="0.8" stroke-width="0.5"/>
<text x="58.5" y="136.5" font-family="Noto Sans SC, Microsoft YaHei, sans-serif" font-size="6" font-weight="bold" fill="white" text-anchor="middle" dominant-baseline="central">奶茶店</text>
<rect x="174" y="221" width="33" height="9" rx="2" fill="#18181B" fill-opacity="0.8"/>
<rect x="174.25" y="221.25" width="32.5" height="8.5" rx="1.75" stroke="#27272A" stroke-opacity="0.8" stroke-width="0.5"/>
<text x="190.5" y="225.5" font-family="Noto Sans SC, Microsoft YaHei, sans-serif" font-size="7" font-weight="bold" fill="white" text-anchor="middle" dominant-baseline="central">庭院</text>
<rect x="223" y="257" width="30" height="9" rx="2" fill="#18181B" fill-opacity="0.8"/>
<rect x="223.25" y="257.25" width="29.5" height="8.5" rx="1.75" stroke="#27272A" stroke-opacity="0.8" stroke-width="0.5"/>
<text x="238.0" y="261.5" font-family="Noto Sans SC, Microsoft YaHei, sans-serif" font-size="6" font-weight="bold" fill="white" text-anchor="middle" dominant-baseline="central">中红砖</text>
<rect x="186" y="155" width="27" height="9" rx="2" fill="#18181B" fill-opacity="0.8"/>
<rect x="186.25" y="155.25" width="26.5" height="8.5" rx="1.75" stroke="#27272A" stroke-opacity="0.8" stroke-width="0.5"/>
<text x="199.5" y="159.5" font-family="Noto Sans SC, Microsoft YaHei, sans-serif" font-size="6" font-weight="bold" fill="white" text-anchor="middle" dominant-baseline="central">中上层</text>
<rect x="308" y="290" width="28" height="9" rx="2" fill="#18181B" fill-opacity="0.8"/>
<rect x="308.25" y="290.25" width="27.5" height="8.5" rx="1.75" stroke="#27272A" stroke-opacity="0.8" stroke-width="0.5"/>
<text x="322.0" y="294.5" font-family="Noto Sans SC, Microsoft YaHei, sans-serif" font-size="7" font-weight="bold" fill="white" text-anchor="middle" dominant-baseline="central">A厅</text>
<rect x="308" y="233" width="24" height="9" rx="2" fill="#18181B" fill-opacity="0.8"/>
<rect x="308.25" y="233.25" width="23.5" height="8.5" rx="1.75" stroke="#27272A" stroke-opacity="0.8" stroke-width="0.5"/>
<text x="320.0" y="237.5" font-family="Noto Sans SC, Microsoft YaHei, sans-serif" font-size="7" font-weight="bold" fill="white" text-anchor="middle" dominant-baseline="central">A大</text>
<rect x="271" y="134" width="22" height="9" rx="2" fill="#18181B" fill-opacity="0.8"/>
<rect x="271.25" y="134.25" width="21.5" height="8.5" rx="1.75" stroke="#27272A" stroke-opacity="0.8" stroke-width="0.5"/>
<text x="282.0" y="138.5" font-family="Noto Sans SC, Microsoft YaHei, sans-serif" font-size="7" font-weight="bold" fill="white" text-anchor="middle" dominant-baseline="central">A连</text>
<rect x="312" y="87" width="24" height="9" rx="2" fill="#18181B" fill-opacity="0.8"/>
<rect x="312.25" y="87.25" width="23.5" height="8.5" rx="1.75" stroke="#27272A" stroke-opacity="0.8" stroke-width="0.5"/>
<text x="324.0" y="91.5" font-family="Noto Sans SC, Microsoft YaHei, sans-serif" font-size="7" font-weight="bold" fill="white" text-anchor="middle" dominant-baseline="central">小巷</text>
<rect x="386" y="199" width="22" height="9" rx="2" fill="#18181B" fill-opacity="0.8"/>
<rect x="386.25" y="199.25" width="21.5" height="8.5" rx="1.75" stroke="#27272A" stroke-opacity="0.8" stroke-width="0.5"/>
<text x="397.0" y="203.5" font-family="Noto Sans SC, Microsoft YaHei, sans-serif" font-size="7" font-weight="bold" fill="white" text-anchor="middle" dominant-baseline="central">肘位</text>
<rect x="204" y="424" width="37" height="9" rx="2" fill="#18181B" fill-opacity="0.8"/>
<rect x="204.25" y="424.25" width="36.5" height="8.5" rx="1.75" stroke="#27272A" stroke-opacity="0.8" stroke-width="0.5"/>
<text x="222.5" y="428.5" font-family="Noto Sans SC, Microsoft YaHei, sans-serif" font-size="7" font-weight="bold" fill="white" text-anchor="middle" dominant-baseline="central">点箱</text>
<rect x="189" y="47" width="37" height="9" rx="2" fill="#18181B" fill-opacity="0.8"/>
<rect x="189.25" y="47.25" width="36.5" height="8.5" rx="1.75" stroke="#27272A" stroke-opacity="0.8" stroke-width="0.5"/>
<text x="207.5" y="51.5" font-family="Noto Sans SC, Microsoft YaHei, sans-serif" font-size="7" font-weight="bold" fill="white" text-anchor="middle" dominant-baseline="central">警家</text>
</svg>